<?xml version="1.0" encoding="utf-8"?>
<!-- Generator: Adobe Illustrator 23.0.1, SVG Export Plug-In . SVG Version: 6.00 Build 0)  -->
<svg version="1.1" id="Calque_1" xmlns="http://www.w3.org/2000/svg" xmlns:xlink="http://www.w3.org/1999/xlink" x="0px" y="0px"
	 viewBox="0 0 45.9 45.9" style="enable-background:new 0 0 45.9 45.9;" xml:space="preserve">
<path style="fill:#211736;" d="M44.7,7.8c-0.5-1.5-1.4-2.9-2.6-4c-1.1-1.1-2.5-2-4-2.6c-1.8-0.7-3.6-1-5.5-1.1C30.1,0,29.3,0,22.9,0
	c-6.3,0-7.1,0-9.6,0.1c-1.9,0-3.8,0.4-5.5,1.1c-1.5,0.6-2.9,1.5-4,2.6c-1.1,1.1-2,2.5-2.6,4c-0.7,1.8-1,3.6-1.1,5.5
	C0,15.8,0,16.6,0,22.9c0,6.3,0,7.1,0.1,9.6c0,1.9,0.4,3.8,1.1,5.5c0.6,1.5,1.5,2.9,2.6,4c1.1,1.1,2.5,2,4,2.6c1.8,0.7,3.6,1,5.5,1.1
	c2.5,0.1,3.4,0.1,9.7,0.1c6.3,0,7.1,0,9.6-0.1c1.9,0,3.8-0.4,5.5-1.1c3-1.2,5.4-3.6,6.6-6.6c0.7-1.8,1-3.6,1.1-5.5
	c0.1-2.5,0.1-3.4,0.1-9.7s0-7.1-0.1-9.6C45.7,11.4,45.3,9.5,44.7,7.8z M42.5,32.4c0,1.5-0.3,3.1-0.8,4.5c-0.4,1.1-1,2.1-1.9,2.9
	c-0.8,0.8-1.8,1.5-2.9,1.9c-1.5,0.5-3,0.8-4.5,0.8c-2.5,0.1-3.3,0.1-9.5,0.1c-6.2,0-7,0-9.5-0.1c-1.5,0-3-0.3-4.5-0.8
	c-1.1-0.4-2.1-1-2.9-1.9C5.3,39,4.6,38,4.2,36.9c-0.5-1.5-0.8-3-0.8-4.5c-0.1-2.5-0.1-3.3-0.1-9.5c0-6.2,0-7,0.1-9.5
	c0-1.5,0.3-3.1,0.8-4.5c0.4-1.1,1-2.1,1.9-2.9C6.9,5.2,7.9,4.6,9,4.2c1.5-0.5,3-0.8,4.5-0.8c2.5-0.1,3.3-0.1,9.5-0.1
	c6.2,0,7,0,9.5,0.1c1.5,0,3,0.3,4.5,0.8c1.1,0.4,2.1,1,2.9,1.9c0.8,0.8,1.5,1.8,1.9,2.9c0.5,1.5,0.8,3,0.8,4.5
	c0.1,2.5,0.1,3.3,0.1,9.5C42.7,29.1,42.6,29.9,42.5,32.4z"/>
<path style="fill:#211736;" d="M22.9,12c-6,0-10.9,4.9-10.9,10.9c0,2.9,1.1,5.6,3.2,7.7c2.1,2.1,4.8,3.2,7.7,3.2c0,0,0,0,0,0
	c6,0,10.9-4.9,10.9-10.9C33.8,16.9,29,12,22.9,12z M22.9,30.4c-4.1,0-7.5-3.4-7.5-7.5s3.4-7.5,7.5-7.5s7.5,3.4,7.5,7.5
	S27.1,30.4,22.9,30.4z"/>
<path style="fill:#211736;" d="M35.5,7.6c-1.5,0-2.8,1.2-2.8,2.8s1.2,2.8,2.8,2.8c1.5,0,2.8-1.2,2.8-2.8S37,7.6,35.5,7.6z"/>
</svg>
