<svg xmlns="http://www.w3.org/2000/svg" width="100.887" height="100.383" viewBox="0 0 100.887 100.383"><path d="M1.558,3.189a48.934,48.934,0,0,0,5.263,2.44l1.869,24.06a1.683,1.683,0,0,0,3.067.824L23.93,12.744l1.576,20.31a1.683,1.683,0,0,0,3.067.824L41.617,14.844l7.859,22.223a1.682,1.682,0,0,0,3.172,0L60.477,14.85,73.519,33.878a1.68,1.68,0,0,0,3.062-.822L78.158,12.75,90.334,30.515a1.68,1.68,0,0,0,3.062-.822l1.873-24.05a52.876,52.876,0,0,0,5.3-2.465A1.682,1.682,0,0,0,98.953.225a49.747,49.747,0,0,1-5.917,2.709q-1.066.438-2.186.826A87.769,87.769,0,0,1,80.9,6.543q-1.775.391-3.624.734l-.023.008-.078.015a7.328,7.328,0,0,1-.738.132c-.841.168-1.681.311-2.566.443-4.164.66-8.483,1.135-12.817,1.408l-1.146.065h-.1c-2.835.168-5.795.252-8.763.252q-2.2,0-4.433-.061c-1.465-.042-2.917-.105-4.334-.187H42.1l-1.045-.063c-3.907-.24-7.819-.649-11.619-1.211-1.293-.2-2.554-.4-3.8-.631h-.011L24.8,7.3A90.792,90.792,0,0,1,10.188,3.361l-.4-.147c-.212-.08-.422-.168-.633-.248l-.132-.055A46.49,46.49,0,0,1,3.176.242,1.682,1.682,0,0,0,1.558,3.189ZM11.674,24.678,10.3,6.972c.53.185,1.08.359,1.629.536.25.08.494.168.748.246q1.63.5,3.346.979c.227.061.465.12.694.181q1.406.372,2.859.71c.357.084.719.168,1.085.246.336.074.66.153,1.009.227Zm16.815,3.363L27.177,11.113q.867.142,1.761.277,2.74.407,5.549.7c.591.063,1.185.109,1.782.168.954.09,1.906.191,2.859.263Zm22.568,3.418L44.465,12.828c.443.019.9.027,1.345.042.4.013.8.027,1.2.038q1.942.05,3.9.055h.153c1.358,0,2.705-.023,4.036-.057.376-.011.744-.023,1.116-.036.465-.015.94-.023,1.4-.044ZM90.4,24.685l-10-14.6c.238-.048.465-.105.7-.156.414-.09.822-.181,1.23-.273q1.122-.259,2.215-.532c.378-.1.757-.189,1.131-.288.8-.212,1.583-.435,2.354-.66.273-.08.553-.158.824-.24,1-.3,1.976-.616,2.924-.946ZM74.908,11.115,73.6,28.041,62.963,12.521c1.11-.082,2.207-.206,3.308-.315.673-.065,1.345-.116,2-.191,2.064-.233,4.107-.5,6.108-.82C74.557,11.17,74.734,11.142,74.908,11.115Z" transform="translate(-0.578 -0.019)" fill="#211736"/><path d="M207.641,209.371a11.77,11.77,0,1,0-23.541,0c0,5.984,4.443,17.164,10.671,18.377l1.984,3.97a4.256,4.256,0,0,1-1.9,5.719,7.593,7.593,0,0,0-3.783,9.33l1.461,8.3a1.683,1.683,0,0,0,3.312-.593l-1.49-8.452a1.812,1.812,0,0,0-.082-.3,4.241,4.241,0,0,1,2.079-5.3,7.623,7.623,0,0,0,3.407-10.209l-1.44-2.882C203.832,224.922,207.641,214.922,207.641,209.371ZM195.87,224.5c-4.086,0-8.407-9.841-8.407-15.133a8.407,8.407,0,1,1,16.815,0C204.278,214.663,199.956,224.5,195.87,224.5Z" transform="translate(-145.405 -156.071)" fill="#211736"/><path d="M355.176,215.267a3.76,3.76,0,0,1-1.265-5.353l2.079-3.119a10.041,10.041,0,0,0,1.694-5.6v-1.8l10.2-10.2a6.726,6.726,0,1,0-9.507-9.517L356,182.051l-2.365-2.367a6.725,6.725,0,1,0-9.517,9.5l10.2,10.207v1.8a6.679,6.679,0,0,1-1.131,3.731l-2.079,3.119a7.122,7.122,0,0,0,2.394,10.137,3.759,3.759,0,0,1,.578,6.123l-3.161,2.714a6.728,6.728,0,0,0-1.868,7.6l2.018,5.055a1.684,1.684,0,0,0,3.128-1.248l-2.018-5.057a3.364,3.364,0,0,1,.933-3.8l3.161-2.711a7.123,7.123,0,0,0-1.1-11.6ZM345.5,184.418a3.375,3.375,0,0,1,5.751-2.371l3.565,3.565a1.682,1.682,0,0,0,2.377,0l3.575-3.575a3.423,3.423,0,0,1,4.748.015,3.315,3.315,0,0,1,.99,2.367,3.378,3.378,0,0,1-.994,2.4l-9.509,9.507-9.5-9.507A3.356,3.356,0,0,1,345.5,184.418Z" transform="translate(-270.227 -140.354)" fill="#ee2b74"/><path d="M31.885,189.193a6.726,6.726,0,1,0-9.507-9.517L20,182.051l-2.365-2.375a6.727,6.727,0,1,0-9.517,9.511l10.2,10.207v1.8a10.043,10.043,0,0,0,1.7,5.6l2.079,3.119a3.762,3.762,0,0,1-1.263,5.353,7.122,7.122,0,0,0-1.1,11.594l3.165,2.713a3.36,3.36,0,0,1,.931,3.8l-2.018,5.055a1.683,1.683,0,0,0,.937,2.186,1.652,1.652,0,0,0,.62.12,1.681,1.681,0,0,0,1.562-1.057l2.018-5.053a6.726,6.726,0,0,0-1.866-7.6l-3.167-2.714a3.758,3.758,0,0,1,.578-6.119,7.124,7.124,0,0,0,2.4-10.137l-2.079-3.119a6.692,6.692,0,0,1-1.127-3.731v-1.8ZM9.5,184.418a3.375,3.375,0,0,1,5.751-2.371l3.565,3.565a1.682,1.682,0,0,0,2.377,0l3.575-3.575a3.423,3.423,0,0,1,4.748.015,3.315,3.315,0,0,1,.99,2.367,3.378,3.378,0,0,1-.994,2.4L20,196.32l-9.5-9.507A3.354,3.354,0,0,1,9.5,184.418Z" transform="translate(-4.849 -140.354)" fill="#ee2b74"/><path d="M322.89,270.177a1.681,1.681,0,0,0-2.377,2.377l1.478,1.48a3.361,3.361,0,0,1,0,4.754l-1.478,1.478a1.681,1.681,0,1,0,2.377,2.377l1.478-1.478a6.727,6.727,0,0,0,0-9.511Z" transform="translate(-252.741 -213.02)" fill="#211736"/><path d="M450.89,350.177a1.681,1.681,0,0,0-2.377,2.377l1.478,1.48a3.36,3.36,0,0,1,0,4.754l-1.478,1.478a1.681,1.681,0,1,0,2.377,2.377l1.478-1.478a6.727,6.727,0,0,0,0-9.511Z" transform="translate(-353.837 -276.205)" fill="#211736"/><path d="M301.936,400.557a1.68,1.68,0,0,0-2.375-2.377l-1.48,1.48a6.727,6.727,0,0,0,0,9.511l1.48,1.478a1.68,1.68,0,0,0,2.375-2.377l-1.478-1.478a3.361,3.361,0,0,1,0-4.754Z" transform="translate(-233.874 -314.119)" fill="#211736"/><path d="M149.936,360.557a1.68,1.68,0,0,0-2.375-2.377l-1.48,1.48a6.727,6.727,0,0,0,0,9.511l1.48,1.478a1.68,1.68,0,0,0,2.375-2.377l-1.478-1.478a3.361,3.361,0,0,1,0-4.754Z" transform="translate(-113.822 -282.527)" fill="#211736"/><path d="M164.459,156.351a3.361,3.361,0,0,1,0-4.754,1.681,1.681,0,0,0-2.377-2.377,6.727,6.727,0,0,0,0,9.511,1.682,1.682,0,0,0,2.377-2.379Z" transform="translate(-126.459 -117.487)" fill="#211736"/><path d="M2.89,310.177a1.681,1.681,0,0,0-2.377,2.377l1.478,1.48a3.36,3.36,0,0,1,0,4.754L.513,320.266a1.681,1.681,0,1,0,2.377,2.377l1.478-1.478a6.727,6.727,0,0,0,0-9.511Z" transform="translate(0 -244.613)" fill="#211736"/><path d="M139.324,259.395l1.681-3.363a1.682,1.682,0,1,0-3.01-1.5l-1.681,3.363a1.682,1.682,0,0,0,3.01,1.5Z" transform="translate(-107.523 -200.299)" fill="#211736"/><path d="M459.047,294.177a1.681,1.681,0,0,0-2.377,2.377l1.681,1.681a1.681,1.681,0,0,0,2.377-2.377Z" transform="translate(-360.312 -231.976)" fill="#211736"/><path d="M146.977,310.017a1.66,1.66,0,0,0-2.741.555,1.591,1.591,0,0,0,0,1.278,2.025,2.025,0,0,0,.353.555,1.707,1.707,0,0,0,2.388,0,1.976,1.976,0,0,0,.353-.555,1.573,1.573,0,0,0,0-1.278A1.793,1.793,0,0,0,146.977,310.017Z" transform="translate(-113.814 -244.459)" fill="#211736"/><path d="M330.721,357.885a1.277,1.277,0,0,0-.3-.151,1.093,1.093,0,0,0-.3-.1,1.671,1.671,0,0,0-2.018,1.648,1.4,1.4,0,0,0,.134.639,2.024,2.024,0,0,0,.353.555,1.769,1.769,0,0,0,.555.353,1.667,1.667,0,0,0,1.833-.353,1.975,1.975,0,0,0,.353-.555,1.674,1.674,0,0,0,.135-.639,1.723,1.723,0,0,0-.488-1.194A2.3,2.3,0,0,0,330.721,357.885Z" transform="translate(-259.136 -282.438)" fill="#211736"/><path d="M298.711,181.9a1.276,1.276,0,0,0-.3-.151,1.007,1.007,0,0,0-.322-.1,1.684,1.684,0,0,0-1.513.454,1.769,1.769,0,0,0-.353.555,1.574,1.574,0,0,0,0,1.278,2.024,2.024,0,0,0,.353.555,1.707,1.707,0,0,0,2.388,0,2.025,2.025,0,0,0,.353-.555,1.574,1.574,0,0,0,0-1.278,1.746,1.746,0,0,0-.353-.555A2.5,2.5,0,0,0,298.711,181.9Z" transform="translate(-233.852 -143.446)" fill="#211736"/><path d="M402.722,149.88a1.276,1.276,0,0,0-.3-.151,1.007,1.007,0,0,0-.322-.1,1.622,1.622,0,0,0-1.864,1.009,1.681,1.681,0,1,0,3.094,0,1.945,1.945,0,0,0-.353-.555A2.3,2.3,0,0,0,402.722,149.88Z" transform="translate(-316.004 -118.152)" fill="#211736"/><path d="M434.974,422.088a1.7,1.7,0,0,0-.269-.2.933.933,0,0,0-.286-.151,1.007,1.007,0,0,0-.322-.1,1.557,1.557,0,0,0-.956.1,1.746,1.746,0,0,0-.555.353,1.946,1.946,0,0,0-.353.555,1.681,1.681,0,1,0,3.094,0A2.025,2.025,0,0,0,434.974,422.088Z" transform="translate(-341.278 -332.989)" fill="#211736"/><path d="M178.973,430.1a1.992,1.992,0,0,0-.555-.353,1.682,1.682,0,0,0-1.833.353,1.947,1.947,0,0,0-.353.555,1.4,1.4,0,0,0-.135.639,1.668,1.668,0,0,0,.488,1.194,2.528,2.528,0,0,0,.555.37,1.7,1.7,0,0,0,.639.118,1.668,1.668,0,0,0,1.194-.488,1.746,1.746,0,0,0,.488-1.194,1.674,1.674,0,0,0-.135-.639A1.794,1.794,0,0,0,178.973,430.1Z" transform="translate(-139.084 -339.32)" fill="#211736"/><path d="M50.974,430.167a1.657,1.657,0,0,0-2.741.555,1.681,1.681,0,1,0,3.094,0A1.793,1.793,0,0,0,50.974,430.167Z" transform="translate(-37.989 -339.387)" fill="#211736"/><path d="M18.971,278.092a2.941,2.941,0,0,0-.252-.2,1.274,1.274,0,0,0-.3-.151,1.091,1.091,0,0,0-.3-.1,1.717,1.717,0,0,0-1.53.454,1.77,1.77,0,0,0-.353.555,1.573,1.573,0,0,0,0,1.278,2.023,2.023,0,0,0,.353.555,1.666,1.666,0,0,0,1.833.353,1.516,1.516,0,0,0,.908-.908,1.573,1.573,0,0,0,0-1.278A1.794,1.794,0,0,0,18.971,278.092Z" transform="translate(-12.712 -219.261)" fill="#211736"/><path d="M66.723,149.914a1.274,1.274,0,0,0-.3-.151,1.007,1.007,0,0,0-.322-.1,1.729,1.729,0,0,0-1.513.454,1.694,1.694,0,1,0,2.745.555,1.746,1.746,0,0,0-.353-.555A2.552,2.552,0,0,0,66.723,149.914Z" transform="translate(-50.627 -118.186)" fill="#211736"/><path d="M3.047,422.177A1.681,1.681,0,0,0,.67,424.554l1.681,1.681a1.681,1.681,0,1,0,2.377-2.377Z" transform="translate(-0.157 -333.072)" fill="#211736"/></svg>