<svg xmlns="http://www.w3.org/2000/svg" width="244.565" height="239.192" viewBox="0 0 244.565 239.192"><g transform="translate(-1723 -718)"><path d="M179.69.68a5.869,5.869,0,0,0-7.82,2.25l-.12.2h0a5.859,5.859,0,0,0,2.46,7.92c42.29,22.29,66.06,73.6,56.51,122.07-6.73,35.63-30.58,66.31-61.37,82.26a113.875,113.875,0,0,1-43.03,11.75c-48.99,3.68-97.34-25.31-114.98-68.89a1.22,1.22,0,0,0-.07-.17A5.868,5.868,0,0,0,.46,162.64c19.49,48.2,72.79,80.25,126.69,76.21,2.61-.18,5.2-.46,7.78-.8a5.09,5.09,0,0,0,.95-.05,114.691,114.691,0,0,0,38.52-12.06c33-16.39,58.55-46.61,66.67-82.37a5.826,5.826,0,0,0-.01-2.66c.44-1.84.85-3.7,1.2-5.56C252.77,81.97,226.47,25.33,179.69.68Z" transform="translate(1723.005 717.999)" fill="#fff"/></g></svg>