<svg xmlns="http://www.w3.org/2000/svg" width="87.533" height="101" viewBox="0 0 87.533 101"><path d="M68.874,223.465a1.684,1.684,0,0,0,.486-3.3C65.882,219.125,62.107,215.308,59,209.7a1.683,1.683,0,0,0-2.944,1.631c3.535,6.371,8.03,10.773,12.339,12.061A1.622,1.622,0,0,0,68.874,223.465Z" transform="translate(-44.091 -164.89)" fill="#f7941d"/><path d="M174.811,59.693a18.562,18.562,0,0,1,1.6,7.447,1.683,1.683,0,0,0,3.367,0,21.909,21.909,0,0,0-1.875-8.787,22.773,22.773,0,0,0-7.215-9.225,1.683,1.683,0,0,0-2.02,2.693A19.428,19.428,0,0,1,174.811,59.693Z" transform="translate(-132.643 -38.525)" fill="#f7941d"/><path d="M121.665,35.367a13.984,13.984,0,0,1,4.507.766,1.683,1.683,0,0,0,1.084-3.188A17.321,17.321,0,0,0,121.663,32a1.683,1.683,0,1,0,0,3.367Z" transform="translate(-94.734 -25.267)" fill="#f7941d"/><path d="M229.35,284.19c-3.478-1.044-7.253-4.861-10.363-10.47a1.683,1.683,0,1,0-2.944,1.633c3.535,6.371,8.03,10.773,12.339,12.061a1.683,1.683,0,1,0,.968-3.224Z" transform="translate(-170.417 -215.439)" fill="#f7941d"/><path d="M330.674,113.128a1.683,1.683,0,1,0-2.02,2.693,19.4,19.4,0,0,1,6.142,7.861,18.55,18.55,0,0,1,1.6,7.457,1.683,1.683,0,1,0,3.367,0,21.909,21.909,0,0,0-1.875-8.787A22.787,22.787,0,0,0,330.674,113.128Z" transform="translate(-258.969 -89.058)" fill="#f7941d"/><path d="M287.256,96.935a17.321,17.321,0,0,0-5.593-.945,1.683,1.683,0,0,0,0,3.367,13.983,13.983,0,0,1,4.507.766,1.684,1.684,0,0,0,1.086-3.188Z" transform="translate(-221.067 -75.792)" fill="#f7941d"/><path d="M60.573,13.467h-.027A24.159,24.159,0,0,0,50.7,15.611,27.042,27.042,0,0,0,26.931,0C12.585,0,0,13.372,0,28.615,0,41.8,9.048,59.721,20.936,64.419l-.715,4.316a1.684,1.684,0,0,0,1.66,1.959H24.6l-1.067,3.2A11.707,11.707,0,0,0,24.911,84.16l1.25,1.875a8.37,8.37,0,0,1,.983,7.331l-1.8,5.416a1.685,1.685,0,1,0,3.2,1.065l1.795-5.418A11.707,11.707,0,0,0,28.951,84.16L27.7,82.286a8.363,8.363,0,0,1-.985-7.331L28.143,70.7h3.838a1.684,1.684,0,0,0,1.66-1.959l-.715-4.311a21.893,21.893,0,0,0,5.683-3.354c3.535,7.1,9.113,14.115,15.99,16.842l-.711,4.292a1.684,1.684,0,0,0,1.66,1.959h2.714l-1.067,3.2a11.707,11.707,0,0,0,1.382,10.268L59.826,99.5c.135.2.259.41.377.621a1.684,1.684,0,0,0,2.956-1.612c-.168-.3-.337-.587-.528-.873l-1.25-1.875a8.362,8.362,0,0,1-.985-7.331l1.416-4.267H65.65a1.684,1.684,0,0,0,1.66-1.959L66.6,77.945c4.821-1.881,9.408-6.005,13.3-12.076a47.166,47.166,0,0,0,7.632-23.836C87.491,26.8,74.9,13.467,60.573,13.467ZM3.367,28.615c0-13.45,11.011-25.248,23.565-25.248,9.037,0,17.441,5.936,21.416,15.131A25.248,25.248,0,0,1,50.5,28.617a29.45,29.45,0,0,1-.244,3.7,38.019,38.019,0,0,1-.842,4.364A44.06,44.06,0,0,1,38.024,57.141a19.04,19.04,0,0,1-7.48,4.6,12.168,12.168,0,0,1-5.431.41,12.721,12.721,0,0,1-1.81-.412C12.263,58.408,3.367,40.9,3.367,28.615Zm20.5,38.715.32-1.932c.1.019.2.023.3.04s.246.032.368.048a15.224,15.224,0,0,0,2.052.158h.053a15.573,15.573,0,0,0,2.052-.156c.122-.017.248-.029.37-.048s.2-.021.3-.04l.32,1.93ZM63.66,80.794H57.532l.32-1.932c.189.034.381.05.568.078q.237.035.473.063a15.835,15.835,0,0,0,1.7.105h.046a15.635,15.635,0,0,0,2.693-.242ZM77.067,64.047c-3.8,5.921-8.377,9.826-12.949,11.171a12.515,12.515,0,0,1-1.614.366l-.225.032a11.992,11.992,0,0,1-3.384,0c-.141-.019-.278-.053-.417-.078a12.565,12.565,0,0,1-1.366-.309c-6.832-1.957-12.484-9.281-15.9-16.495.1-.1.2-.215.295-.318.21-.221.417-.446.625-.673.246-.271.488-.549.73-.831q.306-.36.606-.734c.236-.288.467-.585.7-.886q.3-.388.585-.789c.225-.305.444-.617.657-.93.191-.276.377-.553.562-.842.21-.32.417-.646.621-.972q.271-.432.532-.877c.2-.337.389-.673.579-1.01l.5-.913c.183-.337.36-.69.534-1.037.158-.314.316-.625.467-.938.168-.356.337-.713.494-1.069.143-.318.288-.635.425-.953.154-.362.3-.728.45-1.092.128-.322.259-.642.381-.964.139-.37.269-.741.4-1.111.114-.322.229-.644.337-.966.124-.377.236-.751.351-1.13.1-.318.2-.635.288-.953.107-.383.2-.764.3-1.149.08-.311.168-.623.236-.934.09-.391.168-.779.246-1.168.061-.3.128-.6.181-.9.072-.406.128-.808.187-1.21.04-.276.09-.553.124-.829.057-.444.09-.882.128-1.319.019-.225.048-.455.063-.673.042-.657.065-1.307.065-1.944,0-.913-.053-1.826-.143-2.733-.029-.3-.084-.6-.122-.9-.08-.608-.168-1.216-.288-1.82-.069-.349-.158-.694-.24-1.042-.133-.555-.276-1.109-.442-1.658q-.161-.53-.345-1.058c-.086-.25-.152-.505-.244-.751a20.847,20.847,0,0,1,8.5-1.82h.023c12.539,0,23.565,11.771,23.59,25.2A43.593,43.593,0,0,1,77.067,64.047Z" fill="#211736"/></svg>