<svg xmlns="http://www.w3.org/2000/svg" width="101" height="100.994" viewBox="0 0 101 100.994"><path d="M99.317,106.729H60.6V91.7L76.773,75.53a5.074,5.074,0,0,0-.261-7.388,5.19,5.19,0,0,0-7.038.4L58.6,79.41a8.409,8.409,0,0,0-6.418-2.984H48.817a8.437,8.437,0,0,0-5.85,2.365L29,82.55a5.049,5.049,0,0,0-3.745,4.875v9.2a5.05,5.05,0,1,0,10.1,0V91.3l5.05-1.347v16.77H1.683A1.683,1.683,0,0,0,0,108.41v43.767a1.683,1.683,0,0,0,1.683,1.683H99.317A1.683,1.683,0,0,0,101,152.176V108.41A1.682,1.682,0,0,0,99.317,106.729ZM43.106,86.423a1.651,1.651,0,0,0-1.458-.29l-8.417,2.254a1.684,1.684,0,0,0-1.248,1.627v6.616a1.683,1.683,0,0,1-3.367,0v-9.2A1.68,1.68,0,0,1,29.864,85.8l14.424-3.872a1.7,1.7,0,0,0,.8-.49A4.99,4.99,0,0,1,48.817,79.8h3.367a5.03,5.03,0,0,1,4.591,2.975,1.682,1.682,0,0,0,2.727.505L71.855,70.924a1.838,1.838,0,0,1,2.449-.238,1.712,1.712,0,0,1,.086,2.466L57.726,89.817a1.68,1.68,0,0,0-.492,1.189v15.722H43.767V87.757A1.676,1.676,0,0,0,43.106,86.423ZM97.633,150.5H3.367V110.1H97.633Z" transform="translate(0 -52.866)" fill="#211736"/><path d="M48,233.663a1.683,1.683,0,0,0,1.683,1.683H73.25a1.683,1.683,0,1,0,0-3.367H49.683A1.683,1.683,0,0,0,48,233.663Z" transform="translate(-37.9 -183.167)" fill="#ee2b74"/><path d="M304,233.663a1.683,1.683,0,0,0,1.683,1.683H329.25a1.683,1.683,0,1,0,0-3.367H305.683A1.683,1.683,0,0,0,304,233.663Z" transform="translate(-240.033 -183.167)" fill="#ee2b74"/><path d="M197.17,18.512h4.08a1.683,1.683,0,0,0,1.683-1.683v-5.05A1.683,1.683,0,0,0,201.25,10.1h-.135a11.768,11.768,0,0,0-23.3,0h-.135A1.683,1.683,0,0,0,176,11.779v5.05a1.683,1.683,0,0,0,1.683,1.683h4.078a8.4,8.4,0,0,0,15.409,0Zm2.4-3.367h-1.683a8.523,8.523,0,0,0-.168-1.683h1.852Zm-10.1-11.783a8.432,8.432,0,0,1,8.248,6.733h-1.557a8.36,8.36,0,0,0-13.41,0h-1.53A8.432,8.432,0,0,1,189.467,3.362Zm-10.1,11.783V13.462h1.852c-.015.063-.008.128-.021.191a8.262,8.262,0,0,0-.147,1.492h-1.683Zm10.1,5.05a5.052,5.052,0,0,1-4.894-3.823,4.391,4.391,0,0,1-.156-1.227,5.033,5.033,0,0,1,9.481-2.374,5.183,5.183,0,0,1,.372.892c.029.1.065.189.088.288a4.86,4.86,0,0,1,.158,1.193,4.508,4.508,0,0,1-.147,1.161A5.053,5.053,0,0,1,189.467,20.2Z" transform="translate(-138.967)" fill="#211736"/></svg>