<svg xmlns="http://www.w3.org/2000/svg" width="100.679" height="100.68" viewBox="0 0 100.679 100.68"><path d="M344.78,8.39a8.39,8.39,0,1,0-8.39,8.39A8.39,8.39,0,0,0,344.78,8.39Zm-8.39,5.034a5.034,5.034,0,1,1,5.034-5.034A5.035,5.035,0,0,1,336.39,13.424Z" transform="translate(-259.202)" fill="#211736"/><path d="M304.272,23.1h-30.2V13.034a5.034,5.034,0,1,0-10.068,0v15.1a5.035,5.035,0,0,0,5.034,5.034h5.034V41l-5.705,7.635a5.06,5.06,0,0,0-1.007,3.02V70.086a1.678,1.678,0,0,0,1.678,1.678h6.712a1.678,1.678,0,0,0,1.678-1.678V53.373a1.683,1.683,0,0,1,.443-1.139l3.648-3.962h4.3V70.086a1.678,1.678,0,0,0,1.678,1.678H294.2a1.678,1.678,0,0,0,1.678-1.678V33.17h3.356v6.712a5.034,5.034,0,1,0,10.068,0V28.136A5.035,5.035,0,0,0,304.272,23.1Zm1.678,16.78a1.678,1.678,0,1,1-3.356,0v-8.39a1.677,1.677,0,0,0-1.678-1.678H294.2a1.678,1.678,0,0,0-1.678,1.678V68.408H289.17V46.594a1.677,1.677,0,0,0-1.678-1.678H280.78a1.674,1.674,0,0,0-1.233.543L275.4,49.964a5,5,0,0,0-1.33,3.411V68.408h-3.356V51.653a1.674,1.674,0,0,1,.336-1.007l6.041-8.08a1.678,1.678,0,0,0,.336-1.007V31.492a1.678,1.678,0,0,0-1.678-1.678h-6.712a1.678,1.678,0,0,1-1.678-1.678v-15.1a1.678,1.678,0,0,1,3.356,0V24.78a1.677,1.677,0,0,0,1.678,1.678h31.882a1.678,1.678,0,0,1,1.678,1.678Z" transform="translate(-208.626 -6.322)" fill="#211736"/><path d="M120.78,160.39a8.39,8.39,0,1,0-8.39,8.39A8.39,8.39,0,0,0,120.78,160.39Zm-8.39,5.034a5.034,5.034,0,1,1,5.034-5.034A5.035,5.035,0,0,1,112.39,165.424Z" transform="translate(-82.186 -120.118)" fill="#211736"/><path d="M73.511,160.227a5.044,5.044,0,0,0-6.274,4.866v10.068H40.39a8.4,8.4,0,0,0-8.39,8.39v8.39a5.035,5.035,0,0,0,5.034,5.034h8.39v4.984a1.682,1.682,0,0,0,.063.457l3.163,11.119-6.362,11.127a1.677,1.677,0,0,0,1.456,2.517h6.712a1.686,1.686,0,0,0,1.458-.839l6.712-11.746a1.676,1.676,0,0,0,.157-1.292l-2.744-9.615h3.278l2.853,8.558-1.63,13.046a1.679,1.679,0,0,0,1.665,1.888h6.712a1.675,1.675,0,0,0,1.663-1.47l1.678-13.424a1.7,1.7,0,0,0-.044-.65l-4.977-18.24v-8.166h5.034a5.035,5.035,0,0,0,5.034-5.034V165.277A5.145,5.145,0,0,0,73.511,160.227Zm.438,19.968a1.678,1.678,0,0,1-1.678,1.678H65.56a1.678,1.678,0,0,0-1.678,1.678v10.068a1.666,1.666,0,0,0,.059.443L68.886,212.2l-1.454,11.624H64.1l1.441-11.538a1.635,1.635,0,0,0-.073-.738l-3.356-10.068a1.675,1.675,0,0,0-1.59-1.147H53.814a1.678,1.678,0,0,0-1.615,2.137l3.163,11.075-5.877,10.28H46.632l5.275-9.229a1.671,1.671,0,0,0,.157-1.29l-3.285-11.58v-4.749a5.034,5.034,0,1,0,0-10.068v-3.356a1.678,1.678,0,0,0-1.678-1.678H42.068a3.355,3.355,0,0,0-3.356,3.356v3.356a1.678,1.678,0,0,0,1.678,1.678h8.39a1.678,1.678,0,0,1,1.678,1.678,1.642,1.642,0,0,1-.516,1.2,1.605,1.605,0,0,1-1.162.482H37.034a1.678,1.678,0,0,1-1.678-1.678v-8.39a5.035,5.035,0,0,1,5.034-5.034H68.916a1.678,1.678,0,0,0,1.678-1.678V165.093a1.644,1.644,0,0,1,.514-1.2,1.589,1.589,0,0,1,1.582-.426,1.82,1.82,0,0,1,1.261,1.806v14.917Zm-28.526,6.712H42.068v-1.678h3.356Z" transform="translate(-25.288 -126.499)" fill="#211736"/><path d="M11.865,25.793a1.677,1.677,0,0,0,3.117,0l3.09-7.719,7.719-3.09a1.677,1.677,0,0,0,0-3.117l-7.719-3.09-3.09-7.721a1.677,1.677,0,0,0-3.117,0L8.776,8.776l-7.719,3.09a1.677,1.677,0,0,0,0,3.117l7.719,3.09ZM10.691,11.626a1.68,1.68,0,0,0,.935-.935l1.8-4.495,1.8,4.495a1.674,1.674,0,0,0,.935.935l4.495,1.8-4.495,1.8a1.68,1.68,0,0,0-.935.935l-1.8,4.495-1.8-4.495a1.68,1.68,0,0,0-.935-.935L6.2,13.424Z" transform="translate(0)" fill="#f7941d"/><path d="M313.8,363.866l-7.719-3.09-3.09-7.719a1.677,1.677,0,0,0-3.117,0l-3.09,7.719-7.719,3.09a1.677,1.677,0,0,0,0,3.117l7.719,3.09,3.09,7.719a1.677,1.677,0,0,0,3.117,0l3.09-7.719,7.719-3.09a1.677,1.677,0,0,0,0-3.117Zm-9.636,3.356a1.68,1.68,0,0,0-.935.935l-1.8,4.495-1.8-4.495a1.673,1.673,0,0,0-.935-.935l-4.495-1.8,4.495-1.8a1.68,1.68,0,0,0,.935-.936l1.8-4.495,1.8,4.495a1.673,1.673,0,0,0,.935.936l4.495,1.8Z" transform="translate(-227.6 -278.168)" fill="#f7941d"/><path d="M175.795,70.227a1.68,1.68,0,0,1-1.187-.491l-4.747-4.747a1.679,1.679,0,0,1,0-2.372l4.747-4.747a1.679,1.679,0,0,1,2.372,0l4.747,4.747a1.679,1.679,0,0,1,0,2.372l-4.747,4.747A1.68,1.68,0,0,1,175.795,70.227ZM173.422,63.8l2.372,2.372,2.372-2.372-2.372-2.372Z" transform="translate(-133.845 -45.345)" fill="#211736"/><path d="M423.795,342.227a1.68,1.68,0,0,1-1.187-.491l-4.747-4.747a1.679,1.679,0,0,1,0-2.372l4.747-4.747a1.679,1.679,0,0,1,2.372,0l4.747,4.747a1.679,1.679,0,0,1,0,2.372l-4.747,4.747A1.68,1.68,0,0,1,423.795,342.227Zm-2.372-6.425,2.372,2.372,2.372-2.372-2.372-2.372Z" transform="translate(-329.827 -260.293)" fill="#211736"/></svg>