<svg xmlns="http://www.w3.org/2000/svg" xmlns:xlink="http://www.w3.org/1999/xlink" width="227.38" height="192.375" viewBox="0 0 227.38 192.375"><defs><linearGradient id="a" x1="0.5" x2="-0.83" y2="1.325" gradientUnits="objectBoundingBox"><stop offset="0" stop-color="#d21f7a"/><stop offset="0.307" stop-color="#ee2f71"/><stop offset="1" stop-color="#f7941d"/></linearGradient></defs><g transform="translate(-1017 -65.625)"><g transform="translate(1654.38 395) rotate(180)"><g transform="translate(532.005 167.405)"><path d="M5.5,52.51a5.49,5.49,0,0,1-3.887-9.376L43.133,1.609a5.5,5.5,0,0,1,7.773,7.773L9.382,50.907A5.561,5.561,0,0,1,5.5,52.51Z" fill="url(#a)"/></g><g transform="translate(554.005 137.005)"><path d="M2.5,83.37A2.5,2.5,0,0,1,.73,79.1L79.1.73a2.5,2.5,0,0,1,3.54,3.54L4.27,82.64A2.49,2.49,0,0,1,2.5,83.37Z" fill="url(#a)"/></g></g><g transform="translate(607 -71.375)"><g transform="translate(532.005 167.405)"><path d="M5.5,52.51a5.49,5.49,0,0,1-3.887-9.376L43.133,1.609a5.5,5.5,0,0,1,7.773,7.773L9.382,50.907A5.561,5.561,0,0,1,5.5,52.51Z" fill="url(#a)"/></g><g transform="translate(554.005 137.005)"><path d="M2.5,83.37A2.5,2.5,0,0,1,.73,79.1L79.1.73a2.5,2.5,0,0,1,3.54,3.54L4.27,82.64A2.49,2.49,0,0,1,2.5,83.37Z" fill="url(#a)"/></g></g></g></svg>