<svg xmlns="http://www.w3.org/2000/svg" xmlns:xlink="http://www.w3.org/1999/xlink" width="306.14" height="225.328" viewBox="0 0 306.14 225.328"><defs><linearGradient id="a" x1="0.5" x2="-0.919" y2="1.496" gradientUnits="objectBoundingBox"><stop offset="0" stop-color="#d21f7a"/><stop offset="0.307" stop-color="#ee2f71"/><stop offset="1" stop-color="#f7941d"/></linearGradient></defs><g transform="translate(-793.257 -975.322)"><g transform="translate(855.52 975.321)"><g transform="translate(43.771)"><path d="M15.737,150.281A15.71,15.71,0,0,1,4.614,123.448L123.448,4.614A15.73,15.73,0,0,1,145.694,26.86L26.86,145.694A15.915,15.915,0,0,1,15.737,150.281Z" transform="translate(0.005 0.005)" fill="#fb95aa"/></g><g transform="translate(127.039 26.949)"><path d="M229.54,116.584a7.155,7.155,0,0,1-5.065-12.22L326.975,2.1a7.164,7.164,0,0,1,10.131,10.131L234.605,114.5A7.126,7.126,0,0,1,229.54,116.584Z" transform="translate(-222.371 0.005)" fill="#fb95aa"/></g><g transform="translate(0 38.795)"><path d="M255.189,102.61a7.155,7.155,0,0,1-5.065-12.22L338.578,2.1a7.164,7.164,0,0,1,10.131,10.131l-88.454,88.292A7.126,7.126,0,0,1,255.189,102.61Z" transform="translate(-248.021 0.005)" fill="#fb95aa"/></g></g><g transform="translate(868.997 1050.364)"><path d="M15.737,150.281A15.71,15.71,0,0,1,4.614,123.448L123.448,4.614A15.73,15.73,0,0,1,145.694,26.86L26.86,145.694A15.915,15.915,0,0,1,15.737,150.281Z" transform="translate(0.005 0.005)" fill="url(#a)"/></g><path d="M172.27,131.646a7.155,7.155,0,0,1-5.065-12.22L284.455,2.1a7.164,7.164,0,0,1,10.131,10.131L177.336,129.557A7.126,7.126,0,0,1,172.27,131.646Z" transform="translate(628.155 1067.851)" fill="url(#a)"/></g></svg>