<svg xmlns="http://www.w3.org/2000/svg" viewBox="0 0 611.26 163.23"><title>Fichier 1</title><g id="Calque_2" data-name="Calque 2"><g id="Capa_1" data-name="Capa 1"><path d="M343.84,0h20.83c2.5,0,2.23-.14,3.14,2.14q4.68,11.69,9.31,23.4l21.12,53.18q3.61,9.09,7.24,18.18a5.61,5.61,0,0,0,.47.91c.07.12.25.1.33,0,.22-.43.43-.87.61-1.32q4.2-10.53,8.41-21.06l19.08-47.73Q439.44,15,444.47,2.36c1-2.58.73-2.32,3.44-2.32h41.24c.55,0,1.11,0,1.66,0s.79.37.64.82-.36,1-.57,1.56q-3.13,7.37-6.29,14.74L465.7,61.4l-16.68,39q-11.11,26-22.22,52.06c-1.28,3-2.55,6-3.84,9-.76,1.77-.78,1.73-2.61,1.73H391c-1.89,0-1.89,0-2.63-1.71q-4.41-10.44-8.79-20.91L357.24,87.46Q347.6,64.54,338,41.61q-8.07-19.18-16.12-38.37c-.32-.77-.62-1.55-.91-2.33a.61.61,0,0,1,.63-.83c.69,0,1.38,0,2.08,0Z" fill="#e8177a"/><path d="M518.15,81.71q0-39.27,0-78.52c0-.83.05-1.66.09-2.49a.71.71,0,0,1,.53-.57c.27,0,.55-.08.82-.09h88.31c.83,0,1.66,0,2.5.06a.85.85,0,0,1,.72.65,5.58,5.58,0,0,1,.11.82c0,.55,0,1.11,0,1.66v30c0,.76,0,1.52-.09,2.28a.86.86,0,0,1-.68.7,8.77,8.77,0,0,1-1,.12c-.69,0-1.39,0-2.08,0H562.81c-.35,0-.69,0-1,.08a.86.86,0,0,0-.81.8c0,.41,0,.83,0,1.24V60.13c0,.7,0,1.39,0,2.09a.78.78,0,0,0,.82.75l.83,0h42.91c.76,0,1.52,0,2.28.07a.82.82,0,0,1,.7.67,5.79,5.79,0,0,1,.12.82c0,.63,0,1.25,0,1.88V96c0,.83,0,1.66-.11,2.49a.86.86,0,0,1-.81.81c-.62.05-1.24.07-1.87.07H564c-.76,0-1.52,0-2.29,0a.78.78,0,0,0-.75.82c0,.49,0,1,0,1.46v22.7c0,2.37-.1,2.46,2.38,2.46h10.2q17.19,0,34.37,0c.83,0,1.66,0,2.49.1a.92.92,0,0,1,.82.81c0,.77.08,1.53.08,2.29v30c0,.56,0,1.11,0,1.67a3.7,3.7,0,0,1-.13.81.76.76,0,0,1-.56.56,2.55,2.55,0,0,1-.61.08c-.56,0-1.11,0-1.67,0H521.21c-.76,0-1.52,0-2.28-.07a.75.75,0,0,1-.7-.65,7.74,7.74,0,0,1-.07-.83c0-.76,0-1.53,0-2.29Z" fill="#e8177a"/><path d="M0,81.68V3.58c0-.9,0-1.8.09-2.7A.89.89,0,0,1,.91.08c.49,0,1,0,1.46,0H40.48c.56,0,1.11,0,1.66.07a.91.91,0,0,1,.58.54,7.31,7.31,0,0,1,.15,1c0,.83,0,1.66,0,2.5V123.3c0,.9,0,1.8.08,2.7a.93.93,0,0,0,.82.81c.35,0,.69.07,1,.08h45c.69,0,1.38,0,2.08,0a8.92,8.92,0,0,1,1,.14.83.83,0,0,1,.54.58c0,.62.07,1.25.07,1.87,0,4.37,0,8.75,0,13.12,0,5.9,0,11.8,0,17.7,0,.7,0,1.39,0,2.09a.85.85,0,0,1-.83.77c-.83,0-1.66,0-2.5,0H2.89c-.69,0-1.39,0-2.08-.06a.89.89,0,0,1-.69-.69,9,9,0,0,1-.11-1c0-.77,0-1.53,0-2.29Z" fill="#e8177a"/><path d="M326.64,70.47a9.64,9.64,0,1,1,.06,19.28,9.78,9.78,0,0,1-9.65-9.53A9.62,9.62,0,0,1,326.64,70.47Z" fill="#e8177a"/><path d="M479,80.14a9.61,9.61,0,1,1,19.22,0,9.61,9.61,0,0,1-19.22,0Z" fill="#e8177a"/><path d="M106,70.47a9.64,9.64,0,1,1-9.54,9.68A9.52,9.52,0,0,1,106,70.47Z" fill="#e8177a"/><path d="M217.47,11.74c1.17-.7,2.17-1.32,3.18-1.93A72,72,0,0,1,238.74,2,64.26,64.26,0,0,1,247.1.39,50.18,50.18,0,0,1,257.49.16a46.56,46.56,0,0,1,13.36,3,50.71,50.71,0,0,1,22.72,17.28,55.77,55.77,0,0,1,9.93,21.79,51.65,51.65,0,0,1,1.28,11.14c0,.84,0,1.67,0,2.5a43.64,43.64,0,0,1-1.56,11.31,68.25,68.25,0,0,1-4.57,12.26,112.93,112.93,0,0,1-10.42,17.26,186.92,186.92,0,0,1-14.69,17.83,289.1,289.1,0,0,1-34.09,31.15c-3.17,2.47-6.27,5-9.4,7.58l-10.5,8.53c-.49.39-1,.78-1.48,1.15a.87.87,0,0,1-1.15,0q-.91-.69-1.8-1.41c-2.92-2.36-5.82-4.73-8.74-7.08q-7.14-5.75-14.28-11.47a281.35,281.35,0,0,1-33.74-31.83,174.36,174.36,0,0,1-13.19-16.63,117.42,117.42,0,0,1-7.28-11.89,73.18,73.18,0,0,1-6.07-15,45.74,45.74,0,0,1-1.58-9c-.09-1.52-.26-3-.22-4.57.31-13,4.19-24.68,12.28-34.89A49.51,49.51,0,0,1,175.24.4a52.21,52.21,0,0,1,10.6-.23,54.25,54.25,0,0,1,11.63,2.19,75.11,75.11,0,0,1,17.95,8.15Zm55.29,74.94a.91.91,0,0,0-.82.27,5.51,5.51,0,0,1-1.6,1A3.63,3.63,0,0,1,266,86.47a4,4,0,0,1-.4-.73,8.64,8.64,0,0,1-.64-4.87c.58-3,1.13-6,1.69-9q1.61-8.6,3.22-17.18a15.18,15.18,0,0,0,.21-4.36,10.48,10.48,0,0,0-5-8.21c-.59-.37-1.21-.67-1.83-1a5.76,5.76,0,0,0-2.42-.56,15.55,15.55,0,0,0-7.07,1.47c-.88.4-1.71.9-2.57,1.36a1.44,1.44,0,0,1-1,.31,2.9,2.9,0,0,1-.09-.59c0-.41.11-.82.16-1.23a.48.48,0,0,0-.36-.44,7.69,7.69,0,0,0-.83,0l-9.35.7a7.68,7.68,0,0,0-.82.11,2.18,2.18,0,0,0-.38.18,5.16,5.16,0,0,0-.51,1.77c-.33,1.85-.66,3.69-1,5.53Q235.6,57,234.24,64.27q-1.41,7.56-2.8,15.14c-.27,1.43-.49,2.87-.72,4.31a.52.52,0,0,0,.52.52c.13,0,.27,0,.41,0,1.11-.09,2.21-.2,3.32-.28l6.65-.48a7.85,7.85,0,0,0,.83-.18c.14-.5.31-1,.4-1.42,1.42-7.64,2.85-15.28,4.24-22.92a6.67,6.67,0,0,1,1.57-3.35,29.67,29.67,0,0,1,3.75-3.6,6,6,0,0,1,1.43-.84,3,3,0,0,1,3.71,1,1.72,1.72,0,0,1,.42,1.15,7.87,7.87,0,0,1-.11,1.45c-.56,3.14-1.15,6.27-1.73,9.41Q254.57,72.61,253,81a21.51,21.51,0,0,0-.35,2.89c-.08,1.94-.07,3.89-.14,5.83a6.7,6.7,0,0,0,.76,3.41,11.65,11.65,0,0,0,6.56,5.77,8.14,8.14,0,0,0,2.23.47,17.33,17.33,0,0,0,11.21-3.14,18.09,18.09,0,0,0,1.88-1.64,1.54,1.54,0,0,0,.54-1C274.74,91.35,273.85,89,272.76,86.68ZM202.23,44.87l-3.72.3c-.56,0-1.11,0-1.67.1-.74.06-1.1.12-1.28,1.06s-.35,1.91-.53,2.87q-1.14,6.13-2.29,12.27c-.74,4-1.47,7.91-2.22,11.86a15.61,15.61,0,0,0,.38,7.41,10.4,10.4,0,0,0,.78,1.93,8.15,8.15,0,0,0,4,3.79,9.14,9.14,0,0,0,5.08.67,22.7,22.7,0,0,0,7.54-2.27L210,84c.16-.08.46.09.45.26,0,.42,0,.83-.07,1.25a.47.47,0,0,0,.52.5h.21l9.76-.67a3.48,3.48,0,0,0,1-.2,1.08,1.08,0,0,0,.44-.41.81.81,0,0,0,.12-.39q1.71-9.42,3.41-18.84,1.58-8.7,3.16-17.4c.28-1.57.53-3.15.79-4.72a.58.58,0,0,0-.36-.45,2.83,2.83,0,0,0-.41,0c-3.32.22-6.65.45-10,.69-.9.06-1.09.22-1.28,1.06,0,.13-.07.26-.1.4-.59,3.28-1.19,6.55-1.78,9.83L213.29,69a11.7,11.7,0,0,1-1.84,4.38,8.47,8.47,0,0,1-5.08,3.4,4.62,4.62,0,0,1-1.24.11,2.7,2.7,0,0,1-2.77-2.76,13.27,13.27,0,0,1,.24-2.07c.25-1.5.54-3,.83-4.5q2-10.53,3.95-21.06a14,14,0,0,0,.16-1.45.56.56,0,0,0-.52-.53Zm-41.58,57.29c1.43-.11,3-.24,4.62-.35l7.68-.54,5.81-.43,9.55-.72,7.27-.52c2-.14,4-.3,6-.45,2.91-.22,5.81-.45,8.72-.66l7.89-.55,5.81-.43c2.7-.21,5.4-.44,8.1-.64l7.47-.52.42,0a.83.83,0,0,0,.72-.65q.48-3,.94-6a4.26,4.26,0,0,0,0-.62c0-.15-.24-.44-.38-.44-.41,0-.83,0-1.25,0l-5.19.38-6.85.5-8.92.67-8.1.56c-2,.14-4,.28-6,.44-2.83.21-5.67.44-8.51.64s-5.54.37-8.31.57l-6.22.45c-3.12.23-6.23.47-9.35.69-2.56.19-5.12.35-7.68.54-1.18.09-2.35.2-3.53.31a.85.85,0,0,0-.74.62c-.45,2.17-.89,4.35-1.33,6.52,0,.07,0,.14,0,.21a.5.5,0,0,0,.38.42Zm9.5-54.7a7,7,0,0,0-.24.78c-.23,1.08-.45,2.17-.66,3.26-1.17,6.13-2.32,12.26-3.5,18.38S163.41,82,162.24,88.05c0,.21-.05.42-.07.62a.55.55,0,0,0,.45.59c.41,0,.83,0,1.25,0,2.07-.14,4.15-.29,6.22-.46,1.11-.08,2.21-.19,3.31-.3a.79.79,0,0,0,.72-.65c.06-.27.11-.54.16-.81l2.37-12.25c.66-3.4,1.34-6.8,2-10.21a13.48,13.48,0,0,1,1.66-4.24A8.33,8.33,0,0,1,182,58.24a5.8,5.8,0,0,1,3.78-1.52,7.76,7.76,0,0,1,2.66.34,2.28,2.28,0,0,0,1.49.24,5.21,5.21,0,0,0,.36-1.32c.33-2,.65-4.11,1-6.16.15-1,.31-1.92.44-2.88.08-.63-.14-.88-.73-1a5.08,5.08,0,0,0-2.26-.08,13.58,13.58,0,0,0-4.85,1.78c-.54.32-1.07.64-1.62.94-.09,0-.25,0-.36,0a.21.21,0,0,1-.1-.18c0-.48.12-1,.18-1.44,0-.16-.22-.39-.4-.39-.42,0-.83,0-1.25,0l-7.47.55q-1,.08-2.07.21A3.17,3.17,0,0,0,170.15,47.46Z" fill="#e8177a"/></g></g></svg>