<?xml version="1.0" encoding="utf-8"?>
<!-- Generator: Adobe Illustrator 23.0.1, SVG Export Plug-In . SVG Version: 6.00 Build 0)  -->
<svg version="1.1" id="Calque_1" xmlns="http://www.w3.org/2000/svg" xmlns:xlink="http://www.w3.org/1999/xlink" x="0px" y="0px"
	 viewBox="0 0 383.4 275.4" style="enable-background:new 0 0 383.4 275.4;" xml:space="preserve">
<g id="FOND_FONCE" style="display:none;">
</g>
<g>
	<path style="fill:#FFFFFF;" d="M375.6,43c-7.6-7.6-19.6-8.6-29.4-2.5c-1.2,0.8-2.4,1.6-3.4,2.6c-2.2-1.6-4.7-2.6-7.3-3.2
		c-6.1-1.3-12.9,0.4-18.5,4.8c-6.3,4.9-10.4,12.2-10.8,19.7c-0.2,3.5,0.3,6.9,1.4,10.1l-0.2,0.2l1.1,2.2l1.8,4.5l-26,4.6
		c0,0,0,0-0.1,0l-11.1,2v28.3l13.3-2.3c2.3-0.4,4.3-1.2,5.9-2.5v1.4l15-2.6v-9.9l7.1-14.6c1.3,1.4,2.6,2.7,4.2,4.1l0.7,0.6
		c5.1,4.4,8.9,8,8.1,11.4c-0.2,0.7-0.5,1.5-1.1,2.4l-8.1,12.4l14-4.9c1.6-0.6,3.3-1.2,4.9-1.8c6.8-2.5,13.8-5.3,20.2-9
		c0,0,11.2-7.6,15.5-12.4c0.8-0.9,1.6-1.9,2.3-2.9l5.5-9.6C385.6,63.8,383.9,51.4,375.6,43z"/>
	<path style="fill:#FFFFFF;" d="M113.3,146.1v2.7c-0.2-0.1-0.4-0.2-0.6-0.3c-2.4-1-4.9-1.6-7.7-1.6c-1.4,0-2.7,0.1-4.1,0.4
		c-5.3,0.9-9.6,3.3-12.9,7v-3.8l-35.3,6.2v0L23.7,162v50.4l9.5-1.7c-0.6,0.3-1.1,0.7-1.6,1.1c-2,1.6-3.2,3.9-3.4,6.4
		c-0.2,2.5,0.5,5,2.1,6.9c26.4,31.9,65.2,50.3,106.6,50.3c33,0,64.9-11.8,89.9-33.2c24.6-21.1,40-47,45.7-77.1l0.5-2.8l-0.3-0.2
		l1.3-15.2l-16.3,2.8v-29.1l-21.1,3.7v21.9l-6.7-20.7l-9.8,1.7l-0.2-0.9c1.1-0.6,2.2-1.3,3.3-2.2c0.2,0.1,0.4,0.2,0.5,0.3
		c1.1,0.6,2.3,1,3.5,1.1c1.2,0.1,2.4,0,3.6-0.3c1.2-0.4,2.3-0.9,3.3-1.7c1.1-0.9,1.9-2,2.5-3.4c0.4-1,0.6-1.9,0.7-2.9
		c0-0.1,0-0.2,0.1-0.5l0.1-0.3c0.4-1.3,0.9-2.6,1.4-3.9c0.3,1.8,0.9,3.5,2,5c1.2,1.8,3,3,5.3,3.8c2.2,0.7,4.5,0.7,6.6,0
		c1.7-0.6,3.3-1.4,4.7-2.6c1.3-1,2.5-2.2,3.7-3.6c1-1.2,1.9-2.4,2.6-3.4c0.7-0.9,1.4-2,2.2-3.3c0.8-1.2,1.6-2.5,2.3-3.7
		c0.7-1.1,1.4-2.3,2.2-3.8c0.7-1.3,1.3-2.5,1.7-3.4c0.6-1.3,0.8-2.6,0.7-3.8l0-0.1c-0.3-2-1.4-3.7-3.2-4.5c-0.9-0.4-1.8-0.6-2.7-0.6
		c0.1-0.8,0.2-1.6,0.3-2.4c0.1-1.6-0.2-3.2-0.7-4.7c-0.7-1.9-1.9-3.5-3.5-4.6c-1.8-1.3-3.8-2-5.9-2c-1.4,0-2.8,0.2-4.2,0.7
		c3.1-3.1,4-8.1,1.7-12.1C232.1,23.6,190.6,0,143.4,0c-26.1,0-51.4,7.9-73,22.9C55,33.5,42.1,47.2,32.5,63.1l-5,9
		c-1.7,3.3-3.2,6.7-4.6,10.1c-0.7,1.6-6.6,15.1-4.6,24.9c0.7,4.1,2.4,7.6,5.2,10.6c2.8,3,6.9,4.6,10.5,5.5c-1,2.2-2.1,4.3-3.3,6.4
		l-0.3,0.4c-5.4-1-11.9-1.3-18.8,1.4c-8.3,3.2-12.9,10.5-11.5,18.1c1.5,7.8,8.6,13.3,17,13.3c0.5,0,1.1,0,1.6-0.1
		c8.9-0.7,15-7.2,19.4-12.8c0.4,0.1,0.9,0.3,1.3,0.4c5.5,1.8,11.2,3.6,17.5,4c1.4,0.4,2.8,0.6,4.2,0.6c2.9,0,5.7-0.9,8.5-2.7
		c1.6-1,3.1-2.2,4.5-3.7c1.2-1.3,2.4-2.7,3.5-4.2c0.3-0.4,0.5-0.7,0.8-1.1c0.2,0.5,0.4,0.9,0.7,1.4c1,1.7,2.9,4,6.7,5.1
		c1.8,0.5,3.8,0.6,5.8,0.1c1.6-0.4,3.2-1,4.7-1.9c1.4-0.8,2.8-1.7,4-2.6c1.2-0.9,2.3-1.8,3.3-2.7c2.6-2.6,5.1-5.4,7.3-8.4
		c0.1,0.2,0.1,0.5,0.2,0.7c0.7,2.2,2,4,3.6,5.6c1.8,1.6,4,2.7,6.7,3.2 M86.7,177.9c0.4,0.5,0.9,0.9,1.4,1.3 M56.3,116.4
		c-0.1,0.1-0.1,0.2-0.2,0.3c-0.4,0.5-0.9,1.1-1.3,1.6c0.1-0.4,0.3-0.8,0.4-1.3C55.6,116.8,56,116.6,56.3,116.4z M178,134.6
		c2.1-0.6,4-1.5,5.9-2.8c0.9-0.6,1.8-1.4,2.7-2.2c0.1,0.1,0.3,0.2,0.4,0.3c2.2,1.5,4.7,2.2,7.4,1.8l-7.4,1.3l-2.5,10.4L182,134
		l-4.2,0.7C177.9,134.7,177.9,134.7,178,134.6z M219.4,127.3l-9.1,1.6l0,0l-14.4,2.6c2-0.5,3.9-1.4,5.6-2.8c1.6-1.2,3-2.6,4.3-4.2
		c1.1,1.1,2.4,2,3.9,2.6c2.5,1,5.1,1,7.8,0.2c0.7-0.2,1.4-0.5,2.1-0.9L219.4,127.3z M133.5,141.6c1.7-0.9,3.4-1.9,5-3.1
		c1.5-1.1,2.9-2.4,4.3-3.8c0.9-0.9,1.8-1.9,2.6-2.9c0.2,0.7,0.4,1.3,0.7,2c0.4,0.9,0.9,1.7,1.6,2.5c1,1.1,2.3,1.9,3.8,2.2
		c0.6,0.1,1.2,0.2,1.7,0.2c0.9,0,1.7-0.2,2.6-0.5c1.2-0.4,2.2-1.1,3-2c0.6-0.7,1.2-1.5,1.6-2.4c0.3-0.6,0.5-1.2,0.8-1.8
		c0.6-1.6,1.2-3.3,1.8-4.8c0.4,1.2,0.9,2.4,1.6,3.4c1.5,2,3.5,3.5,6,4.1c1.7,0.5,3.4,0.6,5,0.5l-8,1.4v0l-2.4,0.4l-5.8,1l0,0
		l-6.8,1.2v0l-23.4,4.1C130.8,142.9,132.2,142.3,133.5,141.6z"/>
	<polygon style="fill:#FFFFFF;" points="331.9,141.8 23.6,198.1 23.6,123.6 331.9,67.4 	"/>
</g>
<g>
	<g>
		<path style="fill:#EE2B74;" d="M331.5,87.1c-0.5,0.1-1.3,0.3-1.5,0.9c-0.1,0.6,0.3,1.1,0.8,1.3c0.4,0.1,0.7,0.1,1.1,0
			c0.7-0.3,1.3-1,1.9-2.2C333,87,332.2,87,331.5,87.1z"/>
		<path style="fill:#EE2B74;" d="M340.9,75.2c0.8-1.8,1-3.1,0.7-3.9c-0.1-0.3-0.3-0.4-0.5-0.6c-0.2-0.1-0.5-0.2-0.7-0.1
			c-0.3,0.1-0.5,0.3-0.6,0.4c-0.4,0.4-0.6,0.9-0.8,1.5c-0.3,1.3-0.4,3.3-0.3,6.1C339.4,78,340.2,76.8,340.9,75.2z"/>
		<path style="fill:#EE2B74;" d="M354.1,74c-0.4,0.2-0.6,0.6-0.8,0.9c-0.2,0.4-0.3,0.8-0.4,1.2c-0.1,0.4-0.1,0.7-0.2,1.1s0,0.7,0,1
			c0,0.3,0.1,0.6,0.2,0.8c0.1,0.2,0.2,0.5,0.5,0.4c0.2-0.1,0.4-0.4,0.5-0.6c0.2-0.4,0.5-0.9,0.6-1.4c0.2-0.5,0.3-1.1,0.3-1.7
			c0-0.2,0-0.4,0-0.7C354.9,74.7,354.8,73.8,354.1,74z"/>
		<path style="fill:#EE2B74;" d="M344.6,77.2c-0.4,0.2-0.6,0.6-0.8,0.9c-0.2,0.4-0.3,0.8-0.4,1.2c-0.1,0.4-0.1,0.7-0.2,1.1
			c0,0.4,0,0.7,0,1s0.1,0.6,0.2,0.8c0.1,0.2,0.2,0.5,0.5,0.4c0.2-0.1,0.4-0.4,0.5-0.6c0.2-0.4,0.5-0.9,0.6-1.4
			c0.2-0.5,0.3-1.1,0.3-1.7c0-0.2,0-0.4,0-0.7C345.4,77.9,345.3,76.9,344.6,77.2z"/>
		<path style="fill:#EE2B74;" d="M333.4,68.4c1-0.4,1.4-1.5,1.6-2.5c0.3-1.1,0.1-2.2-0.3-3.4c-0.4-0.9-0.9-1.7-1.7-2.2
			c-0.5,1.7-0.6,4.6-0.5,8.2C332.9,68.6,333.2,68.6,333.4,68.4z"/>
		<path style="fill:#EE2B74;" d="M359.7,81.2c-0.6,0.1-0.8,0.5-0.7,0.9c0.1,0.3,0.2,0.5,0.5,0.6c0.3,0.1,0.5,0.2,0.8,0.1
			c0.5-0.1,1-0.6,1.6-1.4C360.9,81.2,360.2,81.1,359.7,81.2z"/>
		<path style="fill:#EE2B74;" d="M370,70.7c0.8,0,1.4-0.6,1.5-1.4c0-0.8-0.6-1.5-1.3-1.5c-0.8,0-1.4,0.6-1.5,1.4
			C368.6,70,369.2,70.7,370,70.7z M369.3,68.2l0.8,0c0.5,0,0.9,0.3,0.9,0.6c0,0.2,0,0.4-0.3,0.6c0.2,0.1,0.2,0.8,0.2,0.8l-0.4,0
			c0,0,0-0.7-0.2-0.7c-0.3,0-0.6,0-0.6,0l0,0.8l-0.4,0L369.3,68.2z"/>
		<path style="fill:#EE2B74;" d="M370.6,68.9c0-0.2-0.2-0.3-0.4-0.3l-0.4,0l0,0.6l0.4,0C370.3,69.2,370.6,69.2,370.6,68.9z"/>
		<path style="fill:#EE2B74;" d="M364.1,81.9c-0.8,0.9-1.8,1.6-2.8,1.9c-0.9,0.2-1.7,0.2-2.3-0.1c-0.5-0.2-0.9-0.6-1-1.1
			c-0.1-0.5,0-0.9,0.2-1.3c0.3-0.4,0.8-0.7,1.3-0.8c0.9-0.2,1.9-0.2,2.8-0.1v0c0.4-0.8,0.7-1.6,0.9-2.7l0.2-1.2v0
			c-0.1,0.2-0.2,0.4-0.4,0.6c-0.4,0.5-0.9,0.8-1.4,1.1c-0.5,0.2-1,0.2-1.4,0c-0.4-0.2-0.6-0.5-0.9-1c0,0,0,0.1,0,0.1
			c-0.2,0.5-0.4,0.9-0.6,1.3c-0.4,0.5-0.9,0.8-1.4,1.1c-0.5,0.2-1,0.2-1.4,0c-0.4-0.2-0.7-0.6-0.9-1.1c0,0.2-0.4,1.1-0.5,1.3
			c-0.2,0.3-0.4,0.5-0.6,0.8c-0.3,0.2-0.5,0.4-0.9,0.5c-0.6,0.2-1.1,0.2-1.6,0s-0.8-0.7-1.1-1.5c0,0,0,0,0,0
			c-0.1,0.3-0.2,0.6-0.3,0.9c-0.2,0.5-0.4,0.9-0.6,1.3c-0.4,0.5-0.9,0.8-1.4,1.1c-0.5,0.2-1,0.2-1.4,0c-0.4-0.2-0.7-0.6-0.9-1.1
			c0,0.2-0.4,1.1-0.5,1.3s-0.4,0.5-0.6,0.8c-0.3,0.2-0.5,0.4-0.9,0.5c-0.6,0.2-1.1,0.2-1.6,0c-0.5-0.3-0.8-0.7-1.1-1.5
			c-0.2-0.5-0.3-1.1-0.2-1.8c0-0.6,0.2-1.3,0.5-1.9c0.3-0.6,0.8-1.3,1.3-1.8s1-0.8,1.7-1.1c0.4-0.1,0.8-0.2,1.1,0
			c0.5,0.2,0.6,0.4,0.8,0.7c0.1-0.3,0.1-0.5,0.4-0.8c0.5-0.6,2.2-1.3,2.2-1.3c0.2-0.1,0.5,0,0.4,0.2c0,0-0.9,4.6-0.9,4.9
			c0,0.3-0.3,1.7,0.2,1.7c0.2,0,0.4-0.3,0.5-0.4c0.4-0.4,0.6-1,0.8-1.6c0.2-0.5,0.3-1,0.5-1.5c0-0.1,0-0.2,0-0.2
			c0-0.6,0.2-1.3,0.5-1.9s0.7-1.2,1.3-1.7c0.5-0.5,1-0.9,1.8-1.2c0.5-0.2,1-0.1,1.3,0c0,0,0.3,0.1,0.6,0.4c0.1-0.8,1.1-5.5,1.1-5.5
			c0.2-1.1,0.8-1.5,1.5-1.9c0.9-0.5,1-0.5,1-0.5c0.2-0.1,0.4,0,0.4,0.2c0,0,0,0.3-0.1,0.7c0,0,0,0,0,0c0,0.3-1.8,9.9-1.9,10.2
			c0,0.3-0.3,1.7,0.2,1.7c0.2,0,0.4-0.3,0.5-0.4c0.4-0.4,0.6-1,0.8-1.6c0.2-0.6,0.5-1.4,0.6-2.1c0.2-1,0.4-1.9,0.4-1.9
			c0.2-1,0.5-1.3,1.5-1.9c0.9-0.5,1-0.5,1-0.5c0.2-0.1,0.5,0,0.4,0.2l-0.5,2.2c-0.1,0.7-0.3,1.4-0.4,2c0,0.3-0.1,0.6-0.1,0.9
			c0,0.3-0.3,1.7,0.2,1.7c0.2,0,0.4-0.3,0.5-0.4c0.4-0.4,0.6-1,0.8-1.6c0.2-0.6,1.1-4.1,1.1-4.1c0.3-1,0.6-1.3,1.6-1.9
			c0.9-0.5,1-0.5,1-0.5c0.2-0.1,0.5,0,0.4,0.2l-0.5,2.2c-0.1,0.7-0.3,1.4-0.4,2c0,0.3-1.3,6.7-1.9,8.1c2.1,0.5,3.5,0.7,5.7,0.2
			c0,0,1-0.2,2.4-0.9c6.6-10.4,8.7-24.1-0.8-33.7c-6.4-6.5-16-6.3-23.1-1.8c-2,1.3-3.8,2.9-5.3,4.8c-0.1,0.2-0.3,0.4-0.4,0.6
			c-0.2-0.2-0.4-0.4-0.5-0.6c-2.5-2.6-5.3-4.1-8.1-4.7c-10.8-2.3-22.6,8.1-23.2,19.9c-0.2,3.3,0.4,6.3,1.5,9.1
			c2.3-2.1,5.1-3.4,8.2-3.8c1.1-0.1,2.3-0.2,3.5-0.1c-0.3-0.4-0.6-0.9-0.8-1.5c-0.7-1.9-0.6-3.8,0.2-5.6c0.9-2,2.5-3.4,4.8-4.3
			c1.4-0.5,2.8-0.7,4.1-0.4c0.4-0.5,0.9-1.1,1.4-1.7c0.2-0.2,0.3-0.3,0.5-0.4c0.3-0.1,0.5-0.1,0.7,0.1c0.1,0.2,0.1,0.5-0.3,0.9
			c-0.5,0.5-0.9,0.9-1.2,1.4c1,0.4,1.9,1,2.7,1.8c0.7,0.7,1.2,1.5,1.6,2.4c0.5,1.3,0.5,2.7-0.2,4c-0.6,1.4-1.6,2.3-2.8,2.8
			c-0.8,0.3-1.7,0.5-2.5,0.4c0,1-0.1,1.9-0.3,2.8c0.4-0.3,0.9-0.6,1.5-0.8c0.5-0.2,1.4-0.4,1.9-0.1c0.4,0.3,0.1,0.7-0.2,0.9
			c-0.4,0.2-0.9,0.1-1.6,0.3c-2.6,0.8-2.9,4.1-2.6,5.1c0.6,2.2,2.9,2.4,4,2.2c0-0.3,0.1-0.7,0.1-1.2c0.2-1.9,0.6-3.7,1.3-5.3
			c0.8-1.9,1.8-3.1,3-3.8c-1.2-0.7-0.8-2.3-0.6-3.4c0.1-0.7,0.2-1.4,0.4-2.1c0.2-1.1,0.8-1.5,1.5-1.9c0.9-0.5,1-0.5,1-0.5
			c0.2-0.1,0.5,0,0.4,0.2l-0.5,2.2c-0.1,0.7-0.3,1.3-0.4,1.9c0,0.3-0.1,0.6-0.1,0.9c0,0.3-0.3,1.7,0.2,1.7c0.2,0,0.4-0.3,0.6-0.4
			c0.4-0.5,0.6-1,0.8-1.6c0.3-0.9,0.6-1.8,0.9-2.8l0.1-0.3c0-0.1,0-0.2,0.1-0.2c0.1-0.4,0.1-0.6,0.1-0.6c0.2-1.1,0.8-1.5,1.5-1.9
			c0.9-0.5,0.8-0.5,0.8-0.5c0.2-0.1,0.5,0,0.4,0.2c0,0-0.2,1.1-0.2,1.1c0,0,0.1-0.2,0.1-0.2c0.3-0.4,0.5-0.9,0.9-1.3
			c0.3-0.4,0.8-0.7,1.3-0.8c0.2-0.1,0.5-0.1,0.7-0.1c0.2,0,0.5,0.1,0.7,0.2c0.4,0.2,0.7,0.6,0.9,1.2c0.2,0.6,0.2,1.3,0,2.3l-0.1,0.5
			c0,0.1,0,0.2,0,0.3c0,0.3-0.3,1.7,0.2,1.7c0.2,0,0.4-0.3,0.6-0.4c0.4-0.5,0.6-1,0.8-1.6c0.1-0.5,0.3-0.9,0.4-1.3
			c0.7-4,2.1-10.9,2.1-10.9c0.2-1,0.5-1.4,1.5-2c0.9-0.5,1-0.5,1-0.5c0.2-0.1,0.4,0,0.4,0.2c0,0,0,0.3-0.1,0.7
			c-0.1,0.3-1.6,8.7-1.6,8.7l2.2-2c0.2-0.2,0.3-0.4,0.3-0.7c0-0.4,0-0.9,0.2-1.2c0.3-0.4,0.8-0.6,1.2-0.7c0.5-0.1,1.2,0.1,1.4,0.6
			c0.3,0.6-0.3,1.3-0.8,1.6c-1,0.9-2.2,2-2.7,2.5c0.6,1.1,2.2,3.7,2.5,3.8c0.3,0.1,0.6-0.2,0.7-0.4c0.4-0.5,0.6-1.1,0.6-1.7
			c0-0.2,0-0.4,0-0.5c0.1-0.2,0.3-0.3,0.5-0.3c0.3,0.1,0.3,0.6,0.3,0.8c0,0.2,0,0.3-0.1,0.4c-0.1,0.5-0.3,1-0.5,1.4
			c-0.1,0.2-0.2,0.4-0.3,0.5c-0.4,0.5-0.9,0.8-1.4,1.1l-0.2,0.1c-0.7,0.2-1.6,0.4-2.5-0.9l-1.5-2.4c0,0-0.6,3-1,4.4
			c0,0-0.2,0.7-0.7,0.8c-0.3,0.1-0.7,0.3-1.1,0.3c-0.5,0.1-0.8-0.3-0.9-0.7c-0.1,0.2-0.2,0.4-0.3,0.5c-0.4,0.5-0.9,0.8-1.4,1.1
			c-2,0.7-2.6-0.3-2.6-1.8c0-0.5,0.4-2.8,0.4-2.8c0-0.2,0.1-0.8-0.2-0.9c-0.2,0-0.4,0.1-0.5,0.2c-0.8,0.8-1.6,2.6-1.9,3.7
			c0,0-0.3,1.3-0.5,2.7c0,0-0.1,0.7-0.6,0.8c-0.3,0.1-0.7,0.3-1.1,0.3c-0.5,0.1-0.8-0.3-0.9-0.7c-0.1,0.2-0.2,0.4-0.4,0.6
			c-0.2,0.2-0.4,0.4-0.6,0.6c0.2,0.1,0.3,0.2,0.5,0.3c0.3,0.3,0.5,0.8,0.6,1.4c0.2,1.5-0.2,3.1-1.1,4.8c-0.9,1.6-1.9,2.8-3.2,3.8
			c0,2-0.3,3.8-0.9,5.4c0.8,0.1,3.4,0.7,3.9,0.8c2.7,0.6,7,1.1,9.2-1.7c0.3-0.4,0.5-0.9,0.7-1.3c0.1-0.4,0.3-0.8,0.7-0.9
			c0.4-0.1,0.8,0.1,0.8,0.5c0,0.4-0.2,0.8-0.4,1.2c-1.8,3.1-6.6,4.8-12.5,3.8c-0.4-0.1-2.5-0.5-3.3-0.5c-0.1,0.1-0.2,0.3-0.3,0.4
			c-0.3,0.5-0.7,0.9-1.1,1.3c-0.4,0.4-0.8,0.7-1.3,0.9c-0.3,0.1-0.5,0.3-0.8,0.4c-1.2,0.4-2.3,0.6-3.1,0.3c-0.8-0.2-1.5-0.9-1.7-1.8
			c-0.1-1.1,0.6-2,1.6-2.5c1-0.5,2.5-0.8,4.1-1c0.4-1.2,0.6-2.5,0.7-3.9c0,0.1-1.4,0-1.6,0c-0.8-0.1-1.5-0.4-2.1-0.9
			c-0.2-0.2-0.4-0.4-0.6-0.7c-0.6-0.9-0.9-2-0.8-3.1c-0.7,0.6-1.4,1.1-2.3,1.5c-1.3,0.5-2.5,0.6-3.6,0.2c-1.1-0.4-1.9-1.1-2.3-2.2
			c-0.4-1-0.4-1.9,0-2.7c0.3-0.6,0.8-1,1.4-1.2c0.5-0.2,0.9-0.2,1.3,0c0.4,0.2,0.7,0.5,0.8,0.8c0.2,0.4,0.1,0.9-0.2,1.3
			c-0.3,0.5-0.9,0.9-1,1.5c-0.1,1.2,1,1.6,1.9,1.1c1.6-0.9,2.7-3.4,3.3-8.4c-0.5-0.5-1.1-1.2-1.2-1.5c-0.1-0.3-0.1-0.6,0.2-0.7
			c0.5-0.2,0.8,0.5,1.1,0.9l0.1,0.1c0.4-3.2,1.2-5.9,2.4-7.9c-1.1-0.4-2.3-0.3-3.6,0.2c-1.6,0.6-2.8,1.7-3.5,3.2
			c-0.7,1.5-0.8,3.1-0.2,4.7c0.4,1.2,1,1.9,1.7,2.3c0.5,0.2,1.3,0.1,1.7,0.7c0.2,0.3,0.2,0.7-0.1,0.9c-0.5,0.3-1.3,0-1.8-0.3
			c-0.2-0.1-0.3-0.2-0.5-0.3c-1.2-0.3-2.6-0.4-3.9-0.2c-1,0.1-2.1,0.4-3.1,0.8c-1.8,0.7-3.2,1.9-4.6,3.3c-0.2,0.2-0.4,0.4-0.5,0.6
			c1.9,4,5,7.5,8.5,10.5c5.4,4.6,12,10,10.5,16.9c-0.3,1.3-0.9,2.7-1.8,4.1c1.6-0.6,3.2-1.2,4.9-1.8c12.3-4.5,24.9-10.1,33.6-20
			c0.7-0.8,1.4-1.7,2-2.6C369.2,83,366.9,82.8,364.1,81.9z M370.1,67.6c0.9,0,1.7,0.8,1.7,1.8c0,1-0.9,1.7-1.8,1.7
			c-0.9,0-1.7-0.8-1.7-1.8C368.4,68.2,369.2,67.5,370.1,67.6z M342.8,59.5c-0.5,0.8-1.4,1.2-2.2,1.6c0.3-0.6-0.2-0.9-0.7-1.3
			c-0.4-0.3-0.8-0.7-0.8-1.3c0-0.9,1.1-1.8,1.9-1.1c0.4-0.6,1.2-0.9,1.8-0.4C343.5,57.7,343.3,58.7,342.8,59.5z"/>
		<path style="fill:#EE2B74;" d="M291.2,95c0,1.6-0.6,2.9-1.8,4c1.5,0.6,2.3,1.8,2.3,3.6c0,1.7-0.5,3.1-1.6,4.2
			c-1,1.1-2.6,1.9-4.5,2.2l-7.4,1.3V92.2l7-1.2c2-0.3,3.5-0.2,4.5,0.5C290.7,92.2,291.2,93.4,291.2,95L291.2,95z M284.8,95.5
			l-1.6,0.3v2.4l1.9-0.4c0.7-0.2,1.1-0.7,1.1-1.4c0-0.4-0.1-0.7-0.4-0.8C285.5,95.5,285.2,95.4,284.8,95.5z M285.3,104.6
			c0.4-0.1,0.7-0.3,1-0.5c0.3-0.3,0.4-0.6,0.4-1c0-0.7-0.4-1.1-1.1-1.1l-2.4,0.4v2.6L285.3,104.6z M308.3,86.9l-5.9,12.3v6.9l-5,0.9
			v-6.9l-5.9-10.2l5.6-1l2.9,5.8l2.9-6.9L308.3,86.9z"/>
	</g>
	
		<linearGradient id="SVGID_1_" gradientUnits="userSpaceOnUse" x1="28.6532" y1="111.54" x2="268.4032" y2="111.54" gradientTransform="matrix(1 0 0 -1 0 278.0001)">
		<stop  offset="0" style="stop-color:#F89631"/>
		<stop  offset="6.450000e-02" style="stop-color:#F68C41"/>
		<stop  offset="0.2176" style="stop-color:#F3765A"/>
		<stop  offset="0.373" style="stop-color:#F16166"/>
		<stop  offset="0.5286" style="stop-color:#F04E6D"/>
		<stop  offset="0.6846" style="stop-color:#EE3D72"/>
		<stop  offset="0.8413" style="stop-color:#EE3074"/>
		<stop  offset="1" style="stop-color:#EE2B74"/>
	</linearGradient>
	<path style="fill:url(#SVGID_1_);" d="M28.7,166.2v40.2l11.1-2v-12.7l12.8-2.3v-11.1l-12.8,2.3v-5.2l13-2.3v-11.1L28.7,166.2z
		 M57.8,161v40.2l25.5-4.5v-10.6l-14.4,2.6v-4.5l12.8-2.3v-10.3l-12.8,2.3v-4.4l14.2-2.5v-10.5L57.8,161z M101.9,152.3
		c-4.2,0.7-7.6,2.6-10.1,5.4c-2.6,2.9-3.9,6.1-3.9,9.8c0,6.2,3.9,9.8,11.6,10.9c0.5,0.1,1.2,0.1,2.2,0.3c1,0.1,1.6,0.2,2,0.2
		c0.4,0.1,0.8,0.2,1.4,0.3c0.5,0.1,0.9,0.3,1.1,0.6c0.2,0.3,0.3,0.6,0.3,1c0,1.4-1.3,2.3-3.8,2.7c-3.4,0.6-5.7-0.7-7-3.9l-9.5,7.4
		c1,2.9,2.8,5.1,5.7,6.4c2.8,1.3,6.3,1.6,10.6,0.9c4.7-0.8,8.4-2.6,11.1-5.3s4.1-6.1,4.1-10.2c0-2-0.3-3.7-1-5s-1.6-2.4-2.9-3.1
		c-1.3-0.7-2.5-1.2-3.7-1.5c-1.2-0.3-2.7-0.6-4.6-0.8c-2.5-0.3-4.2-0.6-5-0.9c-0.9-0.3-1.3-0.9-1.3-1.7c0-0.6,0.3-1.2,0.8-1.7
		s1.2-0.8,2.2-1c2.5-0.4,4.3,0.7,5.3,3.3l9.2-7.2c-1.2-2.8-3.1-4.8-5.8-5.9c-1.7-0.8-3.6-1.1-5.6-1.1
		C104.1,152,103,152.1,101.9,152.3 M118.3,150.3v11.1l9.2-1.6v29.1l11.1-2v-29.1l9.2-1.6v-11.1L118.3,150.3z M151.6,144.4v40.2
		l11.1-2v-40.2L151.6,144.4z M191.1,137.4l-6.4,26.7l-6.4-24.4l-12.2,2.2l12.4,38l12.4-2.2l12.4-42.4L191.1,137.4z M219.9,145.8
		l3.2,11.8l-6.4,1.1L219.9,145.8z M213.4,133.5l-12.4,42.4l11.9-2.1l1.3-5.4l11.2-2l1.3,4.9l11.9-2.1l-12.4-38L213.4,133.5z
		 M252.7,126.5l-11.1,2v40.2l25.9-4.5l1-11.3l-15.7,2.7L252.7,126.5L252.7,126.5z"/>
	<g>
		
			<linearGradient id="SVGID_2_" gradientUnits="userSpaceOnUse" x1="-954.3824" y1="1155.5496" x2="-954.1456" y2="1155.5901" gradientTransform="matrix(943.832 -166.423 0 973.176 900815.0625 -1283269.5)">
			<stop  offset="0" style="stop-color:#F89631"/>
			<stop  offset="6.450000e-02" style="stop-color:#F68C41"/>
			<stop  offset="0.2176" style="stop-color:#F3765A"/>
			<stop  offset="0.373" style="stop-color:#F16166"/>
			<stop  offset="0.5286" style="stop-color:#F04E6D"/>
			<stop  offset="0.6846" style="stop-color:#EE3D72"/>
			<stop  offset="0.8413" style="stop-color:#EE3074"/>
			<stop  offset="1" style="stop-color:#EE2B74"/>
		</linearGradient>
		<path style="fill:url(#SVGID_2_);" d="M95.1,111.8c0.5-0.2,1-0.3,1.3-0.2c0.3,0.1,0.5,0.3,0.6,0.6c0.1,0.3,0,0.6-0.1,1
			c-0.2,0.4-0.5,0.8-0.9,1.1c-2.3,1.9-4.8,3.6-7.3,5c-2.5,1.4-5,2.5-7.4,3.2c-0.2,1.8-0.6,3.7-1.2,5.6c-0.6,1.9-1.3,3.7-2,5.3
			c-0.6,1.4-1.3,2.7-2,4.1s-1.6,2.7-2.5,4c-0.9,1.3-1.9,2.5-3,3.7s-2.3,2.1-3.5,2.9c-2,1.3-4,1.9-5.9,1.9c-1.9,0-3.6-0.4-5.1-1.4
			s-2.6-2.3-3.4-4c-0.8-1.7-1.1-3.7-0.8-5.9c0.3-3.3,1.2-6.6,2.7-9.9s3.3-6.3,5.5-9.1c1-1.3,2.2-2.5,3.4-3.7c1.2-1.1,2.5-2.1,4-2.9
			c0.4-0.2,0.9-0.5,1.5-0.7c0.6-0.2,1.2-0.4,1.8-0.5c0.6-0.1,1.2-0.2,1.8-0.2s1.1,0.2,1.5,0.4c1.1-0.1,2.1,0.1,3.1,0.6
			s1.8,1.3,2.6,2.2c2.8,0.1,5.5-0.2,7.9-0.8C90,113.7,92.5,112.9,95.1,111.8z M63.3,130c-1,1.8-1.7,3.6-2.3,5.5
			c-0.6,1.9-0.9,3.4-1.1,4.8c-0.1,1.3,0,2.2,0.5,2.6c0.4,0.4,1.2,0.1,2.4-1c1-1,1.9-2,2.7-3c0.8-1,1.6-2.1,2.3-3.4
			c0.8-1.2,1.5-2.5,2.2-3.8c0.7-1.3,1.3-2.6,1.8-4c0.2-0.6,0.4-1.3,0.6-2c0.2-0.7,0.3-1.4,0.4-2.2c-0.6-0.1-1.2-0.3-1.8-0.6
			c-0.6-0.3-1.1-0.8-1.6-1.4c-1.3,1.2-2.4,2.6-3.4,4.1C65,127,64.1,128.5,63.3,130z M99.1,114.9c-1.1,1.1-2.1,2.5-3.2,4.5
			c-1,1.9-2,3.9-2.8,6.1c-0.9,2.1-1.6,4.2-2.3,6.2c-0.7,2-1.1,3.6-1.4,4.9c-0.2,0.9-0.3,1.4-0.1,1.6s0.3,0.3,0.7,0.1
			c0.3-0.1,0.7-0.4,1.2-0.9c0.5-0.4,0.9-0.9,1.3-1.4c0.4-0.5,0.8-0.9,1.2-1.3c0.3-0.4,0.6-0.7,0.7-0.8c2.6-3.1,5-6.1,7.1-8.9
			c2.1-2.9,3.9-5.8,5.3-8.8c-1.1-0.8-1.8-1.9-1.9-3.3s0.1-2.6,0.6-3.8c0.5-1.2,1.3-2.2,2.4-3c1-0.8,2.2-1.1,3.4-0.9
			c1.1,0.2,2,0.7,2.7,1.3c0.7,0.6,1.1,1.4,1.4,2.3c2,0.1,4.1-0.1,6.1-0.7c2-0.6,3.9-1.2,5.6-1.7c0.6-0.2,1.1-0.3,1.4-0.2
			s0.6,0.2,0.8,0.5c0.1,0.3,0.1,0.6-0.1,1c-0.2,0.4-0.6,0.8-1.1,1.3c-0.7,0.6-1.5,1.2-2.5,1.9s-2.1,1.3-3.3,2
			c-1.2,0.7-2.4,1.3-3.7,1.9c-1.3,0.6-2.5,1.1-3.7,1.5c-0.5,1.7-1.2,3.3-1.9,4.8c-1.6,3.3-3.5,6.4-5.7,9.5c-2.2,3.1-4.6,5.9-7.2,8.4
			c-0.8,0.7-1.7,1.5-2.8,2.3c-1.1,0.8-2.2,1.5-3.4,2.2s-2.3,1.1-3.5,1.4c-1.2,0.3-2.3,0.3-3.3,0c-1.7-0.5-2.9-1.4-3.7-2.7
			c-0.7-1.3-1.1-2.8-1.2-4.5c-0.1-1.7,0.1-3.5,0.4-5.3c0.3-1.8,0.8-3.5,1.3-5c1.3-3.9,3-7.7,5-11.4c0.8-1.3,1.6-2.7,2.5-4.1
			c0.9-1.4,1.9-2.6,3.2-3.5c0.7-0.6,1.4-0.9,2.1-1c0.7-0.1,1.3,0,1.9,0.2c0.6,0.2,1.1,0.6,1.5,1.1c0.4,0.5,0.7,1.1,0.8,1.7
			s0,1.3-0.3,2.1C100.3,113.5,99.8,114.2,99.1,114.9z M124.5,130c1,0.6,2.1,0.8,3.4,0.5c1.3-0.3,2.6-0.8,4-1.5
			c1.4-0.8,2.8-1.7,4.2-2.8c1.4-1.1,2.7-2.3,4-3.5s2.4-2.4,3.4-3.5s1.8-2.1,2.4-2.9c0.4-0.6,0.8-0.9,1.3-1.1s0.8-0.1,1,0.1
			s0.4,0.5,0.5,1s0,1-0.3,1.6c-2.3,5.2-5.3,9.6-8.9,13.4c-1.2,1.2-2.4,2.3-3.8,3.3c-1.4,1-2.8,1.9-4.2,2.6c-1.5,0.7-2.9,1.3-4.4,1.6
			s-3,0.4-4.5,0.1c-1.8-0.3-3.2-1-4.3-1.9s-1.8-2.1-2.3-3.5s-0.7-2.9-0.6-4.5c0.1-1.7,0.3-3.4,0.8-5.1c0.4-1.7,1-3.4,1.8-5.1
			c0.7-1.7,1.5-3.2,2.3-4.6c0.8-1.3,1.8-2.7,2.8-4.1s2.1-2.6,3.3-3.8s2.5-2.2,3.9-3.1c1.3-0.9,2.8-1.6,4.3-2
			c1.8-0.5,3.4-0.6,5.1-0.1c1.6,0.5,2.9,1.4,3.9,2.9c0.9,1.4,1.3,2.9,1.2,4.6c-0.1,1.7-0.4,3.3-1.1,4.9c-0.7,1.6-1.6,3.2-2.8,4.7
			c-1.2,1.5-2.4,2.7-3.7,3.7c-2.1,1.7-4.2,2.8-6.3,3.3s-4.2,0.7-6.4,0.4c-0.3,1.1-0.5,2-0.5,2.9C123.6,129,123.9,129.6,124.5,130z
			 M126.5,119.6c1.3-0.1,2.6-0.5,3.8-1.1c1.6-0.9,3-2.2,4.2-3.9c0.3-0.4,0.6-1,1.1-1.7c0.4-0.8,0.7-1.5,0.8-2.1
			c0.2-0.8,0.1-1.2-0.3-1.3c-0.4-0.1-0.8,0-1.3,0.3c-0.7,0.3-1.4,0.8-2,1.5c-0.6,0.7-1.2,1.3-1.7,1.8c-0.9,1-1.7,2.1-2.4,3.2
			C127.8,117.3,127.2,118.5,126.5,119.6L126.5,119.6z M146.4,109.3c0.4-2.2,1.3-4.3,2.5-6.4c1.3-2.1,2.8-4.1,4.6-5.9
			c1.8-1.9,3.8-3.6,5.9-5.1s4.4-2.9,6.7-4.1c2.3-1.2,4.5-2.1,6.8-2.7c2.2-0.7,4.3-1,6.2-1.1c2.2,0,4.3,0.4,6.1,1.4s3.2,2.5,4.1,4.6
			c0.7,1.7,0.9,3.3,0.7,5c-0.2,1.7-0.7,3.4-1.5,5s-1.8,3.2-3,4.7s-2.4,2.8-3.8,4c-0.9,0.8-1.9,1.6-2.8,2.3c-0.9,0.7-1.9,1.4-2.9,2.1
			c0.5,0.9,0.7,1.8,0.7,2.8c0,1,0,2.1-0.1,3.2c-0.1,1.4,0,2.3,0.4,2.5c0.4,0.3,1.3-0.1,2.7-1.1c0.6-0.4,1.3-1,1.9-1.7
			c0.6-0.7,1.3-1.3,1.9-2c0.6-0.7,1.2-1.3,1.7-1.9c0.5-0.6,1-1.2,1.4-1.6c0.8-0.9,1.7-1.9,2.5-3.1c0.8-1.1,1.7-2.1,2.7-2.9
			c0.3-0.3,0.7-0.5,1.1-0.6c0.4-0.1,0.8,0.1,1,0.5c0.3,0.4,0.3,0.9,0.1,1.5c-0.2,0.6-0.4,1.1-0.7,1.6c-0.6,1.3-1.3,2.8-2.1,4.4
			c-0.8,1.6-1.8,3.2-2.8,4.8s-2.1,3.1-3.4,4.5c-1.2,1.4-2.5,2.7-3.9,3.6s-2.8,1.7-4.4,2.1s-3.1,0.4-4.7-0.1
			c-1.4-0.4-2.5-1.1-3.3-2.2s-1.2-2.5-1.2-4.1c0-0.7,0.1-1.4,0.2-2c0.1-0.7,0.2-1.3,0.3-1.9c0.1-0.6,0.2-1.2,0.2-1.7
			c0-0.5,0-1-0.1-1.4c-1,0.3-2,0.4-3.2,0.6c-1.1,0.1-2.1,0.1-2.9-0.2c-1.2,2.2-2.2,4.4-3.1,6.6s-1.7,4.4-2.5,6.7
			c-0.2,0.5-0.4,0.9-0.6,1.4c-0.2,0.5-0.5,0.9-0.8,1.2c-0.3,0.3-0.7,0.6-1.1,0.7c-0.4,0.2-0.9,0.2-1.4,0.1c-0.5-0.1-0.8-0.3-1.2-0.7
			c-0.3-0.3-0.6-0.8-0.8-1.2c-0.2-0.5-0.4-0.9-0.5-1.4s-0.2-0.9-0.3-1.4c-0.2-1.3-0.1-2.7,0.1-4.1c0.3-1.4,0.6-2.8,1.1-4.2
			s1.1-2.8,1.7-4.1s1.3-2.7,2-3.9c0.8-1.3,1.6-2.6,2.5-4.1s1.9-2.8,3-4.1c1.1-1.3,2.2-2.6,3.4-3.7s2.4-2,3.8-2.7
			c0.7-0.4,1.3-0.6,1.9-0.6c0.6,0,1.1,0.1,1.4,0.4c0.4,0.3,0.6,0.7,0.6,1.3c0,0.6-0.1,1.3-0.6,2.2c-1.1,2.4-2.4,4.7-3.7,6.8
			c0.6-0.2,1.1-0.3,1.6-0.3s1,0,1.4,0c0.5-0.3,1.2-0.7,2-1.3c0.8-0.6,1.6-1.3,2.5-2.2s1.7-1.7,2.5-2.6s1.5-1.8,2.1-2.7
			c0.6-0.9,1-1.8,1.2-2.6c0.2-0.8,0.1-1.6-0.2-2.2c-0.3-0.6-0.8-1-1.5-1.1s-1.4-0.2-2.2-0.1s-1.7,0.3-2.5,0.6
			c-0.9,0.3-1.7,0.6-2.5,0.9c-1.9,0.7-3.8,1.7-5.7,2.8c-1.9,1.1-3.8,2.4-5.7,3.9c-1.8,1.4-3.6,3-5.2,4.7c-1.6,1.7-3,3.5-4.3,5.3
			c-0.6,0.9-1.2,1.4-1.8,1.7s-1.1,0.2-1.6,0c-0.5-0.2-0.8-0.7-1.1-1.3C146.2,110.9,146.2,110.2,146.4,109.3z M208.3,95.9
			c-0.9,1-1.9,2.2-2.9,3.7s-2.1,3-3.2,4.7c-1,1.7-2,3.3-3,5s-1.7,3.3-2.2,4.8c-0.3,0.9-0.5,1.5-0.4,1.9s0.2,0.6,0.5,0.6
			s0.7-0.1,1.1-0.3c0.4-0.3,0.9-0.6,1.3-1.1c1.7-1.7,3.2-3.4,4.6-5.2c1.4-1.8,2.8-3.5,4.1-5.3c1.3-1.8,2.7-3.7,4-5.6
			c1.4-1.9,2.8-3.8,4.3-5.9c0.6-0.8,1.3-1.7,1.9-2.6c0.6-0.9,1.3-1.7,2.1-2.4c0.8-0.7,1.6-1.3,2.4-1.8c0.9-0.5,1.8-0.7,2.9-0.8
			c1,0,1.7,0.3,2.1,0.9s0.6,1.4,0.4,2.3c-0.2,1-0.4,2-0.8,3c-0.4,1-0.9,1.9-1.4,2.9s-1.1,1.9-1.6,2.8c-0.6,0.9-1.1,1.9-1.7,2.8
			c-0.6,1.1-1.3,2.2-2,3.4s-1.4,2.4-2.1,3.6c-0.7,1.2-1.2,2.4-1.7,3.6c-0.5,1.2-0.8,2.3-0.9,3.2c-0.1,0.6,0,1,0.4,1.1
			c0.3,0.1,0.8,0,1.3-0.3c0.9-0.5,1.9-1.4,3-2.6c1.1-1.2,2.3-2.5,3.5-4c1.2-1.4,2.3-2.8,3.3-4.3c1-1.4,1.9-2.5,2.5-3.4
			c0.3-0.4,0.6-0.7,1-0.8c0.4-0.1,0.7-0.1,0.9,0.1s0.4,0.5,0.4,0.9c0,0.5-0.1,1.1-0.6,1.8c-0.8,1.5-1.8,3.2-2.9,5.3s-2.4,4.1-3.7,6
			c-1.4,2-2.8,3.8-4.4,5.3c-1.6,1.6-3.2,2.7-4.9,3.2c-1.6,0.5-3.1,0.5-4.4-0.1c-1.4-0.5-2.4-1.5-3.1-2.8c-0.7-1.3-0.9-2.7-0.8-4.3
			c0.1-1.6,0.4-3.1,0.8-4.7c-1.3,2.6-2.8,5.2-4.4,7.7c-1.6,2.6-3.4,4.7-5.7,6.4c-1.4,1.1-2.9,1.7-4.4,2s-2.9-0.1-4.2-0.9
			c-1.3-1-2.1-2.2-2.4-3.8c-0.3-1.6-0.3-3.3,0.1-5c0.4-1.8,0.9-3.5,1.6-5.3c0.7-1.8,1.4-3.4,2.2-4.8c0.7-1.4,1.5-3,2.4-4.7
			s2-3.4,3.1-5c1.1-1.7,2.3-3.2,3.5-4.6c1.2-1.4,2.5-2.6,3.7-3.4c1.1-0.8,2.2-1.1,3.1-0.9c1,0.2,1.7,0.6,2.2,1.4s0.7,1.7,0.6,2.8
			C209.9,93.6,209.3,94.7,208.3,95.9z M244.6,88.7c-0.1,0.4-0.2,0.7-0.3,0.9c0.6-0.9,1.3-1.8,1.9-2.6s1.4-1.7,2.1-2.5
			c0.8-0.9,1.7-1.7,2.7-2.5c1-0.8,2-1.4,3-1.8c1-0.4,2.1-0.7,3.1-0.6c1,0,2,0.4,3,1.1c0.8,0.6,1.4,1.3,1.7,2.2s0.5,1.8,0.4,2.9
			c0,1-0.2,2.1-0.5,3.1c-0.3,1.1-0.6,2.1-1.1,3.1c-0.7,1.6-1.4,3.2-2.3,4.7c-0.8,1.5-1.7,3-2.5,4.5c-0.1,0.2-0.4,0.7-0.7,1.3
			s-0.7,1.3-1.1,2c-0.4,0.7-0.8,1.5-1.1,2.2c-0.4,0.8-0.6,1.3-0.7,1.8c-0.1,0.4,0,0.7,0.3,0.7s0.8-0.3,1.6-0.9
			c0.9-0.7,1.9-1.6,2.9-2.8c1.1-1.2,2.1-2.5,3.2-3.8s2.1-2.7,3-3.9c1-1.3,1.8-2.3,2.4-3.2c0.4-0.5,0.7-0.8,1.1-1s0.6-0.2,0.8-0.1
			s0.4,0.3,0.4,0.7c0,0.4,0,0.8-0.3,1.2c-0.4,0.9-0.9,1.9-1.5,3.1c-0.6,1.2-1.3,2.4-2.1,3.6c-0.8,1.2-1.5,2.4-2.3,3.6
			c-0.8,1.2-1.5,2.2-2.1,3.1c-0.7,1-1.5,2.1-2.4,3.2c-0.9,1.1-1.9,2-2.9,2.8s-2.1,1.4-3.2,1.8c-1.1,0.4-2.3,0.4-3.6,0
			c-1.2-0.4-2.1-1-2.7-1.9s-1-1.9-1.1-3c-0.1-1.1-0.1-2.3,0.1-3.6c0.2-1.3,0.6-2.5,1-3.6c0.6-1.6,1.3-3.1,2.1-4.6
			c0.8-1.5,1.6-2.9,2.4-4.4c0.5-0.9,1.1-1.8,1.7-2.8s1.2-1.9,1.7-2.9c0.5-0.8,0.6-1.2,0.6-1.4c-0.1-0.2-0.3-0.2-0.7,0
			s-0.9,0.5-1.5,1s-1.2,0.9-1.7,1.4c-0.6,0.5-1.1,0.9-1.5,1.3c-0.4,0.4-0.7,0.6-0.8,0.7c-2.6,2.5-5.1,5.3-7.3,8.4
			c-1.6,2.1-3,4.3-4.3,6.7c-1.3,2.3-2.3,4.7-3,7.2c-0.2,0.6-0.3,1.1-0.4,1.6c0,0.5-0.2,1-0.4,1.5c-0.3,0.6-0.6,1.1-1.1,1.5
			c-0.5,0.4-1,0.7-1.5,0.8c-0.5,0.2-1.1,0.2-1.7,0.2c-0.6-0.1-1.1-0.2-1.5-0.5c-1.1-0.6-1.8-1.6-1.9-2.9c-0.1-1.3,0-2.8,0.4-4.4
			c0.4-1.6,0.9-3.1,1.6-4.7c0.7-1.5,1.2-2.8,1.7-3.8c0.6-1.3,1.3-2.6,2.1-3.9c0.8-1.3,1.6-2.6,2.4-4c0.8-1.3,1.5-2.7,2.3-4.1
			c0.7-1.4,1.3-2.8,1.8-4.3c0.2-0.9,0.6-1.7,1.1-2.3c0.5-0.6,1.1-1,1.8-1.3c0.7-0.3,1.3-0.4,2-0.3c0.7,0.1,1.3,0.3,1.9,0.6
			c0.5,0.4,0.9,0.9,1.2,1.5C244.7,86.9,244.8,87.7,244.6,88.7z"/>
	</g>
	
		<linearGradient id="SVGID_3_" gradientUnits="userSpaceOnUse" x1="33.035" y1="64.025" x2="267.4532" y2="64.025" gradientTransform="matrix(1 0 0 -1 0 278.0001)">
		<stop  offset="0" style="stop-color:#F89631"/>
		<stop  offset="6.450000e-02" style="stop-color:#F68C41"/>
		<stop  offset="0.2176" style="stop-color:#F3765A"/>
		<stop  offset="0.373" style="stop-color:#F16166"/>
		<stop  offset="0.5286" style="stop-color:#F04E6D"/>
		<stop  offset="0.6846" style="stop-color:#EE3D72"/>
		<stop  offset="0.8413" style="stop-color:#EE3074"/>
		<stop  offset="1" style="stop-color:#EE2B74"/>
	</linearGradient>
	<path style="fill:url(#SVGID_3_);" d="M259.3,157.5c-4.7,28.7-19.5,55-41.8,74c-22.4,19.3-51.1,29.8-80.8,29.8
		c-37.2,0-72.1-16.5-95.8-45.2c-1.6-1.9-4.4-2.2-6.3-0.6c-1.9,1.6-2.2,4.4-0.6,6.3c25.4,30.8,62.9,48.5,102.7,48.5
		c31.8,0,62.5-11.4,86.6-32c23-19.7,38.4-44.7,44-74.2C267.5,164.2,259.3,157.7,259.3,157.5z"/>
	
		<linearGradient id="SVGID_4_" gradientUnits="userSpaceOnUse" x1="19.106" y1="196.5555" x2="236.4378" y2="196.5555" gradientTransform="matrix(1 0 0 -1 0 278.0001)">
		<stop  offset="0" style="stop-color:#F89631"/>
		<stop  offset="4.470000e-02" style="stop-color:#F7913A"/>
		<stop  offset="0.2847" style="stop-color:#F3765A"/>
		<stop  offset="0.5084" style="stop-color:#F15D68"/>
		<stop  offset="0.7092" style="stop-color:#EF4570"/>
		<stop  offset="0.8798" style="stop-color:#EE3473"/>
		<stop  offset="1" style="stop-color:#EE2B74"/>
	</linearGradient>
	<path style="fill:url(#SVGID_4_);" d="M250.2,65.7C228.1,26.7,188.1,5,143.4,5C91.8,5,46.4,37.2,27.5,84.3v0c0,0-6.1,13.4-4.3,21.9
		c0.5,2.9,1.6,5.6,4,8.1c3,3.2,8.9,4.7,14.1,4.9c-1.8,4.4-3.8,8.7-6.1,12.9c-0.7,1.1-1.3,2.4-2.1,3.6c-6.4-1.6-12.8-2.3-19.5,0.3
		c-5.2,2-9.5,6.6-8.4,12.5c1.2,6.2,7.2,9.7,13.2,9.2c7-0.6,12.1-6,16.1-11.2c0.6-0.8,1.2-1.6,1.8-2.4c7.2,2.1,14.3,5,21.9,5.3
		c4.8,0.2,4.8-7.3,0-7.5c-6.1-0.2-11.9-2.2-17.8-4.1c2-3.3,3.8-6.6,5.3-10.1c2.2-4.7,3.8-9.4,5.3-14.3c8.8-4.5,16-11.8,20-20.9
		c2.4-5.4,4.1-11.8,0.6-17.1c-3.2-4.8-9.3-5.6-14-2.6c-5.6,3.5-6.6,10.2-7.8,16.2c-1.3,6.4-2.9,12.8-4.8,19
		c-0.9,0.4-1.9,0.8-2.8,1.1c-2.9,0.7-6,0.5-8-1.9c-2-2.4-1.8-5.8-1.1-9.1c0-0.1,0-0.1,0-0.1c14-49,59.1-83.1,110.2-83.1
		c41.2,0,77.9,19.8,98.2,55.6c1.4,2.4,4.4,3.3,6.8,1.9C250.8,71.1,251.6,68.1,250.2,65.7z M20.2,149.7c-3.1,1.2-8.5,0.5-7.1-3.7
		c0.8-2.3,3.3-3.1,5.5-3.6c3.3-0.8,6.9-0.6,10.3,0C26.4,145.6,23.5,148.4,20.2,149.7z M58.4,85.5c0.5-2.1,1.4-5.5,3.8-6.5
		c3.9-1.5,4.4,3.2,3.9,5.7c-0.8,3.8-2.8,7.5-5,10.6c-2,2.8-4.3,5.4-7,7.5C55.5,97.1,56.8,91.3,58.4,85.5z"/>
</g>
</svg>
