<?xml version="1.0" encoding="utf-8"?>
<!-- Generator: Adobe Illustrator 23.0.1, SVG Export Plug-In . SVG Version: 6.00 Build 0)  -->
<svg version="1.1" xmlns="http://www.w3.org/2000/svg" xmlns:xlink="http://www.w3.org/1999/xlink" x="0px" y="0px"
	 viewBox="0 0 373.44 265.42" style="enable-background:new 0 0 373.44 265.42;" xml:space="preserve">
<g id="FOND_FONCE">
</g>
<g id="Calque_1">
	<g>
		<path style="fill:#EE2B74;" d="M326.49,82.13c-0.55,0.1-1.34,0.32-1.49,0.95c-0.14,0.56,0.3,1.12,0.82,1.27
			c0.37,0.12,0.74,0.1,1.1-0.03c0.7-0.26,1.32-1,1.87-2.23C328.03,82.01,327.23,81.97,326.49,82.13z"/>
		<path style="fill:#EE2B74;" d="M335.91,70.22c0.81-1.78,1.05-3.1,0.73-3.95c-0.1-0.26-0.26-0.45-0.49-0.59
			c-0.22-0.14-0.47-0.16-0.74-0.05c-0.28,0.1-0.49,0.25-0.63,0.43c-0.38,0.43-0.64,0.95-0.81,1.54c-0.31,1.27-0.42,3.31-0.32,6.11
			C334.43,72.97,335.18,71.81,335.91,70.22z"/>
		<path style="fill:#EE2B74;" d="M349.13,69.01c-0.4,0.15-0.65,0.59-0.81,0.95c-0.18,0.39-0.29,0.8-0.39,1.22
			c-0.07,0.36-0.13,0.73-0.16,1.08c-0.03,0.35-0.03,0.7,0.01,1.02c0.03,0.31,0.09,0.58,0.17,0.8c0.08,0.21,0.24,0.52,0.52,0.4
			c0.23-0.09,0.41-0.4,0.52-0.6c0.24-0.39,0.45-0.86,0.61-1.4c0.17-0.54,0.28-1.11,0.33-1.69c0.02-0.21,0.02-0.43,0.01-0.65
			C349.92,69.74,349.78,68.76,349.13,69.01z"/>
		<path style="fill:#EE2B74;" d="M339.62,72.19c-0.41,0.15-0.65,0.59-0.83,0.95c-0.18,0.39-0.3,0.81-0.39,1.22
			c-0.08,0.37-0.14,0.74-0.17,1.09c-0.03,0.36-0.03,0.7,0,1.02c0.03,0.32,0.08,0.59,0.17,0.81c0.08,0.21,0.24,0.52,0.53,0.39
			c0.24-0.1,0.41-0.4,0.54-0.6c0.24-0.39,0.45-0.86,0.62-1.41c0.18-0.54,0.29-1.11,0.34-1.69c0.03-0.21,0.03-0.44,0.02-0.65
			C340.42,72.92,340.28,71.94,339.62,72.19z"/>
		<path style="fill:#EE2B74;" d="M328.42,63.44c0.98-0.41,1.43-1.49,1.65-2.47c0.25-1.09,0.14-2.22-0.29-3.38
			c-0.35-0.94-0.92-1.69-1.69-2.24c-0.49,1.72-0.64,4.62-0.49,8.24C327.89,63.59,328.16,63.55,328.42,63.44z"/>
		<path style="fill:#EE2B74;" d="M354.67,76.24c-0.59,0.14-0.8,0.54-0.72,0.92c0.06,0.27,0.23,0.46,0.48,0.58
			c0.26,0.12,0.53,0.15,0.8,0.08c0.53-0.12,1.05-0.61,1.57-1.44C355.91,76.17,355.2,76.12,354.67,76.24z"/>
		<path style="fill:#EE2B74;" d="M365.03,65.7c0.77,0.03,1.41-0.55,1.45-1.38c0.03-0.81-0.56-1.45-1.33-1.48
			c-0.79-0.03-1.42,0.56-1.46,1.37C363.65,65.04,364.24,65.67,365.03,65.7z M364.35,63.19l0.75,0.03c0.47,0.02,0.85,0.27,0.89,0.59
			c0.02,0.17-0.05,0.43-0.26,0.56c0.23,0.11,0.17,0.82,0.17,0.82l-0.42-0.02c0,0,0.05-0.72-0.22-0.73
			c-0.26-0.01-0.56-0.03-0.56-0.03l-0.03,0.76l-0.41-0.01L364.35,63.19z"/>
		<path style="fill:#EE2B74;" d="M365.58,63.85c0.01-0.18-0.21-0.26-0.42-0.27l-0.43-0.02l-0.02,0.57l0.37,0.02
			C365.34,64.16,365.57,64.15,365.58,63.85z"/>
		<path style="fill:#EE2B74;" d="M359.1,76.88c-0.79,0.95-1.79,1.63-2.79,1.87c-0.93,0.21-1.69,0.19-2.32-0.08
			c-0.54-0.24-0.86-0.59-0.98-1.06c-0.11-0.47-0.04-0.89,0.21-1.26c0.3-0.45,0.8-0.72,1.31-0.85c0.91-0.23,1.88-0.22,2.8-0.1l0,0.02
			c0.41-0.84,0.66-1.55,0.88-2.69l0.22-1.18l0-0.01c-0.1,0.22-0.22,0.43-0.37,0.63c-0.36,0.48-0.85,0.84-1.44,1.06
			c-0.54,0.2-1.02,0.2-1.43-0.01c-0.37-0.2-0.65-0.54-0.85-1.01c-0.01,0.04-0.03,0.08-0.04,0.11c-0.17,0.46-0.35,0.92-0.65,1.32
			c-0.37,0.48-0.86,0.84-1.44,1.06c-0.53,0.2-1.02,0.2-1.43-0.01c-0.4-0.22-0.7-0.59-0.9-1.13c-0.01,0.2-0.36,1.05-0.55,1.32
			c-0.19,0.28-0.41,0.53-0.64,0.75c-0.26,0.23-0.55,0.41-0.88,0.53c-0.6,0.23-1.15,0.22-1.61-0.03c-0.46-0.25-0.82-0.74-1.11-1.51
			c-0.01-0.01-0.01-0.02-0.01-0.03c-0.1,0.31-0.22,0.61-0.33,0.92c-0.17,0.46-0.35,0.93-0.65,1.32c-0.37,0.48-0.85,0.84-1.44,1.06
			c-0.54,0.2-1.02,0.2-1.43-0.01c-0.4-0.21-0.7-0.58-0.91-1.12c-0.01,0.2-0.36,1.05-0.55,1.33c-0.19,0.28-0.41,0.53-0.65,0.76
			c-0.26,0.22-0.54,0.4-0.87,0.53c-0.61,0.23-1.15,0.22-1.61-0.03c-0.45-0.25-0.81-0.74-1.1-1.51c-0.2-0.52-0.28-1.11-0.22-1.76
			c0.05-0.64,0.23-1.28,0.54-1.9c0.3-0.62,0.75-1.26,1.29-1.79c0.54-0.53,0.97-0.84,1.74-1.13c0.36-0.13,0.78-0.18,1.13-0.03
			c0.48,0.2,0.64,0.44,0.84,0.71c0.07-0.27,0.14-0.54,0.37-0.83c0.48-0.6,2.18-1.28,2.18-1.28c0.17-0.06,0.45,0.01,0.41,0.21
			c0,0-0.91,4.64-0.94,4.94c-0.03,0.28-0.29,1.67,0.21,1.67c0.23-0.01,0.43-0.28,0.55-0.45c0.35-0.45,0.58-1.04,0.77-1.57
			c0.18-0.5,0.33-1,0.47-1.5c0-0.08,0.01-0.16,0.01-0.24c0.05-0.64,0.23-1.28,0.53-1.9c0.3-0.62,0.72-1.2,1.26-1.74
			c0.54-0.53,1-0.89,1.77-1.18c0.5-0.19,0.96-0.12,1.34,0.04c0,0,0.33,0.12,0.65,0.43c0.1-0.75,1.09-5.47,1.09-5.47
			c0.2-1.11,0.76-1.47,1.51-1.89c0.87-0.49,0.99-0.52,0.99-0.52c0.17-0.06,0.39-0.03,0.36,0.18c0,0-0.02,0.35-0.1,0.68
			c0,0.01,0,0.02,0,0.03c-0.05,0.27-1.83,9.94-1.87,10.24c-0.03,0.27-0.29,1.67,0.21,1.66c0.23-0.01,0.43-0.28,0.55-0.45
			c0.35-0.45,0.59-1.04,0.77-1.57c0.2-0.58,0.46-1.44,0.62-2.06c0.18-1.03,0.38-1.95,0.38-1.95c0.17-0.97,0.48-1.31,1.51-1.89
			c0.87-0.49,0.98-0.51,0.98-0.51c0.17-0.06,0.46,0,0.41,0.21l-0.46,2.19c-0.15,0.67-0.34,1.44-0.43,1.99
			c-0.05,0.3-0.09,0.6-0.12,0.9c-0.03,0.27-0.29,1.67,0.21,1.66c0.23-0.01,0.42-0.28,0.55-0.45c0.35-0.45,0.59-1.04,0.77-1.57
			c0.2-0.57,1.07-4.08,1.07-4.08c0.28-0.97,0.6-1.31,1.63-1.89c0.87-0.49,0.98-0.51,0.98-0.51c0.17-0.06,0.45,0,0.41,0.21
			l-0.46,2.19c-0.14,0.67-0.34,1.45-0.43,2c-0.05,0.3-1.31,6.73-1.85,8.07c2.14,0.54,3.47,0.67,5.67,0.18c0,0,1.03-0.22,2.42-0.92
			c6.61-10.43,8.68-24.11-0.8-33.67c-6.44-6.5-16.04-6.27-23.15-1.77c-2.02,1.28-3.83,2.89-5.32,4.8c-0.14,0.19-0.29,0.37-0.43,0.56
			c-0.18-0.2-0.36-0.4-0.55-0.59c-2.48-2.58-5.27-4.07-8.12-4.67c-10.77-2.27-22.58,8.06-23.21,19.87
			c-0.17,3.26,0.38,6.28,1.48,9.08c2.26-2.06,5.06-3.41,8.24-3.75c1.14-0.12,2.33-0.15,3.5-0.05c-0.31-0.42-0.58-0.91-0.8-1.47
			c-0.71-1.88-0.63-3.76,0.24-5.63c0.92-1.98,2.52-3.41,4.81-4.28c1.43-0.54,2.8-0.66,4.11-0.37c0.41-0.54,0.86-1.1,1.36-1.69
			c0.17-0.2,0.34-0.34,0.51-0.4c0.27-0.1,0.54-0.09,0.67,0.13c0.13,0.24,0.14,0.5-0.31,0.87c-0.55,0.45-0.94,0.94-1.19,1.37
			c1.03,0.38,1.93,0.97,2.73,1.77c0.72,0.74,1.24,1.54,1.56,2.38c0.5,1.33,0.45,2.67-0.16,4.03c-0.61,1.36-1.56,2.28-2.84,2.76
			c-0.82,0.31-1.66,0.46-2.54,0.44c0.01,1-0.11,1.93-0.31,2.8c0.44-0.33,0.93-0.59,1.45-0.76c0.51-0.16,1.4-0.39,1.89-0.06
			c0.43,0.28,0.11,0.71-0.21,0.88c-0.44,0.24-0.9,0.09-1.64,0.31c-2.64,0.79-2.88,4.08-2.57,5.12c0.65,2.21,2.85,2.39,3.97,2.15
			c0.03-0.34,0.06-0.74,0.09-1.2c0.2-1.94,0.63-3.71,1.3-5.29c0.78-1.86,1.79-3.13,3.03-3.83c-1.18-0.7-0.79-2.34-0.62-3.44
			c0.12-0.72,0.23-1.44,0.37-2.15c0.19-1.11,0.75-1.46,1.51-1.89c0.87-0.49,0.99-0.52,0.99-0.52c0.17-0.06,0.45,0,0.41,0.21
			l-0.47,2.19c-0.14,0.67-0.26,1.29-0.35,1.85c-0.05,0.29-0.09,0.59-0.13,0.9c-0.03,0.27-0.3,1.67,0.21,1.66
			c0.23-0.01,0.43-0.28,0.56-0.45c0.35-0.45,0.59-1.04,0.77-1.57c0.32-0.91,0.61-1.83,0.85-2.76c0,0,0.1-0.35,0.1-0.35
			c0.02-0.07,0.04-0.15,0.06-0.23c0.1-0.37,0.15-0.61,0.15-0.61c0.19-1.11,0.75-1.46,1.51-1.89c0.87-0.49,0.81-0.45,0.81-0.45
			c0.18-0.06,0.45,0,0.42,0.21c-0.01,0.03-0.2,1.11-0.19,1.12c0.02,0.02,0.14-0.2,0.14-0.22c0.25-0.44,0.54-0.9,0.87-1.28
			c0.34-0.37,0.78-0.65,1.26-0.79c0.23-0.07,0.48-0.11,0.72-0.08c0.22,0.02,0.5,0.09,0.7,0.2c0.4,0.22,0.69,0.61,0.87,1.15
			c0.19,0.56,0.2,1.32,0.01,2.29L346,58.65c-0.01,0.1-0.03,0.19-0.03,0.28c-0.03,0.27-0.3,1.67,0.21,1.66
			c0.23,0,0.43-0.27,0.56-0.44c0.35-0.45,0.58-1.03,0.77-1.57c0.15-0.45,0.3-0.9,0.44-1.35c0.74-3.98,2.13-10.92,2.13-10.92
			c0.24-1.03,0.52-1.43,1.54-2c0.87-0.49,0.98-0.51,0.98-0.51c0.17-0.06,0.4-0.03,0.36,0.17c0,0-0.02,0.35-0.09,0.68
			c-0.06,0.25-1.56,8.72-1.56,8.72l2.23-1.95c0.19-0.19,0.33-0.42,0.32-0.69c0-0.42-0.02-0.87,0.22-1.23
			c0.25-0.38,0.75-0.58,1.18-0.65c0.49-0.07,1.19,0.06,1.42,0.57c0.26,0.62-0.34,1.26-0.76,1.63c-0.99,0.87-2.16,1.97-2.72,2.48
			c0.61,1.09,2.21,3.7,2.45,3.81c0.32,0.13,0.57-0.19,0.74-0.41c0.38-0.48,0.57-1.12,0.6-1.72c0-0.18-0.02-0.37,0.05-0.54
			c0.08-0.2,0.28-0.32,0.51-0.27c0.32,0.09,0.29,0.6,0.26,0.84c-0.02,0.15-0.05,0.29-0.08,0.43c-0.11,0.47-0.32,0.95-0.53,1.36
			c-0.09,0.19-0.21,0.37-0.33,0.54c-0.37,0.48-0.85,0.84-1.44,1.07l-0.22,0.07c-0.68,0.22-1.59,0.36-2.52-0.94l-1.55-2.42
			c0,0-0.59,2.96-0.96,4.43c0,0-0.21,0.68-0.69,0.84c-0.27,0.09-0.69,0.28-1.06,0.33c-0.52,0.07-0.8-0.29-0.9-0.7
			c-0.09,0.19-0.2,0.39-0.33,0.55c-0.36,0.49-0.85,0.84-1.44,1.06c-1.96,0.74-2.56-0.34-2.58-1.77c-0.01-0.45,0.36-2.77,0.36-2.77
			c0.04-0.22,0.1-0.82-0.23-0.9c-0.18-0.04-0.39,0.1-0.5,0.21c-0.83,0.82-1.6,2.62-1.85,3.74c0,0-0.33,1.25-0.55,2.67
			c0,0-0.1,0.65-0.58,0.81c-0.27,0.09-0.68,0.28-1.06,0.34c-0.53,0.07-0.81-0.3-0.9-0.73c-0.09,0.21-0.21,0.41-0.35,0.58
			c-0.17,0.23-0.38,0.43-0.6,0.6c0.17,0.08,0.33,0.18,0.46,0.32c0.34,0.34,0.54,0.83,0.61,1.44c0.19,1.48-0.18,3.09-1.11,4.83
			c-0.85,1.56-1.91,2.84-3.19,3.85c0.01,2.03-0.27,3.78-0.87,5.39c0.82,0.09,3.35,0.73,3.88,0.84c2.68,0.58,7.02,1.11,9.19-1.65
			c0.32-0.4,0.54-0.86,0.71-1.33c0.14-0.39,0.3-0.8,0.72-0.94c0.41-0.14,0.83,0.07,0.83,0.53c0,0.45-0.19,0.84-0.41,1.21
			c-1.84,3.07-6.6,4.82-12.51,3.76c-0.39-0.07-2.48-0.51-3.27-0.54c-0.1,0.12-0.2,0.28-0.3,0.43c-0.32,0.47-0.68,0.92-1.09,1.31
			c-0.38,0.37-0.81,0.69-1.27,0.95c-0.26,0.14-0.52,0.27-0.79,0.37c-1.21,0.45-2.26,0.56-3.14,0.31c-0.83-0.23-1.55-0.88-1.67-1.76
			c-0.14-1.12,0.65-2.01,1.59-2.49c0.97-0.51,2.53-0.83,4.07-0.97c0.36-1.15,0.58-2.47,0.67-3.95c-0.01,0.1-1.43,0.04-1.57,0.02
			c-0.78-0.1-1.54-0.42-2.14-0.93c-0.22-0.19-0.42-0.42-0.58-0.66c-0.61-0.88-0.88-2-0.8-3.07c-0.66,0.64-1.4,1.14-2.25,1.46
			c-1.3,0.49-2.51,0.55-3.64,0.18c-1.13-0.36-1.91-1.1-2.32-2.2c-0.38-1-0.37-1.88,0.03-2.66c0.32-0.6,0.78-1.01,1.36-1.23
			c0.45-0.16,0.87-0.16,1.29,0.04c0.42,0.18,0.69,0.47,0.84,0.84c0.16,0.43,0.09,0.87-0.23,1.31c-0.34,0.49-0.92,0.87-0.97,1.53
			c-0.07,1.15,0.95,1.64,1.9,1.1c1.59-0.9,2.67-3.4,3.33-8.38c-0.52-0.46-1.09-1.18-1.21-1.52c-0.13-0.35-0.06-0.57,0.2-0.68
			c0.46-0.19,0.79,0.49,1.09,0.86l0.09,0.1c0.4-3.15,1.21-5.87,2.36-7.89c-1.07-0.36-2.26-0.29-3.57,0.2
			c-1.62,0.62-2.79,1.69-3.51,3.22c-0.71,1.53-0.77,3.09-0.17,4.69c0.43,1.16,1.02,1.9,1.74,2.25c0.51,0.24,1.3,0.14,1.66,0.65
			c0.21,0.3,0.16,0.71-0.15,0.9c-0.5,0.32-1.3-0.03-1.76-0.29c-0.16-0.09-0.3-0.23-0.48-0.27c-1.24-0.3-2.6-0.36-3.9-0.22
			c-1.05,0.12-2.1,0.38-3.08,0.79c-1.75,0.74-3.22,1.95-4.6,3.25c-0.19,0.19-0.37,0.39-0.55,0.6c1.94,3.98,4.96,7.47,8.45,10.48
			c5.36,4.62,12.04,9.96,10.46,16.92c-0.29,1.3-0.88,2.65-1.81,4.07c1.61-0.57,3.24-1.15,4.88-1.75
			c12.31-4.51,24.94-10.08,33.64-20.05c0.71-0.82,1.4-1.68,2.05-2.56C364.23,77.96,361.89,77.83,359.1,76.88z M365.15,62.56
			c0.94,0.04,1.7,0.8,1.66,1.78c-0.04,1-0.87,1.69-1.8,1.65c-0.94-0.04-1.71-0.8-1.67-1.79C363.38,63.21,364.21,62.52,365.15,62.56z
			 M337.76,54.45c-0.54,0.76-1.42,1.2-2.24,1.58c0.31-0.6-0.23-0.94-0.66-1.25c-0.43-0.3-0.76-0.7-0.79-1.25
			c-0.04-0.94,1.07-1.84,1.88-1.09c0.35-0.6,1.2-0.87,1.76-0.39C338.47,52.67,338.28,53.74,337.76,54.45z"/>
		<path style="fill:#EE2B74;" d="M286.2,90.03c0,1.57-0.59,2.89-1.75,3.98c1.5,0.61,2.26,1.82,2.26,3.61c0,1.65-0.52,3.05-1.57,4.18
			c-1.04,1.13-2.56,1.87-4.55,2.22l-7.42,1.31V87.23l6.97-1.23c1.97-0.35,3.48-0.17,4.51,0.52C285.68,87.22,286.2,88.39,286.2,90.03
			L286.2,90.03z M279.83,90.5l-1.65,0.29v2.43l1.93-0.37c0.72-0.23,1.08-0.69,1.08-1.38c0-0.4-0.13-0.67-0.4-0.83
			C280.52,90.49,280.2,90.44,279.83,90.5z M280.29,99.62c0.4-0.07,0.74-0.25,1-0.54c0.27-0.29,0.4-0.62,0.4-1
			c0-0.72-0.38-1.08-1.13-1.07l-2.38,0.39V100L280.29,99.62z M303.35,81.91l-5.94,12.27v6.88l-5.01,0.88v-6.88l-5.94-10.17
			l5.57-0.98l2.88,5.85l2.88-6.87L303.35,81.91z"/>
	</g>
	<linearGradient id="SVGID_1_" gradientUnits="userSpaceOnUse" x1="23.6609" y1="161.4588" x2="263.4229" y2="161.4588">
		<stop  offset="0" style="stop-color:#F89631"/>
		<stop  offset="0.0645" style="stop-color:#F68C41"/>
		<stop  offset="0.2176" style="stop-color:#F3765A"/>
		<stop  offset="0.373" style="stop-color:#F16166"/>
		<stop  offset="0.5286" style="stop-color:#F04E6D"/>
		<stop  offset="0.6846" style="stop-color:#EE3D72"/>
		<stop  offset="0.8413" style="stop-color:#EE3074"/>
		<stop  offset="1" style="stop-color:#EE2B74"/>
	</linearGradient>
	<path style="fill:url(#SVGID_1_);" d="M23.66,161.17v40.23l11.11-1.97v-12.7l12.77-2.26v-11.15l-12.77,2.26v-5.23l13.05-2.31V156.9
		L23.66,161.17z M52.81,156.01v40.23l25.54-4.52v-10.57l-14.44,2.55v-4.48l12.77-2.26v-10.34l-12.77,2.26v-4.37L78.08,162v-10.46
		L52.81,156.01z M96.9,147.29c-4.18,0.74-7.56,2.55-10.13,5.41c-2.57,2.87-3.86,6.14-3.86,9.82c0,6.21,3.87,9.83,11.6,10.88
		c0.48,0.07,1.2,0.15,2.17,0.25c0.96,0.1,1.64,0.18,2.03,0.24c0.39,0.07,0.84,0.17,1.36,0.31c0.52,0.14,0.87,0.34,1.06,0.62
		c0.18,0.27,0.28,0.6,0.28,0.99c0,1.38-1.26,2.29-3.78,2.74c-3.37,0.6-5.7-0.69-7-3.88l-9.49,7.37c0.96,2.93,2.85,5.06,5.66,6.38
		c2.81,1.32,6.33,1.61,10.55,0.86c4.66-0.83,8.36-2.6,11.08-5.32c2.72-2.72,4.08-6.13,4.08-10.23c0-1.99-0.32-3.67-0.97-5.03
		c-0.65-1.36-1.62-2.39-2.91-3.1c-1.3-0.71-2.54-1.22-3.72-1.53c-1.19-0.31-2.7-0.58-4.55-0.83c-2.48-0.29-4.16-0.59-5.03-0.89
		c-0.87-0.31-1.31-0.88-1.31-1.72c0-0.61,0.25-1.17,0.75-1.66c0.5-0.49,1.23-0.82,2.19-0.99c2.48-0.44,4.26,0.66,5.33,3.31
		l9.22-7.21c-1.22-2.81-3.14-4.79-5.75-5.94c-1.73-0.76-3.61-1.14-5.64-1.14C99.08,147,98.01,147.09,96.9,147.29 M113.33,145.3
		v11.15l9.16-1.62v29.08l11.1-1.97v-29.08l9.16-1.62v-11.15L113.33,145.3z M146.65,139.41v40.23l11.1-1.97v-40.23L146.65,139.41z
		 M186.07,132.43l-6.38,26.7l-6.39-24.44l-12.22,2.16l12.38,38.03l12.44-2.2l12.38-42.42L186.07,132.43z M214.94,140.82l3.22,11.78
		l-6.44,1.14L214.94,140.82z M208.45,128.47l-12.38,42.42l11.94-2.11l1.33-5.41l11.22-1.99l1.33,4.94l11.94-2.11l-12.38-38.03
		L208.45,128.47z M247.7,121.52l-11.11,1.97v40.22l25.86-4.51l0.96-11.29l-15.72,2.69V121.52z"/>
	<g>
		
			<linearGradient id="SVGID_2_" gradientUnits="userSpaceOnUse" x1="-635.7189" y1="-504.1024" x2="-635.482" y2="-504.1429" gradientTransform="matrix(943.832 -166.423 0 -973.176 600045.25 -596268.8125)">
			<stop  offset="0" style="stop-color:#F89631"/>
			<stop  offset="0.0645" style="stop-color:#F68C41"/>
			<stop  offset="0.2176" style="stop-color:#F3765A"/>
			<stop  offset="0.373" style="stop-color:#F16166"/>
			<stop  offset="0.5286" style="stop-color:#F04E6D"/>
			<stop  offset="0.6846" style="stop-color:#EE3D72"/>
			<stop  offset="0.8413" style="stop-color:#EE3074"/>
			<stop  offset="1" style="stop-color:#EE2B74"/>
		</linearGradient>
		<path style="fill:url(#SVGID_2_);" d="M90.08,106.81c0.54-0.22,0.97-0.28,1.28-0.16c0.31,0.12,0.51,0.32,0.59,0.6
			c0.08,0.29,0.04,0.63-0.13,1.02c-0.17,0.4-0.46,0.76-0.88,1.09c-2.34,1.92-4.76,3.59-7.29,5.03c-2.52,1.43-4.99,2.49-7.41,3.18
			c-0.17,1.84-0.55,3.7-1.16,5.59c-0.6,1.89-1.26,3.65-1.97,5.28c-0.58,1.35-1.26,2.72-2.03,4.1c-0.77,1.38-1.62,2.73-2.53,4.03
			c-0.92,1.3-1.92,2.52-3,3.66c-1.08,1.14-2.25,2.1-3.5,2.87c-2,1.26-3.96,1.89-5.88,1.91c-1.92,0.02-3.62-0.44-5.1-1.36
			c-1.48-0.92-2.63-2.25-3.44-3.97c-0.81-1.73-1.09-3.69-0.84-5.88c0.33-3.28,1.23-6.59,2.69-9.92c1.46-3.33,3.29-6.35,5.5-9.06
			c1.04-1.3,2.18-2.52,3.41-3.66c1.23-1.14,2.55-2.09,3.97-2.86c0.42-0.24,0.92-0.47,1.5-0.68c0.58-0.21,1.18-0.38,1.78-0.51
			c0.6-0.13,1.19-0.18,1.75-0.15c0.56,0.03,1.07,0.16,1.53,0.37c1.08-0.1,2.13,0.11,3.13,0.64c1,0.53,1.85,1.25,2.56,2.16
			c2.84,0.06,5.47-0.21,7.91-0.81C84.98,108.7,87.49,107.87,90.08,106.81z M58.3,124.99c-0.96,1.8-1.73,3.64-2.31,5.5
			c-0.58,1.87-0.94,3.45-1.06,4.77c-0.13,1.31,0.03,2.18,0.47,2.59c0.44,0.42,1.24,0.07,2.41-1.04c1-0.99,1.91-2,2.72-3.03
			c0.81-1.02,1.59-2.14,2.35-3.35c0.79-1.21,1.52-2.47,2.19-3.77c0.67-1.3,1.25-2.62,1.75-3.95c0.21-0.64,0.42-1.31,0.63-2.01
			c0.21-0.7,0.35-1.45,0.44-2.24c-0.63-0.1-1.22-0.31-1.78-0.62c-0.56-0.31-1.09-0.78-1.59-1.43c-1.25,1.21-2.4,2.56-3.44,4.06
			C60.01,121.97,59.09,123.47,58.3,124.99z M94.08,109.91c-1.08,1.05-2.14,2.54-3.16,4.46c-1.02,1.92-1.96,3.95-2.81,6.07
			c-0.86,2.13-1.61,4.2-2.25,6.2c-0.65,2.01-1.12,3.64-1.41,4.89c-0.21,0.85-0.25,1.4-0.13,1.63s0.35,0.28,0.69,0.14
			c0.33-0.14,0.73-0.43,1.19-0.85c0.46-0.42,0.91-0.88,1.34-1.37c0.44-0.49,0.83-0.93,1.19-1.34c0.35-0.41,0.59-0.69,0.72-0.84
			c2.63-3.09,4.98-6.06,7.07-8.92c2.08-2.86,3.86-5.8,5.32-8.81c-1.13-0.83-1.75-1.92-1.88-3.25s0.08-2.59,0.63-3.79
			c0.54-1.19,1.33-2.18,2.38-2.97c1.04-0.79,2.19-1.07,3.44-0.86c1.13,0.23,2.01,0.67,2.66,1.3c0.65,0.64,1.12,1.41,1.41,2.3
			c2.04,0.11,4.07-0.13,6.07-0.72c2-0.59,3.86-1.16,5.57-1.72c0.58-0.19,1.06-0.25,1.44-0.19c0.38,0.06,0.63,0.23,0.75,0.51
			c0.13,0.28,0.09,0.62-0.09,1.02c-0.19,0.4-0.55,0.84-1.09,1.32c-0.67,0.59-1.51,1.22-2.53,1.9c-1.02,0.68-2.13,1.35-3.32,2.04
			c-1.19,0.68-2.43,1.32-3.72,1.91c-1.29,0.59-2.52,1.08-3.69,1.46c-0.54,1.69-1.19,3.28-1.94,4.79c-1.59,3.25-3.47,6.41-5.66,9.48
			c-2.19,3.07-4.6,5.87-7.22,8.4c-0.79,0.74-1.73,1.52-2.81,2.33c-1.08,0.82-2.21,1.54-3.38,2.18c-1.17,0.64-2.34,1.1-3.5,1.39
			c-1.17,0.29-2.25,0.29-3.25-0.01c-1.71-0.47-2.93-1.36-3.66-2.68c-0.73-1.31-1.14-2.82-1.22-4.53c-0.08-1.7,0.05-3.46,0.41-5.26
			c0.35-1.8,0.78-3.46,1.28-4.97c1.33-3.93,3-7.73,5-11.39c0.75-1.34,1.57-2.7,2.47-4.08c0.9-1.38,1.95-2.55,3.16-3.49
			c0.71-0.55,1.42-0.88,2.13-0.99c0.71-0.1,1.35-0.03,1.94,0.21c0.58,0.24,1.07,0.62,1.47,1.13c0.4,0.51,0.65,1.09,0.75,1.74
			c0.1,0.65,0.02,1.34-0.25,2.08C95.28,108.51,94.79,109.23,94.08,109.91z M119.47,124.97c1,0.6,2.14,0.77,3.41,0.53
			c1.27-0.25,2.6-0.75,3.97-1.51s2.76-1.7,4.16-2.83c1.4-1.13,2.72-2.3,3.97-3.51c1.25-1.21,2.38-2.39,3.38-3.53
			c1-1.14,1.79-2.11,2.38-2.9c0.42-0.59,0.83-0.95,1.25-1.09c0.42-0.14,0.76-0.11,1.03,0.08c0.27,0.19,0.44,0.53,0.5,1.01
			c0.06,0.48-0.03,1.03-0.28,1.63c-2.29,5.18-5.28,9.64-8.94,13.38c-1.17,1.15-2.43,2.25-3.78,3.28c-1.36,1.04-2.76,1.92-4.22,2.65
			c-1.46,0.73-2.94,1.26-4.44,1.59c-1.5,0.33-3,0.35-4.5,0.05c-1.79-0.33-3.22-0.98-4.28-1.95s-1.82-2.14-2.28-3.5
			c-0.46-1.36-0.66-2.87-0.59-4.54c0.06-1.67,0.31-3.37,0.75-5.1c0.44-1.73,1.02-3.44,1.75-5.11c0.73-1.68,1.51-3.21,2.35-4.61
			c0.83-1.35,1.76-2.71,2.78-4.07c1.02-1.36,2.14-2.63,3.35-3.81c1.21-1.18,2.49-2.22,3.85-3.13c1.35-0.9,2.78-1.58,4.28-2.01
			c1.75-0.52,3.45-0.55,5.1-0.09c1.65,0.46,2.93,1.43,3.85,2.9c0.88,1.39,1.28,2.91,1.22,4.56c-0.06,1.65-0.44,3.28-1.13,4.91
			c-0.69,1.63-1.62,3.18-2.78,4.65c-1.17,1.47-2.4,2.71-3.69,3.71c-2.13,1.66-4.24,2.76-6.35,3.28c-2.11,0.52-4.22,0.65-6.35,0.38
			c-0.33,1.05-0.51,2-0.53,2.87C118.61,123.99,118.89,124.6,119.47,124.97z M121.54,114.61c1.33-0.11,2.58-0.48,3.75-1.11
			c1.63-0.93,3.02-2.23,4.19-3.9c0.29-0.39,0.65-0.97,1.06-1.74c0.42-0.76,0.69-1.48,0.81-2.14c0.21-0.77,0.13-1.19-0.25-1.28
			c-0.38-0.08-0.81,0-1.31,0.26c-0.71,0.34-1.39,0.84-2.03,1.49c-0.65,0.65-1.22,1.26-1.72,1.82c-0.88,1.01-1.69,2.08-2.44,3.2
			C122.85,112.34,122.16,113.47,121.54,114.61L121.54,114.61z M141.36,104.28c0.42-2.18,1.26-4.32,2.53-6.41
			c1.27-2.09,2.8-4.07,4.6-5.94c1.79-1.86,3.77-3.58,5.94-5.14c2.17-1.56,4.39-2.92,6.66-4.08c2.27-1.15,4.52-2.06,6.76-2.71
			c2.23-0.65,4.28-1.01,6.16-1.09c2.21-0.04,4.25,0.43,6.13,1.43c1.88,1,3.23,2.53,4.07,4.57c0.67,1.65,0.9,3.32,0.69,5.04
			c-0.21,1.71-0.71,3.39-1.5,5.04c-0.79,1.65-1.78,3.22-2.97,4.72c-1.19,1.5-2.45,2.84-3.78,4.02c-0.92,0.81-1.85,1.57-2.78,2.3
			c-0.94,0.72-1.91,1.41-2.91,2.06c0.46,0.87,0.7,1.8,0.72,2.81c0.02,1.01-0.01,2.08-0.09,3.21c-0.13,1.4,0.01,2.25,0.41,2.54
			c0.4,0.3,1.28-0.06,2.66-1.08c0.63-0.45,1.26-1.01,1.91-1.66c0.65-0.65,1.27-1.31,1.88-1.98c0.6-0.66,1.18-1.31,1.72-1.95
			c0.54-0.63,1-1.18,1.38-1.63c0.83-0.92,1.66-1.95,2.47-3.08c0.81-1.13,1.7-2.11,2.66-2.92c0.33-0.27,0.71-0.46,1.13-0.55
			c0.42-0.09,0.75,0.07,1,0.5c0.29,0.42,0.32,0.91,0.09,1.47c-0.23,0.56-0.45,1.09-0.66,1.6c-0.58,1.35-1.29,2.83-2.13,4.44
			c-0.83,1.61-1.76,3.2-2.78,4.78c-1.02,1.58-2.15,3.09-3.38,4.53c-1.23,1.44-2.53,2.65-3.91,3.62c-1.38,0.97-2.83,1.67-4.35,2.09
			c-1.52,0.42-3.08,0.4-4.66-0.05c-1.38-0.36-2.46-1.09-3.25-2.2c-0.79-1.11-1.19-2.48-1.19-4.11c0-0.69,0.06-1.37,0.19-2.03
			c0.13-0.67,0.24-1.3,0.34-1.9c0.1-0.6,0.18-1.16,0.22-1.68c0.04-0.52,0-0.99-0.13-1.4c-0.96,0.26-2.01,0.44-3.16,0.56
			c-1.15,0.12-2.12,0.05-2.91-0.2c-1.21,2.23-2.23,4.45-3.06,6.64c-0.83,2.19-1.67,4.43-2.5,6.73c-0.17,0.46-0.37,0.93-0.59,1.39
			c-0.23,0.47-0.5,0.87-0.81,1.21c-0.31,0.34-0.68,0.58-1.09,0.74c-0.42,0.16-0.88,0.18-1.38,0.05c-0.46-0.09-0.84-0.31-1.16-0.67
			c-0.31-0.35-0.57-0.76-0.78-1.22c-0.21-0.46-0.38-0.93-0.5-1.43s-0.21-0.95-0.25-1.37c-0.17-1.3-0.13-2.66,0.13-4.09
			c0.25-1.42,0.63-2.83,1.13-4.23c0.5-1.4,1.07-2.78,1.72-4.14c0.65-1.36,1.32-2.66,2.03-3.91c0.75-1.29,1.58-2.64,2.5-4.05
			c0.92-1.41,1.91-2.78,2.97-4.1c1.06-1.33,2.19-2.55,3.38-3.66c1.19-1.11,2.45-2.02,3.78-2.73c0.67-0.38,1.3-0.58,1.91-0.63
			c0.6-0.04,1.08,0.08,1.44,0.36c0.35,0.28,0.55,0.72,0.59,1.31c0.04,0.6-0.15,1.32-0.56,2.16c-1.13,2.39-2.36,4.67-3.69,6.84
			c0.58-0.19,1.13-0.3,1.63-0.32c0.5-0.02,0.98-0.01,1.44,0.04c0.5-0.26,1.16-0.7,1.97-1.31c0.81-0.62,1.65-1.33,2.5-2.15
			c0.85-0.82,1.69-1.68,2.5-2.6c0.81-0.92,1.51-1.82,2.1-2.72c0.58-0.9,0.98-1.76,1.19-2.6c0.21-0.83,0.15-1.56-0.19-2.19
			c-0.33-0.59-0.83-0.96-1.5-1.12c-0.67-0.16-1.41-0.18-2.22-0.06c-0.81,0.12-1.66,0.32-2.53,0.61c-0.88,0.28-1.71,0.58-2.5,0.89
			c-1.88,0.72-3.78,1.65-5.72,2.78c-1.94,1.14-3.83,2.43-5.66,3.87c-1.84,1.44-3.57,3.01-5.19,4.72c-1.63,1.71-3.04,3.48-4.25,5.33
			c-0.58,0.88-1.18,1.43-1.78,1.67c-0.6,0.24-1.14,0.23-1.6-0.01c-0.46-0.24-0.81-0.67-1.06-1.3
			C141.18,105.94,141.16,105.18,141.36,104.28z M203.29,90.85c-0.88,0.97-1.86,2.19-2.94,3.65c-1.08,1.46-2.15,3.01-3.19,4.66
			c-1.04,1.65-2.03,3.33-2.97,5.04c-0.94,1.71-1.68,3.31-2.22,4.78c-0.33,0.88-0.47,1.5-0.41,1.88c0.06,0.38,0.24,0.58,0.53,0.62
			c0.29,0.04,0.66-0.08,1.09-0.35c0.44-0.27,0.86-0.64,1.28-1.1c1.67-1.71,3.2-3.44,4.6-5.2c1.4-1.75,2.76-3.53,4.1-5.33
			c1.33-1.8,2.68-3.65,4.03-5.55c1.35-1.89,2.78-3.85,4.28-5.88c0.63-0.84,1.26-1.71,1.91-2.59c0.65-0.89,1.34-1.7,2.1-2.43
			c0.75-0.73,1.55-1.34,2.41-1.81c0.85-0.47,1.8-0.74,2.85-0.79c0.96-0.04,1.67,0.28,2.13,0.95c0.46,0.67,0.6,1.45,0.44,2.34
			c-0.17,1.02-0.45,2.01-0.84,2.99c-0.4,0.97-0.86,1.94-1.38,2.89c-0.52,0.95-1.06,1.9-1.63,2.83c-0.56,0.94-1.12,1.86-1.66,2.78
			c-0.63,1.06-1.29,2.18-2,3.38c-0.71,1.2-1.4,2.41-2.06,3.62c-0.67,1.21-1.24,2.41-1.72,3.59c-0.48,1.18-0.78,2.26-0.91,3.22
			c-0.08,0.62,0.04,0.98,0.38,1.09c0.33,0.11,0.75,0.02,1.25-0.29c0.88-0.54,1.89-1.42,3.03-2.63c1.15-1.21,2.3-2.53,3.47-3.97
			c1.17-1.43,2.27-2.85,3.32-4.26c1.04-1.41,1.88-2.53,2.5-3.38c0.29-0.39,0.63-0.65,1-0.76c0.38-0.11,0.69-0.08,0.94,0.09
			c0.25,0.17,0.4,0.49,0.44,0.95c0.04,0.47-0.15,1.06-0.56,1.78c-0.83,1.48-1.81,3.24-2.94,5.29c-1.13,2.05-2.37,4.06-3.72,6.04
			c-1.36,1.98-2.81,3.76-4.38,5.35c-1.56,1.59-3.18,2.66-4.85,3.21c-1.59,0.5-3.06,0.48-4.44-0.06c-1.38-0.53-2.4-1.47-3.06-2.81
			c-0.67-1.3-0.95-2.73-0.84-4.3c0.1-1.57,0.39-3.14,0.84-4.73c-1.34,2.6-2.78,5.18-4.35,7.73c-1.56,2.56-3.45,4.69-5.66,6.42
			c-1.38,1.06-2.85,1.72-4.41,1.97c-1.56,0.25-2.95-0.05-4.16-0.91c-1.33-0.97-2.15-2.24-2.44-3.83c-0.29-1.58-0.26-3.25,0.09-5.01
			c0.35-1.76,0.9-3.53,1.63-5.32c0.73-1.78,1.45-3.38,2.16-4.8c0.67-1.41,1.48-2.96,2.44-4.65c0.96-1.69,2-3.37,3.13-5.03
			c1.13-1.66,2.3-3.2,3.53-4.62c1.23-1.42,2.47-2.56,3.72-3.43c1.13-0.76,2.17-1.06,3.13-0.91c0.96,0.15,1.69,0.61,2.19,1.36
			c0.5,0.75,0.69,1.7,0.56,2.84C204.91,88.58,204.33,89.72,203.29,90.85z M239.57,83.67c-0.08,0.36-0.17,0.67-0.25,0.95
			c0.63-0.88,1.27-1.75,1.94-2.6c0.67-0.85,1.35-1.68,2.06-2.49c0.79-0.87,1.68-1.7,2.66-2.5c0.98-0.8,1.98-1.41,3-1.85
			c1.02-0.44,2.05-0.65,3.1-0.64c1.04,0.01,2.04,0.36,3,1.05c0.83,0.58,1.41,1.32,1.72,2.21c0.31,0.89,0.45,1.85,0.41,2.86
			c-0.04,1.02-0.21,2.06-0.5,3.12c-0.29,1.06-0.65,2.08-1.06,3.06c-0.67,1.62-1.42,3.18-2.25,4.69c-0.83,1.5-1.67,3.01-2.5,4.54
			c-0.13,0.24-0.37,0.66-0.72,1.26c-0.35,0.6-0.73,1.27-1.13,2c-0.4,0.74-0.77,1.48-1.13,2.23c-0.35,0.75-0.57,1.35-0.66,1.79
			c-0.08,0.45,0,0.68,0.25,0.7c0.25,0.02,0.77-0.3,1.56-0.95c0.88-0.67,1.85-1.6,2.91-2.8c1.06-1.2,2.13-2.47,3.19-3.82
			c1.06-1.35,2.07-2.67,3.03-3.95c0.96-1.29,1.77-2.35,2.44-3.2c0.38-0.5,0.73-0.82,1.06-0.96c0.33-0.14,0.61-0.16,0.84-0.05
			c0.23,0.11,0.36,0.34,0.41,0.7c0.04,0.36-0.04,0.77-0.25,1.24c-0.38,0.88-0.89,1.91-1.53,3.08c-0.65,1.17-1.34,2.37-2.1,3.59
			c-0.75,1.23-1.51,2.44-2.28,3.63c-0.77,1.19-1.47,2.23-2.1,3.11c-0.71,1.03-1.51,2.08-2.41,3.17c-0.9,1.08-1.86,2.03-2.88,2.83
			c-1.02,0.8-2.1,1.39-3.22,1.76c-1.13,0.37-2.31,0.37-3.57-0.02c-1.21-0.39-2.12-1.01-2.72-1.87c-0.6-0.86-0.98-1.86-1.13-2.99
			c-0.15-1.14-0.1-2.34,0.13-3.6c0.23-1.27,0.57-2.48,1.03-3.63c0.58-1.56,1.27-3.08,2.06-4.56c0.79-1.47,1.6-2.93,2.44-4.36
			c0.54-0.91,1.12-1.85,1.72-2.82c0.6-0.97,1.16-1.92,1.66-2.87c0.46-0.77,0.65-1.24,0.56-1.42c-0.08-0.18-0.32-0.17-0.72,0.03
			c-0.4,0.2-0.89,0.53-1.47,1c-0.58,0.47-1.16,0.95-1.72,1.43c-0.56,0.49-1.05,0.93-1.47,1.32c-0.42,0.4-0.67,0.62-0.75,0.68
			c-2.63,2.53-5.07,5.32-7.32,8.38c-1.59,2.13-3.02,4.35-4.32,6.66c-1.29,2.31-2.29,4.72-3,7.2c-0.21,0.6-0.33,1.13-0.38,1.61
			c-0.04,0.48-0.17,0.98-0.38,1.49c-0.25,0.6-0.6,1.1-1.06,1.48c-0.46,0.38-0.96,0.65-1.5,0.81c-0.54,0.16-1.09,0.22-1.66,0.16
			c-0.56-0.05-1.07-0.21-1.53-0.47c-1.13-0.62-1.75-1.59-1.88-2.93c-0.13-1.33,0.01-2.79,0.41-4.36c0.4-1.57,0.93-3.13,1.6-4.67
			c0.67-1.54,1.23-2.8,1.69-3.78c0.63-1.31,1.34-2.62,2.13-3.92c0.79-1.3,1.58-2.62,2.38-3.97c0.79-1.34,1.54-2.71,2.25-4.11
			c0.71-1.39,1.31-2.82,1.81-4.29c0.21-0.94,0.58-1.7,1.13-2.29c0.54-0.59,1.15-1.02,1.81-1.29c0.67-0.27,1.34-0.38,2.03-0.33
			c0.69,0.05,1.3,0.25,1.85,0.61c0.54,0.36,0.94,0.87,1.19,1.53C239.75,81.93,239.77,82.73,239.57,83.67z"/>
	</g>
	<linearGradient id="SVGID_3_" gradientUnits="userSpaceOnUse" x1="28.043" y1="208.9849" x2="262.4618" y2="208.9849">
		<stop  offset="0" style="stop-color:#F89631"/>
		<stop  offset="0.0645" style="stop-color:#F68C41"/>
		<stop  offset="0.2176" style="stop-color:#F3765A"/>
		<stop  offset="0.373" style="stop-color:#F16166"/>
		<stop  offset="0.5286" style="stop-color:#F04E6D"/>
		<stop  offset="0.6846" style="stop-color:#EE3D72"/>
		<stop  offset="0.8413" style="stop-color:#EE3074"/>
		<stop  offset="1" style="stop-color:#EE2B74"/>
	</linearGradient>
	<path style="fill:url(#SVGID_3_);" d="M254.31,152.54c-4.71,28.7-19.54,55-41.75,74.04c-22.45,19.25-51.13,29.84-80.75,29.84
		c-37.19,0-72.1-16.47-95.8-45.18c-1.58-1.92-4.42-2.19-6.33-0.61c-1.92,1.58-2.19,4.42-0.61,6.33
		c25.41,30.79,62.86,48.45,102.74,48.45c31.76,0,62.52-11.37,86.6-32.01c22.97-19.69,38.43-44.71,44.05-74.21
		C262.46,159.2,254.29,152.71,254.31,152.54z"/>
	<linearGradient id="SVGID_4_" gradientUnits="userSpaceOnUse" x1="14.1128" y1="76.4421" x2="231.4446" y2="76.4421">
		<stop  offset="0" style="stop-color:#F89631"/>
		<stop  offset="0.0447" style="stop-color:#F7913A"/>
		<stop  offset="0.2847" style="stop-color:#F3765A"/>
		<stop  offset="0.5084" style="stop-color:#F15D68"/>
		<stop  offset="0.7092" style="stop-color:#EF4570"/>
		<stop  offset="0.8798" style="stop-color:#EE3473"/>
		<stop  offset="1" style="stop-color:#EE2B74"/>
	</linearGradient>
	<path style="fill:url(#SVGID_4_);" d="M245.25,60.66C223.15,21.7,183.13,0,138.38,0C86.79,0,41.44,32.19,22.52,79.29l0-0.01
		c0,0-6.07,13.42-4.25,21.95c0.46,2.92,1.63,5.64,3.97,8.12c3.01,3.2,8.85,4.69,14.07,4.93c-1.77,4.41-3.79,8.71-6.14,12.85
		c-0.65,1.14-1.34,2.37-2.08,3.65c-6.38-1.62-12.82-2.28-19.53,0.33c-5.18,2.01-9.48,6.64-8.38,12.53c1.16,6.22,7.22,9.71,13.24,9.2
		c7.01-0.59,12.06-5.96,16.09-11.19c0.62-0.8,1.22-1.62,1.81-2.44c7.23,2.14,14.31,5.01,21.92,5.3c4.83,0.18,4.82-7.32,0-7.5
		c-6.06-0.23-11.94-2.18-17.81-4.05c1.97-3.27,3.75-6.65,5.34-10.13c2.15-4.69,3.85-9.44,5.33-14.25
		c8.76-4.51,15.98-11.76,20.04-20.9c2.4-5.39,4.1-11.82,0.57-17.14c-3.18-4.79-9.28-5.57-13.97-2.6
		c-5.56,3.52-6.57,10.24-7.79,16.18c-1.32,6.4-2.87,12.76-4.78,19.01c-0.94,0.39-1.89,0.75-2.85,1.07c-2.92,0.7-5.96,0.51-8.02-1.91
		c-2.03-2.37-1.78-5.83-1.11-9.07c0.01-0.05,0.02-0.09,0.03-0.14C42.19,44.11,87.31,10,138.38,10c41.16,0,77.85,19.76,98.18,55.6
		c1.36,2.4,4.42,3.25,6.82,1.88C245.77,66.11,246.62,63.06,245.25,60.66z M15.18,144.69c-3.06,1.19-8.54,0.51-7.15-3.69
		c0.77-2.32,3.28-3.06,5.5-3.59c3.34-0.8,6.85-0.61,10.26-0.03C21.36,140.6,18.52,143.39,15.18,144.69z M53.36,80.48
		c0.55-2.11,1.43-5.54,3.76-6.46c3.88-1.53,4.43,3.18,3.93,5.7c-0.76,3.78-2.79,7.47-4.96,10.6c-1.98,2.85-4.35,5.37-7.02,7.51
		C50.52,92.09,51.84,86.3,53.36,80.48z"/>
</g>
</svg>
