<?xml version="1.0" encoding="utf-8"?>
<!-- Generator: Adobe Illustrator 23.0.1, SVG Export Plug-In . SVG Version: 6.00 Build 0)  -->
<svg version="1.1" id="Calque_1" xmlns="http://www.w3.org/2000/svg" xmlns:xlink="http://www.w3.org/1999/xlink" x="0px" y="0px"
	 viewBox="0 0 285.5 299" style="enable-background:new 0 0 285.5 299;" xml:space="preserve">
<style type="text/css">
	.st0{fill:#FFFFFF;}
	.st1{fill:url(#SVGID_1_);}
	.st2{fill:url(#SVGID_2_);}
	.st3{fill:url(#SVGID_3_);}
	.st4{fill:#EE2B74;}
	.st5{fill:none;}
	.st6{fill:url(#SVGID_4_);}
	.st7{fill:url(#SVGID_5_);}
	.st8{fill:url(#SVGID_6_);}
	.st9{fill:url(#SVGID_7_);}
	.st10{fill:url(#SVGID_8_);}
	.st11{fill:url(#SVGID_9_);}
	.st12{fill:url(#SVGID_10_);}
	.st13{fill:url(#SVGID_11_);}
</style>
<path class="st0" d="M277.1,150.1c-1.5-1.3-3.3-1.9-5.2-1.9c-0.5,0-0.9,0-1.4,0.1l-6.3,1.1v-19.6c0-1.7-0.5-3.3-1.5-4.7
	c0.3-0.2,0.5-0.4,0.8-0.6c1.7-1.3,3-2.6,4.1-4c1.2-1.4,2.1-2.8,2.8-3.7c0,0,0.1-0.1,0.1-0.2c0.3-0.4,0.5-0.8,0.8-1.3
	c0.4-0.6,0.8-1.2,1.3-1.8c0.5-0.7,0.9-1.4,1.3-2c0.3-0.5,0.7-1.1,1-1.6c1-1.5,1.9-3,2.6-4.5c0.5-1.1,1-2,1.4-2.9
	c1.2-2.2,1.2-4.2,1.2-5c0-3.4-1.8-6.4-4.8-7.9c-0.3-0.1-0.6-0.3-0.9-0.4c0-1.3-0.1-3.2-0.8-5.4c-0.8-2.4-2.3-4.4-4.5-6.1
	c-0.1-0.1-0.1-0.1-0.2-0.2c-2-1.4-4.1-2.2-6.2-2.5c0,0,0,0,0-0.1c0.9-3.3,0.5-6.8-1.3-9.8c-11.5-20.2-28-36.8-48-48
	c-19.5-11-42.3-16.7-65.9-16.7c-26.7,0-52.5,8.1-74.7,23.4C51.1,39.3,34.4,60.3,24.4,85c-1.3,3-6.9,16.2-4.8,26.6
	c0.8,4.8,2.8,8.7,6.1,12.1c2.4,2.5,5.4,4.2,8.4,5.3c-0.3,0.5-0.6,1.1-0.8,1.6c-2.1-0.3-4.1-0.5-6-0.5c-4.3,0-8.4,0.7-12.3,2.3
	c-9.7,3.7-15.1,12.3-13.4,21.4c0,0,0,0,0,0.1c1.8,9.3,10,15.7,19.9,15.7c0.6,0,1.2,0,1.8-0.1c0.3,0,0.6-0.1,0.8-0.1c0,0,0,0,0,0
	v40.2c0,1.3,0.3,2.6,0.9,3.7c-6.2,3.6-8.2,11.6-4.6,17.7c11.9,20.5,29.2,37.7,49.9,49.9c21.3,12.4,45.5,19,70.3,19
	c36.5,0,70.9-13.9,97-39.3c24.9-24.2,39.7-56.4,41.8-91.1c0.2-0.7,0.3-1.4,0.3-2.1l0.2-11.2C279.9,154,278.9,151.7,277.1,150.1z"/>
<g id="FOND_FONCE">
</g>
<g>
	<g>
		<g>
			
				<linearGradient id="SVGID_1_" gradientUnits="userSpaceOnUse" x1="-1496.8668" y1="1186.7488" x2="-1496.63" y2="1186.7893" gradientTransform="matrix(943.832 -166.423 0 973.176 1412833.625 -1403910.125)">
				<stop  offset="0" style="stop-color:#F89631"/>
				<stop  offset="6.450558e-02" style="stop-color:#F68C41"/>
				<stop  offset="0.2176" style="stop-color:#F3765A"/>
				<stop  offset="0.373" style="stop-color:#F16166"/>
				<stop  offset="0.5286" style="stop-color:#F04E6D"/>
				<stop  offset="0.6846" style="stop-color:#EE3D72"/>
				<stop  offset="0.8413" style="stop-color:#EE3074"/>
				<stop  offset="1" style="stop-color:#EE2B74"/>
			</linearGradient>
			<path class="st1" d="M99.4,115.6c0.5-0.2,1-0.3,1.3-0.2c0.3,0.1,0.5,0.3,0.6,0.6c0.1,0.3,0,0.6-0.1,1c-0.2,0.4-0.5,0.8-0.9,1.1
				c-2.3,1.9-4.8,3.6-7.3,5s-5,2.5-7.4,3.2c-0.2,1.8-0.6,3.7-1.2,5.6s-1.3,3.7-2,5.3c-0.6,1.4-1.3,2.7-2,4.1c-0.8,1.4-1.6,2.7-2.5,4
				s-1.9,2.5-3,3.7c-1.1,1.1-2.3,2.1-3.5,2.9c-2,1.3-4,1.9-5.9,1.9s-3.6-0.4-5.1-1.4c-1.5-0.9-2.6-2.2-3.4-4
				c-0.8-1.7-1.1-3.7-0.8-5.9c0.3-3.3,1.2-6.6,2.7-9.9c1.5-3.3,3.3-6.4,5.5-9.1c1-1.3,2.2-2.5,3.4-3.7c1.2-1.1,2.6-2.1,4-2.9
				c0.4-0.2,0.9-0.5,1.5-0.7s1.2-0.4,1.8-0.5c0.6-0.1,1.2-0.2,1.8-0.1c0.6,0,1.1,0.2,1.5,0.4c1.1-0.1,2.1,0.1,3.1,0.6
				s1.9,1.3,2.6,2.2c2.8,0.1,5.5-0.2,7.9-0.8C94.3,117.5,96.8,116.7,99.4,115.6z M67.6,133.8c-1,1.8-1.7,3.6-2.3,5.5
				c-0.6,1.9-0.9,3.5-1.1,4.8c-0.1,1.3,0,2.2,0.5,2.6c0.4,0.4,1.2,0.1,2.4-1c1-1,1.9-2,2.7-3c0.8-1,1.6-2.1,2.3-3.3
				c0.8-1.2,1.5-2.5,2.2-3.8s1.3-2.6,1.8-4c0.2-0.6,0.4-1.3,0.6-2s0.4-1.4,0.4-2.2c-0.6-0.1-1.2-0.3-1.8-0.6
				c-0.6-0.3-1.1-0.8-1.6-1.4c-1.3,1.2-2.4,2.6-3.4,4.1C69.3,130.8,68.4,132.3,67.6,133.8z M103.4,118.7c-1.1,1.1-2.1,2.5-3.2,4.5
				c-1,1.9-2,3.9-2.8,6.1c-0.9,2.1-1.6,4.2-2.3,6.2c-0.6,2-1.1,3.6-1.4,4.9c-0.2,0.9-0.3,1.4-0.1,1.6c0.1,0.2,0.4,0.3,0.7,0.1
				c0.3-0.1,0.7-0.4,1.2-0.9c0.5-0.4,0.9-0.9,1.3-1.4s0.8-0.9,1.2-1.3c0.4-0.4,0.6-0.7,0.7-0.8c2.6-3.1,5-6.1,7.1-8.9
				c2.1-2.9,3.9-5.8,5.3-8.8c-1.1-0.8-1.8-1.9-1.9-3.2s0.1-2.6,0.6-3.8c0.5-1.2,1.3-2.2,2.4-3c1-0.8,2.2-1.1,3.4-0.9
				c1.1,0.2,2,0.7,2.7,1.3c0.6,0.6,1.1,1.4,1.4,2.3c2,0.1,4.1-0.1,6.1-0.7s3.9-1.2,5.6-1.7c0.6-0.2,1.1-0.3,1.4-0.2
				c0.4,0.1,0.6,0.2,0.8,0.5c0.1,0.3,0.1,0.6-0.1,1c-0.2,0.4-0.6,0.8-1.1,1.3c-0.7,0.6-1.5,1.2-2.5,1.9c-1,0.7-2.1,1.4-3.3,2
				c-1.2,0.7-2.4,1.3-3.7,1.9c-1.3,0.6-2.5,1.1-3.7,1.5c-0.5,1.7-1.2,3.3-1.9,4.8c-1.6,3.2-3.5,6.4-5.7,9.5
				c-2.2,3.1-4.6,5.9-7.2,8.4c-0.8,0.7-1.7,1.5-2.8,2.3c-1.1,0.8-2.2,1.5-3.4,2.2c-1.2,0.6-2.3,1.1-3.5,1.4c-1.2,0.3-2.3,0.3-3.3,0
				c-1.7-0.5-2.9-1.4-3.7-2.7c-0.7-1.3-1.1-2.8-1.2-4.5s0.1-3.5,0.4-5.3c0.4-1.8,0.8-3.5,1.3-5c1.3-3.9,3-7.7,5-11.4
				c0.8-1.3,1.6-2.7,2.5-4.1s1.9-2.5,3.2-3.5c0.7-0.6,1.4-0.9,2.1-1s1.4,0,1.9,0.2c0.6,0.2,1.1,0.6,1.5,1.1s0.6,1.1,0.8,1.7
				c0.1,0.6,0,1.3-0.3,2.1C104.6,117.3,104.1,118.1,103.4,118.7z M128.8,133.8c1,0.6,2.1,0.8,3.4,0.5c1.3-0.2,2.6-0.7,4-1.5
				s2.8-1.7,4.2-2.8s2.7-2.3,4-3.5s2.4-2.4,3.4-3.5s1.8-2.1,2.4-2.9c0.4-0.6,0.8-1,1.3-1.1c0.4-0.1,0.8-0.1,1,0.1
				c0.3,0.2,0.4,0.5,0.5,1s0,1-0.3,1.6c-2.3,5.2-5.3,9.6-8.9,13.4c-1.2,1.2-2.4,2.2-3.8,3.3c-1.4,1-2.8,1.9-4.2,2.6
				c-1.5,0.7-2.9,1.3-4.4,1.6s-3,0.3-4.5,0.1c-1.8-0.3-3.2-1-4.3-2s-1.8-2.1-2.3-3.5s-0.7-2.9-0.6-4.5c0.1-1.7,0.3-3.4,0.8-5.1
				c0.4-1.7,1-3.4,1.8-5.1c0.7-1.7,1.5-3.2,2.3-4.6s1.8-2.7,2.8-4.1c1-1.4,2.1-2.6,3.3-3.8c1.2-1.2,2.5-2.2,3.8-3.1
				c1.4-0.9,2.8-1.6,4.3-2c1.8-0.5,3.4-0.6,5.1-0.1c1.6,0.5,2.9,1.4,3.8,2.9c0.9,1.4,1.3,2.9,1.2,4.6c-0.1,1.6-0.4,3.3-1.1,4.9
				c-0.7,1.6-1.6,3.2-2.8,4.7s-2.4,2.7-3.7,3.7c-2.1,1.7-4.2,2.8-6.3,3.3s-4.2,0.6-6.3,0.4c-0.3,1-0.5,2-0.5,2.9
				C127.9,132.8,128.2,133.4,128.8,133.8z M130.8,123.4c1.3-0.1,2.6-0.5,3.8-1.1c1.6-0.9,3-2.2,4.2-3.9c0.3-0.4,0.6-1,1.1-1.7
				c0.4-0.8,0.7-1.5,0.8-2.1c0.2-0.8,0.1-1.2-0.3-1.3c-0.4-0.1-0.8,0-1.3,0.3c-0.7,0.3-1.4,0.8-2,1.5s-1.2,1.3-1.7,1.8
				c-0.9,1-1.7,2.1-2.4,3.2C132.1,121.2,131.4,122.3,130.8,123.4L130.8,123.4z M150.6,113.1c0.4-2.2,1.3-4.3,2.5-6.4
				c1.3-2.1,2.8-4.1,4.6-5.9c1.8-1.9,3.8-3.6,5.9-5.1c2.2-1.6,4.4-2.9,6.7-4.1s4.5-2.1,6.8-2.7c2.2-0.7,4.3-1,6.2-1.1
				c2.2,0,4.3,0.4,6.1,1.4c1.9,1,3.2,2.5,4.1,4.6c0.7,1.6,0.9,3.3,0.7,5s-0.7,3.4-1.5,5s-1.8,3.2-3,4.7s-2.5,2.8-3.8,4
				c-0.9,0.8-1.8,1.6-2.8,2.3c-0.9,0.7-1.9,1.4-2.9,2.1c0.5,0.9,0.7,1.8,0.7,2.8s0,2.1-0.1,3.2c-0.1,1.4,0,2.2,0.4,2.5
				s1.3-0.1,2.7-1.1c0.6-0.5,1.3-1,1.9-1.7c0.6-0.7,1.3-1.3,1.9-2c0.6-0.7,1.2-1.3,1.7-1.9s1-1.2,1.4-1.6c0.8-0.9,1.7-1.9,2.5-3.1
				c0.8-1.1,1.7-2.1,2.7-2.9c0.3-0.3,0.7-0.5,1.1-0.6c0.4-0.1,0.8,0.1,1,0.5c0.3,0.4,0.3,0.9,0.1,1.5s-0.4,1.1-0.7,1.6
				c-0.6,1.4-1.3,2.8-2.1,4.4s-1.8,3.2-2.8,4.8c-1,1.6-2.1,3.1-3.4,4.5c-1.2,1.4-2.5,2.7-3.9,3.6c-1.4,1-2.8,1.7-4.3,2.1
				c-1.5,0.4-3.1,0.4-4.7,0c-1.4-0.4-2.5-1.1-3.3-2.2c-0.8-1.1-1.2-2.5-1.2-4.1c0-0.7,0.1-1.4,0.2-2c0.1-0.7,0.2-1.3,0.3-1.9
				s0.2-1.2,0.2-1.7s0-1-0.1-1.4c-1,0.3-2,0.4-3.2,0.6c-1.1,0.1-2.1,0.1-2.9-0.2c-1.2,2.2-2.2,4.4-3.1,6.6c-0.8,2.2-1.7,4.4-2.5,6.7
				c-0.2,0.5-0.4,0.9-0.6,1.4c-0.2,0.5-0.5,0.9-0.8,1.2s-0.7,0.6-1.1,0.7c-0.4,0.2-0.9,0.2-1.4,0c-0.5-0.1-0.8-0.3-1.2-0.7
				c-0.3-0.4-0.6-0.8-0.8-1.2c-0.2-0.5-0.4-0.9-0.5-1.4s-0.2-1-0.3-1.4c-0.2-1.3-0.1-2.7,0.1-4.1c0.3-1.4,0.6-2.8,1.1-4.2
				c0.5-1.4,1.1-2.8,1.7-4.1c0.6-1.4,1.3-2.7,2-3.9c0.8-1.3,1.6-2.6,2.5-4.1c0.9-1.4,1.9-2.8,3-4.1c1.1-1.3,2.2-2.5,3.4-3.7
				c1.2-1.1,2.4-2,3.8-2.7c0.7-0.4,1.3-0.6,1.9-0.6c0.6,0,1.1,0.1,1.4,0.4c0.4,0.3,0.6,0.7,0.6,1.3c0,0.6-0.1,1.3-0.6,2.2
				c-1.1,2.4-2.4,4.7-3.7,6.8c0.6-0.2,1.1-0.3,1.6-0.3s1,0,1.4,0c0.5-0.3,1.2-0.7,2-1.3c0.8-0.6,1.6-1.3,2.5-2.2
				c0.9-0.8,1.7-1.7,2.5-2.6s1.5-1.8,2.1-2.7c0.6-0.9,1-1.8,1.2-2.6c0.2-0.8,0.1-1.6-0.2-2.2s-0.8-1-1.5-1.1
				c-0.7-0.2-1.4-0.2-2.2-0.1s-1.7,0.3-2.5,0.6c-0.9,0.3-1.7,0.6-2.5,0.9c-1.9,0.7-3.8,1.6-5.7,2.8c-1.9,1.1-3.8,2.4-5.7,3.9
				c-1.8,1.4-3.6,3-5.2,4.7c-1.6,1.7-3,3.5-4.3,5.3c-0.6,0.9-1.2,1.4-1.8,1.7c-0.6,0.2-1.1,0.2-1.6,0s-0.8-0.7-1.1-1.3
				C150.5,114.8,150.4,114,150.6,113.1z M212.6,99.7c-0.9,1-1.9,2.2-2.9,3.6c-1.1,1.5-2.1,3-3.2,4.7c-1,1.6-2,3.3-3,5
				c-0.9,1.7-1.7,3.3-2.2,4.8c-0.3,0.9-0.5,1.5-0.4,1.9s0.2,0.6,0.5,0.6s0.7-0.1,1.1-0.4c0.4-0.3,0.9-0.6,1.3-1.1
				c1.7-1.7,3.2-3.4,4.6-5.2c1.4-1.8,2.8-3.5,4.1-5.3s2.7-3.7,4-5.5c1.4-1.9,2.8-3.9,4.3-5.9c0.6-0.8,1.3-1.7,1.9-2.6
				c0.6-0.9,1.3-1.7,2.1-2.4c0.8-0.7,1.6-1.3,2.4-1.8c0.9-0.5,1.8-0.7,2.8-0.8c1,0,1.7,0.3,2.1,0.9c0.5,0.7,0.6,1.5,0.4,2.3
				c-0.2,1-0.4,2-0.8,3c-0.4,1-0.9,1.9-1.4,2.9s-1.1,1.9-1.6,2.8s-1.1,1.9-1.7,2.8c-0.6,1.1-1.3,2.2-2,3.4c-0.7,1.2-1.4,2.4-2.1,3.6
				c-0.7,1.2-1.2,2.4-1.7,3.6s-0.8,2.3-0.9,3.2c-0.1,0.6,0,1,0.4,1.1c0.3,0.1,0.8,0,1.3-0.3c0.9-0.5,1.9-1.4,3-2.6s2.3-2.5,3.5-4
				c1.2-1.4,2.3-2.9,3.3-4.3s1.9-2.5,2.5-3.4c0.3-0.4,0.6-0.6,1-0.8c0.4-0.1,0.7-0.1,0.9,0.1c0.3,0.2,0.4,0.5,0.4,1
				s-0.1,1.1-0.6,1.8c-0.8,1.5-1.8,3.2-2.9,5.3c-1.1,2-2.4,4.1-3.7,6c-1.4,2-2.8,3.8-4.4,5.4c-1.6,1.6-3.2,2.7-4.8,3.2
				s-3.1,0.5-4.4-0.1c-1.4-0.5-2.4-1.5-3.1-2.8c-0.7-1.3-0.9-2.7-0.8-4.3c0.1-1.6,0.4-3.1,0.8-4.7c-1.3,2.6-2.8,5.2-4.3,7.7
				c-1.6,2.6-3.5,4.7-5.7,6.4c-1.4,1.1-2.8,1.7-4.4,2c-1.6,0.3-3,0-4.2-0.9c-1.3-1-2.1-2.2-2.4-3.8c-0.3-1.6-0.3-3.3,0.1-5
				c0.4-1.8,0.9-3.5,1.6-5.3c0.7-1.8,1.4-3.4,2.2-4.8c0.7-1.4,1.5-3,2.4-4.7c1-1.7,2-3.4,3.1-5c1.1-1.7,2.3-3.2,3.5-4.6
				s2.5-2.6,3.7-3.4c1.1-0.8,2.2-1.1,3.1-0.9c1,0.2,1.7,0.6,2.2,1.4s0.7,1.7,0.6,2.8C214.2,97.4,213.6,98.5,212.6,99.7z M248.8,92.5
				c-0.1,0.4-0.2,0.7-0.3,0.9c0.6-0.9,1.3-1.7,1.9-2.6c0.7-0.8,1.4-1.7,2.1-2.5c0.8-0.9,1.7-1.7,2.7-2.5c1-0.8,2-1.4,3-1.9
				c1-0.4,2.1-0.7,3.1-0.6c1,0,2,0.4,3,1.1c0.8,0.6,1.4,1.3,1.7,2.2c0.3,0.9,0.4,1.8,0.4,2.9c0,1-0.2,2.1-0.5,3.1
				c-0.3,1.1-0.6,2.1-1.1,3.1c-0.7,1.6-1.4,3.2-2.3,4.7c-0.8,1.5-1.7,3-2.5,4.5c-0.1,0.2-0.4,0.7-0.7,1.3c-0.4,0.6-0.7,1.3-1.1,2
				s-0.8,1.5-1.1,2.2c-0.4,0.8-0.6,1.3-0.7,1.8c-0.1,0.4,0,0.7,0.3,0.7s0.8-0.3,1.6-1c0.9-0.7,1.8-1.6,2.9-2.8
				c1.1-1.2,2.1-2.5,3.2-3.8s2.1-2.7,3-4c1-1.3,1.8-2.4,2.4-3.2c0.4-0.5,0.7-0.8,1.1-1c0.3-0.1,0.6-0.2,0.8-0.1
				c0.2,0.1,0.4,0.3,0.4,0.7c0,0.4,0,0.8-0.3,1.2c-0.4,0.9-0.9,1.9-1.5,3.1s-1.3,2.4-2.1,3.6c-0.8,1.2-1.5,2.4-2.3,3.6
				s-1.5,2.2-2.1,3.1c-0.7,1-1.5,2.1-2.4,3.2s-1.9,2-2.9,2.8s-2.1,1.4-3.2,1.8c-1.1,0.4-2.3,0.4-3.6,0c-1.2-0.4-2.1-1-2.7-1.9
				c-0.6-0.9-1-1.9-1.1-3s-0.1-2.3,0.1-3.6c0.2-1.3,0.6-2.5,1-3.6c0.6-1.6,1.3-3.1,2.1-4.6s1.6-2.9,2.4-4.4c0.5-0.9,1.1-1.9,1.7-2.8
				c0.6-1,1.2-1.9,1.7-2.9c0.5-0.8,0.6-1.2,0.6-1.4c-0.1-0.2-0.3-0.2-0.7,0c-0.4,0.2-0.9,0.5-1.5,1s-1.2,0.9-1.7,1.4
				c-0.6,0.5-1.1,0.9-1.5,1.3s-0.7,0.6-0.8,0.7c-2.6,2.5-5.1,5.3-7.3,8.4c-1.6,2.1-3,4.3-4.3,6.7c-1.3,2.3-2.3,4.7-3,7.2
				c-0.2,0.6-0.3,1.1-0.4,1.6c0,0.5-0.2,1-0.4,1.5c-0.3,0.6-0.6,1.1-1.1,1.5s-1,0.7-1.5,0.8c-0.5,0.2-1.1,0.2-1.7,0.2
				c-0.6-0.1-1.1-0.2-1.5-0.5c-1.1-0.6-1.8-1.6-1.9-2.9c-0.1-1.3,0-2.8,0.4-4.4s0.9-3.1,1.6-4.7c0.7-1.5,1.2-2.8,1.7-3.8
				c0.6-1.3,1.3-2.6,2.1-3.9s1.6-2.6,2.4-4c0.8-1.3,1.5-2.7,2.3-4.1c0.7-1.4,1.3-2.8,1.8-4.3c0.2-0.9,0.6-1.7,1.1-2.3
				c0.5-0.6,1.1-1,1.8-1.3s1.3-0.4,2-0.3s1.3,0.3,1.8,0.6c0.5,0.4,0.9,0.9,1.2,1.5C249,90.8,249.1,91.6,248.8,92.5z"/>
		</g>
		
			<linearGradient id="SVGID_2_" gradientUnits="userSpaceOnUse" x1="23.392" y1="214.7764" x2="240.7239" y2="214.7764" gradientTransform="matrix(1 0 0 -1 0 300)">
			<stop  offset="0" style="stop-color:#F89631"/>
			<stop  offset="4.469138e-02" style="stop-color:#F7913A"/>
			<stop  offset="0.2847" style="stop-color:#F3765A"/>
			<stop  offset="0.5084" style="stop-color:#F15D68"/>
			<stop  offset="0.7092" style="stop-color:#EF4570"/>
			<stop  offset="0.8798" style="stop-color:#EE3473"/>
			<stop  offset="1" style="stop-color:#EE2B74"/>
		</linearGradient>
		<path class="st2" d="M254.5,69.5c-22.1-39-62.1-60.7-106.9-60.7C96.1,8.8,50.7,41,31.8,88.1l0,0c0,0-6.1,13.4-4.3,22
			c0.5,2.9,1.6,5.6,4,8.1c3,3.2,8.8,4.7,14.1,4.9c-1.8,4.4-3.8,8.7-6.1,12.9c-0.6,1.1-1.3,2.4-2.1,3.6c-6.4-1.6-12.8-2.3-19.5,0.3
			c-5.2,2-9.5,6.6-8.4,12.5c1.2,6.2,7.2,9.7,13.2,9.2c7-0.6,12.1-6,16.1-11.2c0.6-0.8,1.2-1.6,1.8-2.4c7.2,2.1,14.3,5,21.9,5.3
			c4.8,0.2,4.8-7.3,0-7.5c-6.1-0.2-11.9-2.2-17.8-4.1c2-3.3,3.7-6.7,5.3-10.1c2.1-4.7,3.9-9.4,5.3-14.2c8.8-4.5,16-11.8,20-20.9
			c2.4-5.4,4.1-11.8,0.6-17.1c-3.2-4.8-9.3-5.6-14-2.6C56.3,80.3,55.3,87,54.1,93c-1.3,6.4-2.9,12.8-4.8,19
			c-0.9,0.4-1.9,0.8-2.9,1.1c-2.9,0.7-6,0.5-8-1.9s-1.8-5.8-1.1-9.1V102c14-49,59.1-83.1,110.1-83.1c41.2,0,77.8,19.8,98.2,55.6
			c1.4,2.4,4.4,3.2,6.8,1.9C255.1,74.9,255.9,71.9,254.5,69.5z M24.5,153.5c-3.1,1.2-8.5,0.5-7.1-3.7c0.8-2.3,3.3-3.1,5.5-3.6
			c3.3-0.8,6.9-0.6,10.3,0C30.6,149.4,27.8,152.2,24.5,153.5z M62.6,89.3c0.5-2.1,1.4-5.5,3.8-6.5c3.9-1.5,4.4,3.2,3.9,5.7
			c-0.8,3.8-2.8,7.5-5,10.6c-2,2.9-4.4,5.4-7,7.5C59.8,100.9,61.1,95.1,62.6,89.3z"/>
		
			<linearGradient id="SVGID_3_" gradientUnits="userSpaceOnUse" x1="26.7111" y1="74.1517" x2="271.6034" y2="74.1517" gradientTransform="matrix(1 0 0 -1 0 300)">
			<stop  offset="0" style="stop-color:#F89631"/>
			<stop  offset="6.450558e-02" style="stop-color:#F68C41"/>
			<stop  offset="0.2176" style="stop-color:#F3765A"/>
			<stop  offset="0.373" style="stop-color:#F16166"/>
			<stop  offset="0.5286" style="stop-color:#F04E6D"/>
			<stop  offset="0.6846" style="stop-color:#EE3D72"/>
			<stop  offset="0.8413" style="stop-color:#EE3074"/>
			<stop  offset="1" style="stop-color:#EE2B74"/>
		</linearGradient>
		<path class="st3" d="M140.6,292c-23.3,0-46.2-6.2-66.2-17.9c-19.4-11.4-35.7-27.6-47-47c-1.4-2.4-0.6-5.4,1.8-6.8
			c2.4-1.4,5.4-0.6,6.8,1.8c21.7,37,61.8,60,104.6,60c31.7,0,61.8-12.2,84.5-34.3s35.7-51.7,36.6-83.3c0.1-2.8,2.4-4.9,5.1-4.8
			c2.8,0.1,4.9,2.4,4.8,5.1c-1,34.2-15,66.3-39.6,90.2C207.5,278.8,175,292,140.6,292z"/>
		<g>
			<g>
				<path class="st4" d="M202,187.2c-8-8.1-20-7.8-28.9-2.2c-2.5,1.6-4.8,3.6-6.6,6c-0.2,0.2-0.4,0.5-0.5,0.7
					c-0.2-0.3-0.5-0.5-0.7-0.7c-3.1-3.2-6.6-5.1-10.1-5.8c-13.4-2.8-28.2,10.1-29,24.8c-0.6,10.9,5.4,19.7,13.3,26.5
					c6.7,5.8,15,12.4,13,21.1c-0.4,1.6-1.1,3.3-2.3,5.1c2-0.7,4-1.4,6.1-2.2c15.4-5.6,31.1-12.6,42-25
					C210,222.1,215.9,201.1,202,187.2z"/>
			</g>
			<path class="st0" d="M159.8,207.3c-0.4-1.1-1-2-1.9-3c-1-1-2.1-1.7-3.4-2.2c0.3-0.5,0.8-1.1,1.5-1.7c0.6-0.5,0.5-0.8,0.4-1.1
				c-0.2-0.3-0.5-0.3-0.8-0.2c-0.2,0.1-0.4,0.2-0.6,0.5c-0.6,0.7-1.2,1.4-1.7,2.1c-1.6-0.4-3.3-0.2-5.1,0.5c-2.9,1.1-4.9,2.9-6,5.3
				c-1.1,2.3-1.2,4.7-0.3,7c0.3,0.7,0.6,1.3,1,1.8c-1.5-0.1-3-0.1-4.4,0.1c-5.7,0.6-10.5,3.8-13.7,8.6c-0.3,0.4-1.8,2.6-0.9,3.1
				c0.5,0.3,1.2-0.1,1.6-0.3c0.6-0.3,1-0.8,1.4-1.4c0.3-0.4,0.6-0.9,0.9-1.3c0.6-0.9,1.2-1.9,2-2.7c1.7-1.6,3.5-3.1,5.7-4.1
				c1.2-0.5,2.5-0.8,3.8-1c1.6-0.2,3.3-0.1,4.9,0.3c0.2,0.1,0.4,0.2,0.6,0.3c0.6,0.3,1.6,0.8,2.2,0.4c0.4-0.2,0.4-0.7,0.2-1.1
				c-0.4-0.6-1.4-0.5-2.1-0.8c-0.9-0.4-1.6-1.4-2.2-2.8c-0.8-2-0.7-3.9,0.2-5.9c0.9-1.9,2.4-3.3,4.4-4c1.6-0.6,3.1-0.7,4.5-0.2
				c-1.4,2.5-2.4,5.9-2.9,9.8l-0.1-0.1c-0.4-0.5-0.8-1.3-1.4-1.1c-0.3,0.1-0.4,0.4-0.3,0.8c0.2,0.4,0.9,1.3,1.5,1.9
				c-0.8,6.2-2.2,9.3-4.2,10.4c-1.2,0.7-2.5,0.1-2.4-1.4c0.1-0.8,0.8-1.3,1.2-1.9c0.4-0.6,0.5-1.1,0.3-1.6s-0.5-0.8-1-1.1
				c-0.5-0.2-1-0.3-1.6,0c-0.7,0.3-1.3,0.8-1.7,1.5c-0.5,1-0.5,2.1,0,3.3c0.5,1.4,1.5,2.3,2.9,2.7c1.4,0.5,2.9,0.4,4.5-0.2
				c1.7-0.6,3.1-1.8,4.2-3.4c1.3-1.9,1.9-4.3,1.9-7.1c1.1,0,2.2-0.2,3.2-0.5c1.6-0.6,2.8-1.8,3.5-3.4
				C160.3,210.7,160.4,209,159.8,207.3 M156,211.4c-0.3,1.2-0.8,2.6-2.1,3.1c-0.3,0.1-0.7,0.2-1,0.2c-0.2-4.5,0-8.1,0.6-10.3
				c1,0.7,1.7,1.6,2.1,2.8C156.1,208.7,156.3,210.1,156,211.4"/>
			<path class="st0" d="M165.5,200.3c-0.7-0.6-1.8-0.3-2.2,0.5c-1-0.9-2.4,0.2-2.3,1.4c0,0.7,0.5,1.2,1,1.6c0.5,0.4,1.2,0.8,0.8,1.6
				c1-0.5,2.1-1,2.8-2C166.2,202.4,166.4,201.1,165.5,200.3"/>
			<path class="st0" d="M189.2,197c-0.3-0.6-1.2-0.8-1.8-0.7c-0.5,0.1-1.2,0.3-1.5,0.8s-0.3,1-0.3,1.5c0,0.3-0.2,0.6-0.4,0.9
				l-2.8,2.4c0,0,1.9-10.6,1.9-10.9c0.1-0.4,0.1-0.9,0.1-0.9c0.1-0.2-0.2-0.3-0.4-0.2c0,0-0.1,0-1.2,0.6c-1.3,0.7-1.6,1.2-1.9,2.5
				c0,0-1.7,8.7-2.7,13.6c-0.2,0.6-0.4,1.1-0.6,1.7c-0.2,0.7-0.5,1.4-1,2c-0.2,0.2-0.4,0.5-0.7,0.5c-0.6,0-0.3-1.7-0.3-2.1
				c0-0.1,0-0.2,0-0.4l0.1-0.7c0.2-1.2,0.2-2.2,0-2.9s-0.6-1.2-1.1-1.4c-0.2-0.1-0.6-0.2-0.9-0.3c-0.3,0-0.6,0-0.9,0.1
				c-0.6,0.2-1.2,0.5-1.6,1c-0.4,0.5-0.8,1-1.1,1.6l-0.2,0.3l0.2-1.4c0-0.3-0.3-0.3-0.5-0.3c0,0,0.1,0-1,0.6c-0.9,0.5-1.6,1-1.9,2.4
				c0,0-0.1,0.3-0.2,0.8c0,0.1,0,0.2-0.1,0.3l-0.1,0.4c-0.3,1.2-0.7,2.3-1.1,3.4c-0.2,0.7-0.5,1.4-1,2c-0.2,0.2-0.4,0.6-0.7,0.6
				c-0.6,0-0.3-1.7-0.3-2.1c0-0.4,0.1-0.8,0.2-1.1c0.1-0.7,0.3-1.5,0.4-2.3l0.6-2.7c0.1-0.3-0.3-0.3-0.5-0.3c0,0-0.1,0-1.2,0.6
				c-0.9,0.5-1.6,1-1.9,2.4c-0.2,0.9-0.3,1.8-0.5,2.7c-0.2,1.4-0.7,3.5,0.9,4.4c0.5,0.3,1.1,0.3,1.8,0s1.3-0.7,1.8-1.3
				c0.2-0.2,0.3-0.5,0.4-0.7c0.1,0.5,0.5,1,1.1,0.9c0.5-0.1,1-0.3,1.3-0.4c0.6-0.2,0.7-1,0.7-1c0.3-1.8,0.7-3.3,0.7-3.3
				c0.3-1.4,1.3-3.6,2.3-4.7c0.1-0.1,0.4-0.3,0.6-0.3c0.4,0.1,0.3,0.8,0.3,1.1c0,0-0.5,2.9-0.4,3.5c0,1.8,0.8,3.1,3.2,2.2
				c0.7-0.3,1.3-0.7,1.8-1.3c0.2-0.2,0.3-0.4,0.4-0.7c0.1,0.5,0.5,1,1.1,0.9c0.5-0.1,1-0.3,1.3-0.4c0.6-0.2,0.9-1.1,0.9-1.1
				c0.5-1.8,1.2-5.5,1.2-5.5l1.9,3c1.2,1.6,2.3,1.4,3.1,1.2l0.3-0.1c0.7-0.3,1.3-0.7,1.8-1.3c0.2-0.2,0.3-0.4,0.4-0.7
				c0.3-0.5,0.5-1.1,0.7-1.7c0-0.2,0.1-0.4,0.1-0.5c0-0.3,0.1-0.9-0.3-1c-0.3-0.1-0.5,0.1-0.6,0.3s-0.1,0.4-0.1,0.7
				c0,0.8-0.3,1.6-0.8,2.1c-0.2,0.3-0.5,0.7-0.9,0.5c-0.3-0.1-2.3-3.4-3.1-4.7c0.7-0.6,2.2-2,3.4-3.1
				C188.7,198.6,189.5,197.8,189.2,197"/>
			<path class="st0" d="M177.5,231.9c-0.5,0.2-0.7,0.7-0.9,1.2c-0.2,0.6-0.5,1.2-0.9,1.7c-2.7,3.4-8.1,2.8-11.5,2.1
				c-0.7-0.1-3.8-0.9-4.8-1c0.8-2,1.1-4.2,1.1-6.7c1.6-1.3,2.9-2.9,4-4.8c1.2-2.2,1.6-4.2,1.4-6c-0.1-0.8-0.3-1.4-0.8-1.8
				c-0.6-0.6-1.5-0.8-2.7-0.3c-1.9,0.7-3.5,2.5-4.6,5.2c-0.8,2-1.4,4.2-1.6,6.6c0,0.6-0.1,1.1-0.1,1.5c-1.4,0.3-4.1,0.1-5-2.7
				c-0.4-1.3-0.1-5.4,3.2-6.4c0.9-0.3,1.5-0.1,2-0.4c0.4-0.2,0.8-0.7,0.3-1.1c-0.6-0.4-1.7-0.1-2.4,0.1c-0.9,0.3-1.7,0.8-2.4,1.4
				c-0.4,0.4-0.8,0.8-1.1,1.3c-0.6,0.9-1.1,2-1.3,3.2c-0.2,1.4,0.2,3,1,4.1c0.2,0.3,0.4,0.6,0.7,0.8c0.7,0.6,1.7,1,2.7,1.2
				c0.2,0,1.9,0.1,2,0c-0.1,1.8-0.4,3.5-0.8,4.9c-1.9,0.2-3.9,0.6-5.1,1.2c-1.2,0.6-2.2,1.7-2,3.1c0.1,1.1,1,1.9,2.1,2.2
				s2.4,0.2,3.9-0.4c0.3-0.1,0.7-0.3,1-0.5c0.6-0.3,1.1-0.7,1.6-1.2s1-1,1.4-1.6c0.1-0.2,0.2-0.4,0.4-0.5c1,0,3.6,0.6,4.1,0.7
				c7.4,1.3,13.3-0.9,15.6-4.7c0.3-0.5,0.5-1,0.5-1.5C178.6,232,178,231.7,177.5,231.9 M160.8,219.7c0.2-0.7,0.5-1.4,1-1.9
				c0.2-0.2,0.4-0.4,0.8-0.5c0.3-0.1,0.6-0.1,0.9,0.1c0.3,0.2,0.5,0.4,0.6,0.7c0.4,1.1,0.1,2.7-0.9,4.9c-0.9,2-1.9,3.4-2.8,4.3
				C160.3,223.8,160.5,221.3,160.8,219.7 M152,240.6c-0.4,0.2-0.9,0.2-1.4,0c-0.6-0.2-1.2-0.9-1-1.6c0.2-0.8,1.2-1.1,1.9-1.2
				c0.9-0.2,1.9-0.1,2.9,0C153.7,239.3,152.9,240.2,152,240.6"/>
			<path class="st0" d="M208.8,226c-0.4-0.3-1.1-0.1-1.6,0.1c-0.6,0.2-1.1,0.6-1.5,1c-0.4,0.3-1.3,1.4-2.5,2
				c-1.8,0.9-3.1,1.2-3.1,1.2c-2.7,0.6-4.4,0.4-7.1-0.2c0.7-1.7,2.2-9.7,2.3-10.1c0.1-0.7,0.4-1.7,0.5-2.5l0.6-2.7
				c0.1-0.3-0.3-0.3-0.5-0.3c0,0-0.1,0-1.2,0.6c-1.3,0.7-1.7,1.1-2,2.4c0,0-1.1,4.4-1.3,5.1c-0.2,0.7-0.5,1.4-1,2
				c-0.2,0.2-0.4,0.5-0.7,0.6c-0.6,0-0.3-1.7-0.3-2.1c0-0.4,0.1-0.7,0.2-1.1c0.1-0.7,0.4-1.7,0.5-2.5l0.6-2.7
				c0.1-0.3-0.3-0.3-0.5-0.3c0,0-0.1,0-1.2,0.6c-1.3,0.7-1.7,1.1-1.9,2.4c0,0-0.2,1.1-0.5,2.4c-0.2,0.8-0.5,1.8-0.8,2.6
				c-0.2,0.7-0.5,1.4-1,2c-0.2,0.2-0.4,0.5-0.7,0.6c-0.6,0-0.3-1.7-0.3-2.1c0-0.4,2.3-12.4,2.3-12.8l0,0c0.1-0.4,0.1-0.8,0.1-0.8
				c0-0.3-0.2-0.3-0.4-0.2c0,0-0.1,0-1.2,0.6c-0.9,0.5-1.6,1-1.9,2.4c0,0-1.2,5.9-1.4,6.8c-0.4-0.4-0.8-0.5-0.8-0.5
				c-0.5-0.2-1.1-0.3-1.7,0c-1,0.4-1.5,0.8-2.2,1.5s-1.2,1.4-1.6,2.2c-0.4,0.8-0.6,1.6-0.7,2.4c0,0.1,0,0.2,0,0.3
				c-0.2,0.6-0.4,1.3-0.6,1.9c-0.2,0.7-0.5,1.4-1,2c-0.2,0.2-0.4,0.6-0.7,0.6c-0.6,0-0.3-1.7-0.3-2.1c0-0.4,1.2-6.2,1.2-6.2
				c0.1-0.3-0.3-0.3-0.5-0.3c0,0-2.1,0.9-2.7,1.6c-0.3,0.4-0.4,0.7-0.5,1c-0.3-0.3-0.5-0.6-1.1-0.9c-0.4-0.2-1-0.1-1.4,0
				c-1,0.4-1.5,0.7-2.2,1.4s-1.2,1.5-1.6,2.2c-0.4,0.8-0.6,1.6-0.7,2.4c-0.1,0.8,0,1.5,0.3,2.2c0.4,1,0.8,1.6,1.4,1.9
				c0.6,0.3,1.3,0.3,2,0c0.4-0.2,0.8-0.4,1.1-0.7s0.6-0.6,0.8-0.9c0.2-0.3,0.7-1.4,0.7-1.7c0.3,0.7,0.6,1.1,1.1,1.4
				c0.5,0.3,1.1,0.3,1.8,0s1.3-0.7,1.8-1.3c0.4-0.5,0.6-1.1,0.8-1.6c0.1-0.4,0.3-0.8,0.4-1.1l0,0c0.4,1,0.8,1.6,1.4,1.9
				c0.6,0.3,1.3,0.3,2,0c0.4-0.2,0.8-0.4,1.1-0.7s0.6-0.6,0.8-0.9c0.2-0.3,0.7-1.4,0.7-1.7c0.3,0.7,0.6,1.1,1.1,1.4
				c0.5,0.3,1.1,0.3,1.8,0s1.3-0.7,1.8-1.3c0.4-0.5,0.6-1.1,0.8-1.6c0,0,0-0.1,0.1-0.1c0.3,0.6,0.6,1,1.1,1.3s1.1,0.3,1.8,0
				s1.3-0.7,1.8-1.3c0.2-0.2,0.3-0.5,0.5-0.8l0,0l-0.3,1.5c-0.3,1.4-0.6,2.3-1.1,3.4l0,0c-1.2-0.1-2.4-0.2-3.5,0.1
				c-0.6,0.2-1.3,0.5-1.6,1.1c-0.3,0.5-0.4,1-0.3,1.6c0.1,0.6,0.5,1,1.2,1.3c0.8,0.3,1.7,0.4,2.9,0.1c1.2-0.3,2.5-1.2,3.5-2.3
				c7.3,2.5,12.1,0.5,14.7-2l0,0C207.4,228.9,209.6,226.7,208.8,226 M168.9,226.8c0,0.3,0,0.5,0,0.8c-0.1,0.7-0.2,1.4-0.4,2.1
				c-0.2,0.7-0.5,1.3-0.8,1.8c-0.2,0.3-0.4,0.6-0.7,0.8c-0.4,0.2-0.6-0.2-0.7-0.5c-0.1-0.3-0.2-0.6-0.2-1s0-0.8,0-1.3
				c0-0.4,0.1-0.9,0.2-1.4c0.1-0.5,0.3-1,0.5-1.5c0.2-0.4,0.5-1,1-1.2C168.7,225.1,168.9,226.3,168.9,226.8 M180.8,222.9
				c0,0.3,0,0.5,0,0.8c-0.1,0.7-0.2,1.4-0.4,2.1c-0.2,0.7-0.5,1.3-0.8,1.7c-0.1,0.3-0.4,0.6-0.7,0.8c-0.4,0.2-0.6-0.2-0.6-0.5
				c-0.1-0.3-0.2-0.6-0.2-1s0-0.8,0-1.3c0-0.4,0.1-0.9,0.2-1.4c0.1-0.5,0.3-1,0.5-1.5c0.2-0.4,0.5-1,1-1.2
				C180.6,221.2,180.7,222.4,180.8,222.9 M187.4,232.5c-0.3,0.1-0.7,0-1-0.1s-0.5-0.4-0.6-0.7c-0.1-0.5,0.2-1,0.9-1.1
				c0.7-0.2,1.6-0.1,2.7,0.2C188.7,231.7,188,232.3,187.4,232.5"/>
			<path class="st0" d="M201.8,215.6c0-1.2-0.9-2.2-2.1-2.2c-1.2,0-2.2,0.8-2.3,2c0,1.2,0.9,2.2,2.1,2.2
				C200.7,217.7,201.8,216.9,201.8,215.6z M197.9,215.5c0-1,0.8-1.7,1.8-1.7s1.7,0.8,1.7,1.8s-0.8,1.8-1.8,1.7
				C198.6,217.3,197.9,216.5,197.9,215.5z M200.2,216.7h0.5c0,0,0.1-0.9-0.2-1c0.3-0.2,0.3-0.5,0.3-0.7c0-0.4-0.5-0.7-1.1-0.7h-0.9
				l-0.1,2.5h0.5v-0.9c0,0,0.4,0,0.7,0C200.2,215.8,200.2,216.7,200.2,216.7z M199.7,215.4h-0.5v-0.7h0.5c0.3,0,0.5,0.1,0.5,0.3
				C200.3,215.4,200,215.4,199.7,215.4z"/>
			<path class="st5" d="M202,187.2c-8-8.1-20-7.8-28.9-2.2c-2.5,1.6-4.8,3.6-6.6,6c-0.2,0.2-0.4,0.5-0.5,0.7
				c-0.2-0.3-0.5-0.5-0.7-0.7c-3.1-3.2-6.6-5.1-10.1-5.8c-13.4-2.8-28.2,10.1-29,24.8c-0.6,10.9,5.4,19.7,13.3,26.5
				c6.7,5.8,15,12.4,13,21.1c-0.4,1.6-1.1,3.3-2.3,5.1c2-0.7,4-1.4,6.1-2.2c15.4-5.6,31.1-12.6,42-25
				C210,222.1,215.9,201.1,202,187.2z"/>
		</g>
		<g>
			<path class="st4" d="M101.1,206.5c1.8-0.3,3.2,0.1,4.3,1.3c1.1,1.1,1.7,2.7,1.7,4.8c0,2-0.6,3.8-1.7,5.4
				c-1.1,1.5-2.5,2.5-4.3,2.8c-1.5,0.3-2.7-0.1-3.5-1v1.2l-4.8,0.9v-18.8l4.8-0.9v6.6C98.5,207.5,99.6,206.7,101.1,206.5z
				 M98.3,215.9c0.4,0.4,1,0.6,1.7,0.4c0.7-0.1,1.3-0.5,1.7-1c0.4-0.6,0.6-1.2,0.6-1.9s-0.2-1.3-0.6-1.7s-1-0.6-1.7-0.4
				c-0.7,0.1-1.3,0.5-1.7,1c-0.4,0.6-0.6,1.2-0.6,1.9C97.6,214.9,97.9,215.5,98.3,215.9z"/>
			<path class="st4" d="M116.5,204.1l5.5-1l-4.4,14.2c-0.6,2.1-1.6,3.7-3,4.8s-3.1,1.8-5.4,2.1v-4.7c0.9-0.2,1.6-0.3,2-0.6
				c0.5-0.2,0.8-0.5,1.1-0.9l-5.2-12.3l5.5-1l2.3,6.8L116.5,204.1z"/>
		</g>
		<polygon class="st5" points="220.2,162 226.7,160.9 223.5,149.1 		"/>
		
			<linearGradient id="SVGID_4_" gradientUnits="userSpaceOnUse" x1="32.1784" y1="117.85" x2="271.9405" y2="117.85" gradientTransform="matrix(1 0 0 -1 0 300)">
			<stop  offset="0" style="stop-color:#F89631"/>
			<stop  offset="6.450558e-02" style="stop-color:#F68C41"/>
			<stop  offset="0.2176" style="stop-color:#F3765A"/>
			<stop  offset="0.373" style="stop-color:#F16166"/>
			<stop  offset="0.5286" style="stop-color:#F04E6D"/>
			<stop  offset="0.6846" style="stop-color:#EE3D72"/>
			<stop  offset="0.8413" style="stop-color:#EE3074"/>
			<stop  offset="1" style="stop-color:#EE2B74"/>
		</linearGradient>
		<polygon class="st6" points="72.4,187.5 85.2,185.2 85.2,174.9 72.4,177.2 72.4,172.8 86.6,170.3 86.6,159.8 61.3,164.3 
			61.3,204.5 86.9,200 86.9,189.4 72.4,192 		"/>
		
			<linearGradient id="SVGID_5_" gradientUnits="userSpaceOnUse" x1="32.2" y1="112.55" x2="271.9621" y2="112.55" gradientTransform="matrix(1 0 0 -1 0 300)">
			<stop  offset="0" style="stop-color:#F89631"/>
			<stop  offset="6.450558e-02" style="stop-color:#F68C41"/>
			<stop  offset="0.2176" style="stop-color:#F3765A"/>
			<stop  offset="0.373" style="stop-color:#F16166"/>
			<stop  offset="0.5286" style="stop-color:#F04E6D"/>
			<stop  offset="0.6846" style="stop-color:#EE3D72"/>
			<stop  offset="0.8413" style="stop-color:#EE3074"/>
			<stop  offset="1" style="stop-color:#EE2B74"/>
		</linearGradient>
		<polygon class="st7" points="32.2,209.7 43.3,207.7 43.3,195 56.1,192.8 56.1,181.6 43.3,183.9 43.3,178.6 56.3,176.3 56.3,165.2 
			32.2,169.5 		"/>
		
			<linearGradient id="SVGID_6_" gradientUnits="userSpaceOnUse" x1="32.1784" y1="123.3162" x2="271.9405" y2="123.3162" gradientTransform="matrix(1 0 0 -1 0 300)">
			<stop  offset="0" style="stop-color:#F89631"/>
			<stop  offset="6.450558e-02" style="stop-color:#F68C41"/>
			<stop  offset="0.2176" style="stop-color:#F3765A"/>
			<stop  offset="0.373" style="stop-color:#F16166"/>
			<stop  offset="0.5286" style="stop-color:#F04E6D"/>
			<stop  offset="0.6846" style="stop-color:#EE3D72"/>
			<stop  offset="0.8413" style="stop-color:#EE3074"/>
			<stop  offset="1" style="stop-color:#EE2B74"/>
		</linearGradient>
		<path class="st8" d="M117.1,173.9c-1.3-0.7-2.5-1.2-3.7-1.5s-2.7-0.6-4.6-0.8c-2.5-0.3-4.2-0.6-5-0.9c-0.9-0.3-1.3-0.9-1.3-1.7
			c0-0.6,0.3-1.2,0.7-1.7c0.5-0.5,1.2-0.8,2.2-1c2.5-0.4,4.3,0.7,5.3,3.3l9.2-7.2c-1.2-2.8-3.1-4.8-5.7-5.9
			c-1.7-0.8-3.6-1.1-5.6-1.1c-1,0-2.1,0.1-3.2,0.3c-4.2,0.7-7.6,2.5-10.1,5.4c-2.6,2.9-3.9,6.1-3.9,9.8c0,6.2,3.9,9.8,11.6,10.9
			c0.5,0.1,1.2,0.2,2.2,0.2c1,0.1,1.6,0.2,2,0.2c0.4,0.1,0.8,0.2,1.4,0.3c0.5,0.1,0.9,0.3,1.1,0.6s0.3,0.6,0.3,1
			c0,1.4-1.3,2.3-3.8,2.7c-3.4,0.6-5.7-0.7-7-3.9l-9.5,7.4c1,2.9,2.9,5.1,5.7,6.4c2.8,1.3,6.3,1.6,10.6,0.9
			c4.7-0.8,8.4-2.6,11.1-5.3s4.1-6.1,4.1-10.2c0-2-0.3-3.7-1-5C119.4,175.6,118.4,174.6,117.1,173.9z"/>
		
			<linearGradient id="SVGID_7_" gradientUnits="userSpaceOnUse" x1="32.1784" y1="149.1" x2="271.9405" y2="149.1" gradientTransform="matrix(1 0 0 -1 0 300)">
			<stop  offset="0" style="stop-color:#F89631"/>
			<stop  offset="6.450558e-02" style="stop-color:#F68C41"/>
			<stop  offset="0.2176" style="stop-color:#F3765A"/>
			<stop  offset="0.373" style="stop-color:#F16166"/>
			<stop  offset="0.5286" style="stop-color:#F04E6D"/>
			<stop  offset="0.6846" style="stop-color:#EE3D72"/>
			<stop  offset="0.8413" style="stop-color:#EE3074"/>
			<stop  offset="1" style="stop-color:#EE2B74"/>
		</linearGradient>
		<polygon class="st9" points="256.2,158.9 256.2,129.8 245.1,131.8 245.1,172 271.7,167.4 271.9,156.2 		"/>
		
			<linearGradient id="SVGID_8_" gradientUnits="userSpaceOnUse" x1="32.1784" y1="143.15" x2="271.9405" y2="143.15" gradientTransform="matrix(1 0 0 -1 0 300)">
			<stop  offset="0" style="stop-color:#F89631"/>
			<stop  offset="6.450558e-02" style="stop-color:#F68C41"/>
			<stop  offset="0.2176" style="stop-color:#F3765A"/>
			<stop  offset="0.373" style="stop-color:#F16166"/>
			<stop  offset="0.5286" style="stop-color:#F04E6D"/>
			<stop  offset="0.6846" style="stop-color:#EE3D72"/>
			<stop  offset="0.8413" style="stop-color:#EE3074"/>
			<stop  offset="1" style="stop-color:#EE2B74"/>
		</linearGradient>
		<path class="st10" d="M217,136.8l-12.4,42.4l11.9-2.1l1.3-5.4l11.2-2l1.3,4.9l11.9-2.1l-12.4-38L217,136.8z M220.2,162l3.2-12.9
			l3.2,11.8L220.2,162z"/>
		
			<linearGradient id="SVGID_9_" gradientUnits="userSpaceOnUse" x1="32.1784" y1="130.75" x2="271.9405" y2="130.75" gradientTransform="matrix(1 0 0 -1 0 300)">
			<stop  offset="0" style="stop-color:#F89631"/>
			<stop  offset="6.450558e-02" style="stop-color:#F68C41"/>
			<stop  offset="0.2176" style="stop-color:#F3765A"/>
			<stop  offset="0.373" style="stop-color:#F16166"/>
			<stop  offset="0.5286" style="stop-color:#F04E6D"/>
			<stop  offset="0.6846" style="stop-color:#EE3D72"/>
			<stop  offset="0.8413" style="stop-color:#EE3074"/>
			<stop  offset="1" style="stop-color:#EE2B74"/>
		</linearGradient>
		<path class="st11" d="M131,190.1c0.2-0.2,0.4-0.4,0.6-0.7c3.1-3.1,6.7-5.4,10.5-6.9v-21.4l9.2-1.6v-11.1l-29.4,5.2v11.1l9.2-1.6
			v27H131z"/>
		
			<linearGradient id="SVGID_10_" gradientUnits="userSpaceOnUse" x1="32.1784" y1="134.15" x2="271.9405" y2="134.15" gradientTransform="matrix(1 0 0 -1 0 300)">
			<stop  offset="0" style="stop-color:#F89631"/>
			<stop  offset="6.450558e-02" style="stop-color:#F68C41"/>
			<stop  offset="0.2176" style="stop-color:#F3765A"/>
			<stop  offset="0.373" style="stop-color:#F16166"/>
			<stop  offset="0.5286" style="stop-color:#F04E6D"/>
			<stop  offset="0.6846" style="stop-color:#EE3D72"/>
			<stop  offset="0.8413" style="stop-color:#EE3074"/>
			<stop  offset="1" style="stop-color:#EE2B74"/>
		</linearGradient>
		<path class="st12" d="M156,181.2c3.5,0.7,6.8,2.3,9.7,4.7c0.2-0.2,0.4-0.4,0.6-0.5v-39.6l-11.1,2V181
			C155.4,181.1,155.7,181.1,156,181.2z"/>
		
			<linearGradient id="SVGID_11_" gradientUnits="userSpaceOnUse" x1="32.1784" y1="141.75" x2="271.9405" y2="141.75" gradientTransform="matrix(1 0 0 -1 0 300)">
			<stop  offset="0" style="stop-color:#F89631"/>
			<stop  offset="6.450558e-02" style="stop-color:#F68C41"/>
			<stop  offset="0.2176" style="stop-color:#F3765A"/>
			<stop  offset="0.373" style="stop-color:#F16166"/>
			<stop  offset="0.5286" style="stop-color:#F04E6D"/>
			<stop  offset="0.6846" style="stop-color:#EE3D72"/>
			<stop  offset="0.8413" style="stop-color:#EE3074"/>
			<stop  offset="1" style="stop-color:#EE2B74"/>
		</linearGradient>
		<path class="st13" d="M181.6,177.4c0.2,0,0.3-0.1,0.5-0.1c0.4-0.1,0.8-0.1,1.2-0.2c0.3,0,0.6-0.1,0.9-0.1c0.3,0,0.6-0.1,0.9-0.1
			c0.6,0,1.2-0.1,1.8-0.1c0.7,0,1.3,0,2,0.1c0.1,0,0.2,0,0.3,0c0.6,0.1,1.3,0.1,1.9,0.2c0.1,0,0.1,0,0.2,0c1.4,0.2,2.7,0.6,4,1
			l11.6-39.7l-12.2,2.2l-6.4,26.7l-6.4-24.4l-12.2,2.2l10.6,32.6C180.7,177.6,181.1,177.5,181.6,177.4z"/>
	</g>
</g>
</svg>
