<svg xmlns="http://www.w3.org/2000/svg" xmlns:xlink="http://www.w3.org/1999/xlink" width="105.38" height="83.375" viewBox="0 0 105.38 83.375">
  <defs>
    <linearGradient id="linear-gradient" x1="0.5" x2="-0.83" y2="1.325" gradientUnits="objectBoundingBox">
      <stop offset="0" stop-color="#d21f7a"/>
      <stop offset="0.307" stop-color="#ee2f71"/>
      <stop offset="1" stop-color="#f7941d"/>
    </linearGradient>
  </defs>
  <g id="Symbole_14_38" data-name="Symbole 14 – 38" transform="translate(-532 -137)">
    <g id="Groupe_53" data-name="Groupe 53" transform="translate(532.005 167.405)">
      <path id="Tracé_95" data-name="Tracé 95" d="M5.5,52.51a5.49,5.49,0,0,1-3.887-9.376L43.133,1.609a5.5,5.5,0,0,1,7.773,7.773L9.382,50.907A5.561,5.561,0,0,1,5.5,52.51Z" fill="url(#linear-gradient)"/>
    </g>
    <g id="Groupe_54" data-name="Groupe 54" transform="translate(554.005 137.005)">
      <path id="Tracé_96" data-name="Tracé 96" d="M2.5,83.37A2.5,2.5,0,0,1,.73,79.1L79.1.73a2.5,2.5,0,0,1,3.54,3.54L4.27,82.64A2.49,2.49,0,0,1,2.5,83.37Z" fill="url(#linear-gradient)"/>
    </g>
  </g>
</svg>
