<?xml version="1.0" encoding="utf-8"?>
<!-- Generator: Adobe Illustrator 23.0.1, SVG Export Plug-In . SVG Version: 6.00 Build 0)  -->
<svg version="1.1" id="Calque_1" xmlns="http://www.w3.org/2000/svg" xmlns:xlink="http://www.w3.org/1999/xlink" x="0px" y="0px"
	 viewBox="0 0 24.3 13.8" style="enable-background:new 0 0 24.3 13.8;" xml:space="preserve">
<path style="fill:#FFFFFF;" d="M13.4,13.2L23.8,2.9c0.3-0.3,0.5-0.7,0.5-1.2c0,0,0,0,0,0c0-0.4-0.2-0.9-0.5-1.2
	C23.5,0.2,23,0,22.6,0c-0.4,0-0.9,0.2-1.2,0.5l-9.2,9.2L2.9,0.5C2.6,0.2,2.1,0,1.7,0C0.8,0,0,0.8,0,1.7c0,0,0,0,0,0
	c0,0.4,0.2,0.9,0.5,1.2l10.4,10.4c0.4,0.4,0.9,0.5,1.3,0.5C12.7,13.7,13.1,13.6,13.4,13.2z"/>
</svg>
