<?xml version="1.0" encoding="utf-8"?>
<!-- Generator: Adobe Illustrator 23.0.1, SVG Export Plug-In . SVG Version: 6.00 Build 0)  -->
<svg version="1.1" id="Calque_1" xmlns="http://www.w3.org/2000/svg" xmlns:xlink="http://www.w3.org/1999/xlink" x="0px" y="0px"
	 viewBox="0 0 13.8 24.3" style="enable-background:new 0 0 13.8 24.3;" xml:space="preserve">
<path style="fill:#FFFFFF;" d="M13.2,10.8L2.9,0.5C2.6,0.2,2.2,0,1.7,0c0,0,0,0,0,0C1.3,0,0.8,0.2,0.5,0.5C0.2,0.8,0,1.2,0,1.7
	c0,0.4,0.2,0.9,0.5,1.2l9.2,9.2l-9.3,9.3C0.2,21.7,0,22.1,0,22.6c0,0.9,0.8,1.7,1.7,1.7c0,0,0,0,0,0c0.4,0,0.9-0.2,1.2-0.5
	l10.4-10.4c0.4-0.4,0.5-0.9,0.5-1.3C13.7,11.6,13.6,11.2,13.2,10.8z"/>
</svg>
